<svg id="Component_87_1" data-name="Component 87 – 1" xmlns="http://www.w3.org/2000/svg" width="88" height="90" viewBox="0 0 88 90">
  <defs>
    <style>
      .cls-1, .cls-5 {
        fill: none;
      }

      .cls-1 {
        stroke: #451d6a;
        opacity: 0.47;
      }

      .cls-2, .cls-3 {
        fill: #9b3189;
      }

      .cls-2 {
        font-size: 10px;
        font-family: Montserrat-Bold, Montserrat;
        font-weight: 700;
      }

      .cls-4 {
        stroke: none;
      }
    </style>
  </defs>
  <g id="Rectangle_408" data-name="Rectangle 408" class="cls-1">
    <rect class="cls-4" width="88" height="90" rx="17"/>
    <rect class="cls-5" x="0.5" y="0.5" width="87" height="89" rx="16.5"/>
  </g>
  <text id="Agra" class="cls-2" transform="translate(32 79)"><tspan x="0" y="0">Agra</tspan></text>
  <g id="Group_1022" data-name="Group 1022" transform="translate(8 25)">
    <path id="Path_1584" data-name="Path 1584" class="cls-3" d="M72.105,290.725H70.923l-.236-8.668h0a.394.394,0,1,0,0-.788h-.079l-.315-9.456h.158a.394.394,0,1,0,0-.788h-.158l-.158-6.3a.394.394,0,0,0,0-.788v-.867a1.389,1.389,0,0,0-.63-1.182l-.158-.079v-.552a.394.394,0,1,0-.788,0v.552l-.079.079a1.39,1.39,0,0,0-.63,1.182v.867a.394.394,0,0,0,0,.788l-.158,6.3h-.158a.394.394,0,1,0,0,.788h0l-.315,9.456h-.079a.394.394,0,1,0,0,.788h.079l-.236,8.668H63.831l-.236-5.516h0a.394.394,0,0,0,0-.788h-.079l-.236-5.516h.079a.394.394,0,1,0,0-.788H63.2l-.236-5.516a.394.394,0,1,0,0-.788v-.867a1.389,1.389,0,0,0-.63-1.182l-.079-.079v-.552a.394.394,0,0,0-.788,0v.552l-.079.079a1.389,1.389,0,0,0-.63,1.182v.867h0a.394.394,0,1,0,0,.788h0l-.236,5.516h-.158a.394.394,0,0,0,0,.788h.158l-.236,5.516h-.079a.394.394,0,0,0,0,.788h.079l-.236,5.6H56.9V270.709a.394.394,0,1,0-.788,0v1.97H55.32v-.788a.394.394,0,0,0-.788,0v.788H49.8v-1.734h0l.079-.236a2.485,2.485,0,0,0-.788-3.31l-1.34-.867v-1.261a.394.394,0,1,0-.788,0v1.34l-1.34.709a2.5,2.5,0,0,0-.788,3.31l.079.079V272.6H44.13v-3.625a8.22,8.22,0,0,0-2.6-10.166l-4.886-3.31v-2.128a.394.394,0,0,0-.788,0V255.5l-4.886,3.389a8.1,8.1,0,0,0-2.6,10.166v3.625h-.788v-1.891l.079-.079a2.485,2.485,0,0,0-.788-3.31l-1.261-.867v-1.34a.394.394,0,1,0-.788,0v1.261l-1.34.867a2.5,2.5,0,0,0-.788,3.31l.079.236h0V272.6H18.046v-.788a.394.394,0,1,0-.788,0v.788H16.47v-1.97a.394.394,0,1,0-.788,0v20.095H12.53l-.158-5.516h0a.394.394,0,1,0,0-.788h-.079l-.236-5.516h.158a.394.394,0,0,0,0-.788h-.158l-.236-5.516h0a.394.394,0,1,0,0-.788h0v-.867a1.389,1.389,0,0,0-.63-1.182l-.158-.079v-.552a.394.394,0,0,0-.788,0v.552l-.158.079a1.389,1.389,0,0,0-.63,1.182v.867a.394.394,0,1,0,0,.788l-.236,5.516H9.062a.394.394,0,1,0,0,.788h.079L8.9,284.421H8.826a.394.394,0,0,0,0,.788h0l-.236,5.6H5.516l-.236-8.668h0a.394.394,0,1,0,0-.788H5.2l-.315-9.456h.158a.394.394,0,1,0,0-.788H4.886l-.158-6.3a.394.394,0,0,0,0-.788v-.867a1.389,1.389,0,0,0-.63-1.182L3.94,261.8v-.552a.372.372,0,0,0-.394-.394.36.36,0,0,0-.394.315v.63l-.158.079a1.389,1.389,0,0,0-.63,1.182v.867a.394.394,0,0,0,0,.788l-.158,6.3H1.97a.394.394,0,1,0,0,.788h.158l-.315,9.456H1.734a.506.506,0,0,0-.394.394.422.422,0,0,0,.394.394h.079l-.236,8.668H.394a.394.394,0,1,0,0,.788H72.105a.394.394,0,1,0,0-.788ZM3.467,262.513l.079-.079.079.079a.8.8,0,0,1,.315.552v.867H3.152v-.867A.6.6,0,0,1,3.467,262.513Zm-.315,2.206H3.94l.158,6.3H2.916Zm-.236,7.092H4.177l.315,9.456H2.6Zm-.552,18.913.236-8.668H4.413l.236,8.668Zm59.1-19.78a.6.6,0,0,1,.315-.552l.079-.079.079.079a.8.8,0,0,1,.315.552v.867h-.788Zm0,1.655h.788l.236,5.437H61.23Zm-.315,6.3h1.34l.236,5.516H60.915Zm-6.777,3.152H52.8V277.8a1.347,1.347,0,0,1,.552-1.024l.236-.158.236.158a1.23,1.23,0,0,1,.552,1.024Zm-.158-5.91-.473-.315a.352.352,0,0,0-.394,0l-.473.315a2.025,2.025,0,0,0-.946,1.655v4.255h-.788v-7.014h4.728v7.014h-.788V277.8A1.647,1.647,0,0,0,54.217,276.146Zm-8.511,5.91V278.9a2.217,2.217,0,0,1,1.024-1.891l.552-.315.552.394a2.217,2.217,0,0,1,1.024,1.891v3.152H45.706Zm2.522-5.753-.788-.473a.352.352,0,0,0-.394,0l-.788.473a3.011,3.011,0,0,0-1.418,2.522v3.231h-.788v-7.014h6.3v7.014h-.788v-3.231A2.945,2.945,0,0,0,48.228,276.3Zm-5.674-6.068a.372.372,0,0,0-.394.394v.394h-.788v-.394a.394.394,0,1,0-.788,0v.394H39.8v-.394a.394.394,0,1,0-.788,0v.394H38.22v-.394a.394.394,0,1,0-.788,0v.394h-.788v-.394a.394.394,0,1,0-.788,0v.394h-.788v-.394a.394.394,0,1,0-.788,0v.394h-.788v-.394a.394.394,0,1,0-.788,0v.394h-.788v-.394a.394.394,0,1,0-.788,0v.394h-.788v-.394a.394.394,0,1,0-.788,0v.394h-.394v-1.576H43.342v1.576h-.394v-.394A.422.422,0,0,0,42.554,270.236ZM26.793,282.057H23.641v-3.231a2.217,2.217,0,0,1,1.024-1.891l.552-.394.552.315a2.217,2.217,0,0,1,1.024,1.891Zm-.63-5.753-.788-.473a.352.352,0,0,0-.394,0l-.788.473a3.011,3.011,0,0,0-1.418,2.522v3.231h-.788v-7.014h6.3v7.014H27.5v-3.231A2.855,2.855,0,0,0,26.163,276.3ZM19.7,282.057H18.125V277.8a1.347,1.347,0,0,1,.552-1.024l.236-.158.236.158A1.347,1.347,0,0,1,19.7,277.8Zm-.158-5.91-.473-.315a.352.352,0,0,0-.394,0l-.473.315a1.951,1.951,0,0,0-.867,1.655v4.255h-.788v-7.014h4.728v7.014h-.788V277.8A1.769,1.769,0,0,0,19.543,276.146Zm36.407-1.891H51.222v-.867h4.728Zm-9.85-6.3,1.261-.867,1.261.867a1.736,1.736,0,0,1,.552,2.285H45.706A1.638,1.638,0,0,1,46.1,267.951Zm-.394,3.073h3.152V272.6H47.676v-.394a.394.394,0,0,0-.788,0v.394H45.706Zm-.394,2.364h5.122v.867h-6.3v-.867Zm-11.19-15.761,2.128-1.5,2.128,1.5Zm-2.679,1.891,1.34-.946v.236a.394.394,0,0,0,.788,0v-.394h.788v.394a.394.394,0,0,0,.788,0v-.394h.788v.394a.394.394,0,0,0,.788,0v-.394h.788v.394a.394.394,0,1,0,.788,0v-.394h.788v.394a.394.394,0,0,0,.788,0v-.158l1.261.867A7.362,7.362,0,0,1,43.5,268.66H29.079A7.362,7.362,0,0,1,31.443,259.519Zm-3.073,14.736h-6.3v-.867h6.3Zm-4.413-6.3,1.261-.867,1.261.867a1.735,1.735,0,0,1,.552,2.285H23.4A1.678,1.678,0,0,1,23.956,267.951Zm-.315,3.073h3.152V272.6H25.611v-.394a.394.394,0,0,0-.788,0v.394H23.641Zm-2.364,3.231H16.549v-.867h4.728ZM10.56,270.394l.079-.079.079.079a.8.8,0,0,1,.315.552v.867h-.788v-.867A.6.6,0,0,1,10.56,270.394Zm-.315,2.207h.788l.236,5.437H10.008Zm-.315,6.3h1.34l.236,5.516H9.693Zm-.473,11.821.236-5.6h1.891l.236,5.6Zm7.092-7.88h4.728v7.88h-.788V286.47a1.852,1.852,0,0,0-.946-1.655l-.473-.315a.352.352,0,0,0-.394,0l-.473.315a1.951,1.951,0,0,0-.867,1.655v4.255h-.788Zm1.576,7.88V286.47a1.347,1.347,0,0,1,.552-1.024l.236-.158.236.158a1.347,1.347,0,0,1,.552,1.024v4.255Zm3.94-7.88h6.3v7.88h-.788v-3.231a3.011,3.011,0,0,0-1.419-2.522l-.788-.473a.352.352,0,0,0-.394,0l-.788.473a3.011,3.011,0,0,0-1.418,2.522v3.231h-.788v-7.88Zm1.576,7.88v-3.231a2.217,2.217,0,0,1,1.024-1.891l.552-.394.552.315a2.217,2.217,0,0,1,1.024,1.891v3.231H23.641Zm5.516-17.731v-1.182H43.342v18.913H41.766v-9.141a7.178,7.178,0,0,0-3.31-6.068l-1.97-1.261a.352.352,0,0,0-.394,0l-1.97,1.261a7.28,7.28,0,0,0-3.31,6.068v9.141H29.236V272.994Zm4.728,17.731H31.521v-7.88h9.456v7.88H38.614v-3.231a3.011,3.011,0,0,0-1.418-2.522l-.788-.473a.352.352,0,0,0-.394,0l-.788.473a3.011,3.011,0,0,0-1.418,2.522v3.231Zm7.092-8.668H38.614V280.4A3.011,3.011,0,0,0,37.2,277.88l-.788-.473a.352.352,0,0,0-.394,0l-.788.473a3.011,3.011,0,0,0-1.418,2.522v1.655H31.443v-.473a6.375,6.375,0,0,1,2.995-5.437l1.812-1.1,1.734,1.1a6.375,6.375,0,0,1,2.995,5.437Zm-3.152,0H34.674V280.4A2.217,2.217,0,0,1,35.7,278.51l.552-.394.552.315a2.217,2.217,0,0,1,1.024,1.891Zm-3.152,8.668v-3.231A2.217,2.217,0,0,1,35.7,285.6l.552-.394.552.315a2.217,2.217,0,0,1,1.024,1.891v3.231H34.674Zm9.456-7.88h6.3v7.88h-.788v-3.231a3.011,3.011,0,0,0-1.418-2.522l-.788-.473a.352.352,0,0,0-.394,0l-.788.473a3.011,3.011,0,0,0-1.418,2.522v3.231h-.788v-7.88Zm4.728,7.88H45.706v-3.231a2.217,2.217,0,0,1,1.024-1.891l.552-.315.552.394a2.217,2.217,0,0,1,1.024,1.891Zm3.94,0V286.47a1.347,1.347,0,0,1,.552-1.024l.236-.158.236.158a1.23,1.23,0,0,1,.552,1.024v4.255Zm2.364,0V286.47a1.951,1.951,0,0,0-.867-1.655l-.473-.315a.352.352,0,0,0-.394,0l-.473.315a2.025,2.025,0,0,0-.946,1.655v4.255h-.788v-7.88h4.728v7.88Zm5.516,0,.236-5.6h1.891l.236,5.6Zm8.668-26.793h-.788v-.867a.6.6,0,0,1,.315-.552l.079-.079.079.079a.8.8,0,0,1,.315.552Zm-.788.788h.788l.158,6.3H68.323Zm-.236,7.092h1.261l.315,9.456H68.086Zm-.552,18.913.236-8.668H69.9l.236,8.668Z" transform="translate(0 -252.978)"/>
  </g>
</svg>
