<svg id="Component_91_1" data-name="Component 91 – 1" xmlns="http://www.w3.org/2000/svg" width="88" height="90" viewBox="0 0 88 90">
  <defs>
    <style>
      .cls-1, .cls-5 {
        fill: none;
      }

      .cls-1 {
        stroke: #451d6a;
        opacity: 0.47;
      }

      .cls-2, .cls-3 {
        fill: #9b3189;
      }

      .cls-2 {
        font-size: 10px;
        font-family: Montserrat-Bold, Montserrat;
        font-weight: 700;
      }

      .cls-4 {
        stroke: none;
      }
    </style>
  </defs>
  <g id="Rectangle_403" data-name="Rectangle 403" class="cls-1">
    <rect class="cls-4" width="88" height="90" rx="17"/>
    <rect class="cls-5" x="0.5" y="0.5" width="87" height="89" rx="16.5"/>
  </g>
  <text id="Ahmedabad" class="cls-2" transform="translate(13 79)"><tspan x="0" y="0">Ahmedabad</tspan></text>
  <g id="Group_1015" data-name="Group 1015" transform="translate(9.004 9.39)">
    <path id="Path_1578" data-name="Path 1578" class="cls-3" d="M48.526,841.39l-.386-.193a.431.431,0,0,0-.482,0l-.386.289a1.7,1.7,0,0,0-.772,1.447v1.544a.456.456,0,0,0,.482.482h1.93a.456.456,0,0,0,.482-.482v-1.544A2.081,2.081,0,0,0,48.526,841.39Zm-.193,2.6h-.965v-1.061a.728.728,0,0,1,.386-.675l.1-.1.1.1a.976.976,0,0,1,.386.675Z" transform="translate(-43.509 -794.696)"/>
    <path id="Path_1579" data-name="Path 1579" class="cls-3" d="M68.98,172.408H68.5V156.972h.482a.456.456,0,0,0,.482-.482V153.6a.456.456,0,0,0-.482-.482H68.5v-1.447a.456.456,0,0,0-.482-.482h-2.7a5.327,5.327,0,0,0-3.184-4.052L57.6,144.913v-.675a.456.456,0,0,0-.482-.482.517.517,0,0,0-.482.482v.675l-4.438,2.122a5.327,5.327,0,0,0-3.184,4.052H47.37v-2.894h.482a.456.456,0,0,0,.482-.482v-2.894a.456.456,0,0,0-.482-.482H47.37v-5.789h.482a.456.456,0,0,0,.482-.482v-2.894a.456.456,0,0,0-.482-.482H46.4v-3.859h.482a.456.456,0,0,0,.482-.482v-1.93a.456.456,0,0,0-.482-.482H46.4V126h.482a.456.456,0,0,0,.482-.482v-1.93a.456.456,0,0,0-.482-.482H46.4v-.965a1.859,1.859,0,0,0-1.447-1.833v-.579a.482.482,0,1,0-.965,0v.579a1.859,1.859,0,0,0-1.447,1.833v.965h-.482a.456.456,0,0,0-.482.482v1.93a.456.456,0,0,0,.482.482h.482v1.93h-.482a.456.456,0,0,0-.482.482v1.93a.456.456,0,0,0,.482.482h.482v3.859H41.1a.456.456,0,0,0-.482.482v2.894a.456.456,0,0,0,.482.482h.482v5.789H41a6.066,6.066,0,0,0-2.122-2.315L35.214,139.8v-.868a.482.482,0,1,0-.965,0v.868l-3.666,2.412a5.558,5.558,0,0,0-2.026,2.219h-.579v-5.789h.482a.456.456,0,0,0,.482-.482v-2.894a.456.456,0,0,0-.482-.482H27.013v-3.859H27.5a.456.456,0,0,0,.482-.482v-1.93a.456.456,0,0,0-.482-.482h-.482V126.1H27.5a.456.456,0,0,0,.482-.482v-1.93a.456.456,0,0,0-.482-.482h-.482v-.965a1.859,1.859,0,0,0-1.447-1.833v-.579a.482.482,0,0,0-.965,0v.579a1.859,1.859,0,0,0-1.447,1.833v.965h-.482a.456.456,0,0,0-.482.482v1.93a.456.456,0,0,0,.482.482h.482v1.93h-.482a.456.456,0,0,0-.482.482v1.93a.456.456,0,0,0,.482.482h.482v3.859H21.707a.456.456,0,0,0-.482.482v2.894a.456.456,0,0,0,.482.482h.482v5.789h-.482a.456.456,0,0,0-.482.482v2.894a.456.456,0,0,0,.482.482h.482v2.894H19.971a5.327,5.327,0,0,0-3.184-4.052l-4.534-2.219v-.675a.456.456,0,0,0-.482-.482.517.517,0,0,0-.482.482v.675l-4.534,2.219a5.327,5.327,0,0,0-3.184,4.052H1.447a.456.456,0,0,0-.482.482v1.447H.482A.456.456,0,0,0,0,153.6v2.894a.456.456,0,0,0,.482.482H.965v15.436H.482a.482.482,0,1,0,0,.965h68.5a.482.482,0,0,0,0-.965Zm-.482-16.4H47.273v-1.93H68.5Zm-19.3-3.859h1.93v.965H49.2Zm13.507.965H60.78v-.965h1.93Zm-2.894,0h-1.93v-.965h1.93Zm-2.894,0h-1.93v-.965h1.93Zm-2.894,0H52.1v-.965h1.93Zm13.507-.965v.965h-.965v-.965Zm-1.93.965h-1.93v-.965H65.6ZM52.579,148l4.534-2.219L61.648,148a4.4,4.4,0,0,1,2.6,3.184H49.878A4.222,4.222,0,0,1,52.579,148Zm-4.341,4.148v.965h-.965v-.965Zm-4.824-29.908a.967.967,0,0,1,.965-.965h0a1.037,1.037,0,0,1,.965.965v.965h-1.93Zm-.965,1.93h3.859v.965H42.449Zm.965,1.93h1.93v1.93h-1.93Zm-.965,2.894h3.859v.965H42.449Zm.965,1.93h1.93v3.859h-1.93Zm-1.93,4.824h5.789v1.93H41.485Zm.965,2.894h3.859v5.789H42.449Zm-.965,6.753h5.789v1.93H41.485V145.4Zm-13.314,2.894h1.737v.965h-1.93v-.965Zm13.314,3.859H27.978v-1.93H41.485Zm-4.824-2.894v-.965h1.93v.965Zm-.965,0h-1.93v-.965H35.7Zm-2.894,0h-1.93v-.965H32.8Zm-4.824,16.208a9.135,9.135,0,0,1,4.245-7.718l2.508-1.64,2.508,1.64a8.9,8.9,0,0,1,4.245,7.718v6.946H27.978Zm9.744-8.586-2.8-1.737a.431.431,0,0,0-.482,0l-2.8,1.833a9.751,9.751,0,0,0-3.666,4.245v-8.1H41.485v8.007A9.384,9.384,0,0,0,37.722,156.876Zm3.763-7.622h-1.93v-.965h1.93Zm-10.323-6.271,3.57-2.219,3.57,2.219a4.538,4.538,0,0,1,2.219,3.859v.482H28.943v-.482A4.448,4.448,0,0,1,31.162,142.983Zm-7.043-20.742a.967.967,0,0,1,.965-.965h0a1.037,1.037,0,0,1,.965.965v.965h-1.93Zm-.965,1.93h3.859v.965H23.154Zm.965,1.93h1.93v1.93h-1.93Zm-.965,2.894h3.859v.965H23.154Zm.965,1.93h1.93v3.859h-1.93Zm-1.93,4.824h5.789v1.93H22.189Zm.965,2.894h3.859v5.789H23.154Zm-.965,6.753h5.789v1.93H22.189Zm0,6.753v.965h-.965v-.965Zm-1.93.965H18.33v-.965h1.93Zm-16.4-.965h1.93v.965H3.859Zm2.894,0h1.93v.965H6.753Zm2.894,0h1.93v.965H9.648Zm2.894,0h1.93v.965h-1.93Zm2.894,0h1.93v.965h-1.93ZM7.236,148l4.534-2.219L16.3,148a4.55,4.55,0,0,1,2.7,3.184H4.534A4.379,4.379,0,0,1,7.236,148ZM1.93,152.148h.965v.965H1.93Zm-.965,1.93H22.189v1.93H.965Zm.965,2.894h20.26v15.436H17.366v-6.367a6.673,6.673,0,0,0-3.184-5.789l-1.833-1.158a.431.431,0,0,0-.482,0l-1.833,1.158a6.791,6.791,0,0,0-3.184,5.789v6.367H2.026V156.972ZM16.4,172.408H7.718v-6.271a6.179,6.179,0,0,1,2.7-5.017l1.64-1.061,1.544.965a5.909,5.909,0,0,1,2.8,5.017Zm6.753-15.919v-8.2h3.859v24.119H23.154Zm19.3,8.972V148.289h3.859v24.119H42.449Zm19.3,6.946H53.062v-6.271a6.179,6.179,0,0,1,2.7-5.017l1.64-1.061,1.544.965a5.909,5.909,0,0,1,2.8,5.017Zm.965,0v-6.367a6.673,6.673,0,0,0-3.184-5.789l-1.833-1.158a.431.431,0,0,0-.482,0l-1.833,1.158a6.791,6.791,0,0,0-3.184,5.789v6.367H47.37V156.972H67.63v15.436Z" transform="translate(0 -119.25)"/>
    <path id="Path_1580" data-name="Path 1580" class="cls-3" d="M98.814,736.538h1.93a.456.456,0,0,0,.482-.482v-1.544a1.7,1.7,0,0,0-.772-1.447l-.386-.193a.431.431,0,0,0-.482,0l-.386.289a1.7,1.7,0,0,0-.772,1.447v1.544C98.331,736.345,98.524,736.538,98.814,736.538Zm.482-2.026a.728.728,0,0,1,.386-.675l.1-.1.1.1a.976.976,0,0,1,.386.675v1.061H99.3Zm-12.349-6.367A1.447,1.447,0,1,0,85.5,726.7,1.484,1.484,0,0,0,86.947,728.144Zm0-1.93a.482.482,0,1,1-.482.482A.456.456,0,0,1,86.947,726.215Zm9.648,1.93a1.447,1.447,0,1,0-1.447-1.447A1.484,1.484,0,0,0,96.595,728.144Zm0-1.93a.482.482,0,1,1-.482.482A.456.456,0,0,1,96.595,726.215Zm33.767,6.753-.386-.193a.431.431,0,0,0-.482,0l-.386.289a1.7,1.7,0,0,0-.772,1.447v1.544a.456.456,0,0,0,.482.482h1.93a.456.456,0,0,0,.482-.482v-1.544A2.081,2.081,0,0,0,130.361,732.968Zm-.193,2.6H129.2v-1.061a.728.728,0,0,1,.386-.675l.1-.1.1.1a.976.976,0,0,1,.386.675Zm15.629-2.6-.386-.193a.431.431,0,0,0-.482,0l-.386.289a1.7,1.7,0,0,0-.772,1.447v1.544a.456.456,0,0,0,.482.482h1.93a.456.456,0,0,0,.482-.482v-1.544A2.081,2.081,0,0,0,145.8,732.968Zm-.193,2.6h-.965v-1.061a.728.728,0,0,1,.386-.675l.1-.1.1.1a.976.976,0,0,1,.386.675ZM132.291,725.25a1.447,1.447,0,1,0,1.447,1.447A1.484,1.484,0,0,0,132.291,725.25Zm0,1.93a.482.482,0,1,1,.482-.482A.456.456,0,0,1,132.291,727.18Zm9.648-1.93a1.447,1.447,0,1,0,1.447,1.447A1.484,1.484,0,0,0,141.938,725.25Zm0,1.93a.482.482,0,1,1,.482-.482A.456.456,0,0,1,141.938,727.18Z" transform="translate(-80.001 -686.274)"/>
  </g>
</svg>
