<svg id="Component_94_1" data-name="Component 94 – 1" xmlns="http://www.w3.org/2000/svg" width="88" height="90" viewBox="0 0 88 90">
  <defs>
    <style>
      .cls-1, .cls-5 {
        fill: none;
      }

      .cls-1 {
        stroke: #451d6a;
        opacity: 0.47;
      }

      .cls-2, .cls-3 {
        fill: #9b3189;
      }

      .cls-2 {
        font-size: 10px;
        font-family: Montserrat-Bold, Montserrat;
        font-weight: 700;
      }

      .cls-4 {
        stroke: none;
      }
    </style>
  </defs>
  <g id="Rectangle_402" data-name="Rectangle 402" class="cls-1">
    <rect class="cls-4" width="88" height="90" rx="17"/>
    <rect class="cls-5" x="0.5" y="0.5" width="87" height="89" rx="16.5"/>
  </g>
  <text id="Banglore" class="cls-2" transform="translate(21 79)"><tspan x="0" y="0">Banglore</tspan></text>
  <g id="Group_1013" data-name="Group 1013" transform="translate(15.965 12)">
    <path id="Path_1572" data-name="Path 1572" class="cls-3" d="M113.975,682.519a1.793,1.793,0,1,0-1.793-1.793A1.8,1.8,0,0,0,113.975,682.519Zm0-2.69a.9.9,0,1,1-.9.9A.847.847,0,0,1,113.975,679.829Zm-43.04,2.69a1.793,1.793,0,1,0-1.793-1.793A1.8,1.8,0,0,0,70.935,682.519Zm0-2.69a.9.9,0,1,1-.9.9A.847.847,0,0,1,70.935,679.829Zm1.255,12.553H69.5a.424.424,0,0,0-.448.448v1.793a.424.424,0,0,0,.448.448h2.69a.424.424,0,0,0,.448-.448V692.83A.48.48,0,0,0,72.19,692.382Zm-.448,1.793H69.948v-.9h1.793Zm1.345-9.863H68.6a.448.448,0,1,0,0,.9h.448v4.932a.424.424,0,0,0,.448.448h2.69a.424.424,0,0,0,.448-.448v-4.932h.448a.448.448,0,1,0,0-.9Zm-1.345,5.38H69.948v-4.483h1.793Zm43.488,2.69h-2.69a.424.424,0,0,0-.448.448v1.793a.424.424,0,0,0,.448.448h2.69a.424.424,0,0,0,.448-.448V692.83A.48.48,0,0,0,115.23,692.382Zm-.448,1.793h-1.793v-.9h1.793Zm1.345-9.863h-4.483a.448.448,0,1,0,0,.9h.448v4.932a.424.424,0,0,0,.448.448h2.69a.424.424,0,0,0,.448-.448v-4.932h.448a.448.448,0,1,0,0-.9Zm-1.345,5.38h-1.793v-4.483h1.793Z" transform="translate(-64.658 -645.755)"/>
    <path id="Path_1573" data-name="Path 1573" class="cls-3" d="M54.966,83.44H53.71V56.092a.424.424,0,0,0-.448-.448h-.448V52.774l.09-.09a3.1,3.1,0,0,0,.628-2.331,3.021,3.021,0,0,0-1.166-2.062L48.42,45.152v-.269a1.031,1.031,0,0,0,.538-.807.986.986,0,0,0-1.973,0,.784.784,0,0,0,.538.807v.269l-3.945,3.138a3.226,3.226,0,0,0-1.166,2.062,2.889,2.889,0,0,0,.628,2.242v2.242h-.448a.424.424,0,0,0-.448.448v.448H36.584L34.97,53.312V50.084h0l1.793-2.69a.4.4,0,0,0,0-.448.48.48,0,0,0-.359-.269H34.97V45.6h0l.09-.09a4.538,4.538,0,0,0,.807-3.676,4.4,4.4,0,0,0-2.242-2.959l-3.049-1.614V35.468a.424.424,0,0,0-.448-.448H29.68v-.9a1.793,1.793,0,1,0-3.587,0v.9h-.448a.424.424,0,0,0-.448.448v1.883l-3.138,1.524A4.948,4.948,0,0,0,19.727,42.1a4.211,4.211,0,0,0,.807,3.228v1.345H19.278c-.179,0-.359.09-.359.269a.4.4,0,0,0,0,.448l1.614,2.421v3.407l-1.524,2.331H13.36v-.448a.424.424,0,0,0-.448-.448h-.448V52.684l.09-.09a3.1,3.1,0,0,0,.628-2.331A3.021,3.021,0,0,0,12.015,48.2L8.07,45.063v-.269a1.031,1.031,0,0,0,.538-.807.986.986,0,1,0-1.973,0,.784.784,0,0,0,.538.807v.269L3.228,48.291a3.226,3.226,0,0,0-1.166,2.062,2.89,2.89,0,0,0,.628,2.242v3.138H2.242a.424.424,0,0,0-.448.448V83.53H.448a.448.448,0,0,0,0,.9H54.966a.424.424,0,0,0,.448-.448A.5.5,0,0,0,54.966,83.44Zm-11.746-33a2.32,2.32,0,0,1,.807-1.524l3.856-3.049,3.856,3.049a2,2,0,0,1,.807,1.524,2.038,2.038,0,0,1-.448,1.614H43.578A3.07,3.07,0,0,1,43.219,50.443Zm.628,2.511h8.07v2.69H45.64V55.2a.424.424,0,0,0-.448-.448H43.847Zm-1.793,18.83H39.9V68.2h2.152Zm-2.152.9h2.152v2.69H39.9Zm2.152-5.38H39.9V64.61h2.152Zm.448-3.587H8.967V61.92h37.66v1.793H42.5ZM34.073,68.2h2.152v3.587H34.073Zm2.152-.9H34.073V64.61h2.152Zm-2.152,5.38h2.152v2.69H34.073ZM25.017,68.2H30.4v3.587h-5.38Zm5.38-.9h-5.38V64.61H30.4Zm-5.38,5.38H30.4v2.69h-5.38ZM19.189,68.2h2.062v3.587H19.189Zm2.152-.9H19.278V64.61h2.062Zm-2.152,5.38h2.062v2.69H19.189ZM15.512,67.3H13.45V64.61h2.062Zm-2.062.9h2.062v3.587H13.45Zm0,4.483h2.062v2.69H13.45ZM46.985,61.023H7.8L9.594,59.23H46l1.793,1.793ZM10.67,55.643h1.793v2.69H10.67Zm10.76-5.38h1.883l-.09,2.69H21.43ZM26,53.043H24.12l.09-2.69h7.263l-.09,2.69H29.411l-1.524-.9a.407.407,0,0,0-.448,0Zm5.29,2.6V54.3c0-.179-.09-.269-.269-.359l-.09-.09h.628l1.166,1.793H31.294Zm1.076-5.38h1.614v2.69h-1.7Zm-8.339-.9-1.166-1.793h9.953l-1.166,1.793Zm.448,4.483-.09.09a.481.481,0,0,0-.269.359v1.345H22.775l1.166-1.793Zm.538.717,2.69-1.524,2.69,1.524v3.766h-5.38ZM42.95,55.643h1.793v2.69H42.95Zm-.9,2.69H31.294V56.54h10.76Zm-8.16-2.69L32.728,53.85h1.524l1.255,1.793Zm.359-6.277H32.728l1.166-1.793h1.614ZM26.81,34.123a.964.964,0,0,1,.9-.9.9.9,0,0,1,.9.9v.9H26.81Zm-.9,1.793H29.5v.9H25.914Zm-5.29,6.366a3.727,3.727,0,0,1,1.883-2.6l3.676-1.973h3.138L33,39.683a3.582,3.582,0,0,1,1.793,2.331,3.711,3.711,0,0,1-.628,2.869H29.411V43.9a2.108,2.108,0,0,0-1.076-1.883l-.538-.359a.4.4,0,0,0-.448,0l-.538.359a2.22,2.22,0,0,0-.986,1.883v.986H21.161A3.832,3.832,0,0,1,20.623,42.283Zm7.98,2.6H26.81V43.9a1.533,1.533,0,0,1,.628-1.166l.269-.179.269.179A1.4,1.4,0,0,1,28.6,43.9Zm-7.173.9H33.984v.9H21.43Zm-.448,1.793H21.7l1.166,1.793H21.251l-1.166-1.793Zm.269,6.277h1.614L21.7,55.643H20.085Zm-7.8,2.69H24.12v1.793H13.45Zm-10.581-6.1a2.321,2.321,0,0,1,.807-1.524L7.532,45.87l3.856,3.049a2,2,0,0,1,.807,1.524,2.038,2.038,0,0,1-.448,1.614H3.228A3.07,3.07,0,0,1,2.869,50.443ZM3.5,52.953h8.07v1.793H10.222a.424.424,0,0,0-.448.448v.448H3.5ZM9.325,83.44H2.6V56.54H9.774v1.793H9.415c-.09,0-.269.09-.359.09l-2.69,2.69c-.09.09-.179.359-.09.448a.763.763,0,0,0,.448.269H7.98v2.242a.424.424,0,0,0,.448.448H9.774V83.35H9.325Zm1.345,0V64.61h1.883V83.44Zm2.78,0V76.267h2.062V83.44Zm2.959,0V75.818h0V72.232h0V67.748h0V64.61h1.883V83.44Zm2.78,0V76.267h2.062V83.44Zm3.049,0V72.232h0V64.61H24.12V83.44Zm2.78,0V76.267H30.4V83.44Zm6.277,0V64.61h1.883V83.44Zm2.78,0V76.267h2.152V83.44Zm3.049,0V64.61h1.883V83.44Zm2.78,0V76.267h2.152V83.44Zm3.945,0h-.9V64.61h1.883V83.44Zm1.883,0V64.61h1.255a.424.424,0,0,0,.448-.448V61.92h1.435a.493.493,0,0,0,.448-.269.394.394,0,0,0-.09-.448l-2.69-2.69c-.09-.09-.179-.09-.359-.09H45.64V56.63h7.173v26.9H45.73Z" transform="translate(0 -32.33)"/>
  </g>
</svg>
