<svg id="Component_92_1" data-name="Component 92 – 1" xmlns="http://www.w3.org/2000/svg" width="88" height="90" viewBox="0 0 88 90">
  <defs>
    <style>
      .cls-1, .cls-5 {
        fill: none;
      }

      .cls-1 {
        stroke: #451d6a;
        opacity: 0.47;
      }

      .cls-2, .cls-3 {
        fill: #9b3189;
      }

      .cls-2 {
        font-size: 10px;
        font-family: Montserrat-Bold, Montserrat;
        font-weight: 700;
      }

      .cls-4 {
        stroke: none;
      }
    </style>
  </defs>
  <g id="Rectangle_407" data-name="Rectangle 407" class="cls-1">
    <rect class="cls-4" width="88" height="90" rx="17"/>
    <rect class="cls-5" x="0.5" y="0.5" width="87" height="89" rx="16.5"/>
  </g>
  <text id="Chennai" class="cls-2" transform="translate(23 79)"><tspan x="0" y="0">Chennai</tspan></text>
  <path id="path592" class="cls-3" d="M31.149,61.237a.321.321,0,0,0-.321.321v3.551H29.55l-.007-.966a.322.322,0,0,0-.321-.319h0a.321.321,0,0,0-.319.324l.01,1.284v1.584H28.58a.321.321,0,1,0,0,.642h.2l-1.217,3.853h-.593v-.963a.321.321,0,1,0-.642,0v4.817a.313.313,0,0,0,.007.035l-1.277,4.043c0,.011,0,.022,0,.034a.293.293,0,0,0-.013.063v18.3H10.918v-.623h.339a.321.321,0,0,0,0-.642h-.419L9.124,91.441h.2a.321.321,0,1,0,0-.642H8.358v-2.89a.321.321,0,0,0-.642,0v.963H4.5v-.963a.321.321,0,0,0-.642,0V90.8H2.9a.321.321,0,1,0,0,.642h.187L1.375,96.579H.97a.321.321,0,0,0,0,.642h.315v18.606H.321a.321.321,0,0,0,0,.642H61.976a.321.321,0,0,0,0-.642h-.963V97.221h.321a.321.321,0,1,0,0-.642h-.405l-1.713-5.138h.2a.321.321,0,1,0,0-.642h-.965v-2.89a.321.321,0,0,0-.642,0v.963H54.6v-.963a.321.321,0,0,0-.642,0V90.8h-.96a.321.321,0,0,0,0,.642h.187l-1.71,5.119h-.411a.321.321,0,1,0,0,.642h.321v.642H37.251v-18.3a.293.293,0,0,0-.013-.063.192.192,0,0,0,0-.034L35.959,75.4a.325.325,0,0,0,.006-.035V70.549a.321.321,0,1,0-.642,0v.963h-.592l-1.217-3.853h.2a.321.321,0,1,0,0-.642h-.311V65.43h0l-.01-1.284a.322.322,0,0,0-.321-.319h0a.321.321,0,0,0-.319.324l.007.961H31.47V61.558a.321.321,0,0,0-.321-.321Zm-1.6,4.514h.632v1.266h-.632Zm1.274,0h.642v1.266h-.642Zm1.284,0h.652v1.266h-.652Zm-2.661,1.927h3.4L36.491,79.22H34.682V77.614a.321.321,0,0,0-.321-.321H33.247l-1.8-4.926a.323.323,0,0,0-.3-.212h0a.321.321,0,0,0-.3.206l-1.9,4.932h-1.01a.321.321,0,0,0-.321.321V79.22H25.809Zm-2.477,4.477h.391l-.391,1.236V72.155Zm7.959,0h.39v1.236Zm-3.792,1.234,1.579,4.334s0,0,0,0a.351.351,0,0,0,.134.157.311.311,0,0,0,.163.05h1.017V79.54a.321.321,0,0,0,.321.321h2.248v.059a.934.934,0,0,0-.963.192.959.959,0,0,0-1.606.712v.642a.321.321,0,1,0,.642,0v-.642a.321.321,0,1,1,.642,0v.642a.321.321,0,1,0,.642,0v-.642a.321.321,0,1,1,.642,0V85H25.69V80.824a.321.321,0,1,1,.642,0v.642a.321.321,0,1,0,.642,0v-.642a.321.321,0,1,1,.642,0v.642a.321.321,0,1,0,.642,0v-.642a.964.964,0,0,0-.951-.962h.63a.321.321,0,0,0,.321-.321V77.935h.916a.282.282,0,0,0,.046-.01.316.316,0,0,0,.246-.192v0l1.673-4.339ZM25.69,79.862H26a.957.957,0,0,0-.315.058Zm.334,0h1.259a.957.957,0,0,0-.63.25A.957.957,0,0,0,26.023,79.862Zm5.125,0A2.248,2.248,0,1,0,33.4,82.11,2.25,2.25,0,0,0,31.149,79.862Zm0,.642a1.606,1.606,0,1,1-1.606,1.606A1.607,1.607,0,0,1,31.149,80.5Zm0,.642a.321.321,0,0,0-.321.321v.642a.322.322,0,0,0,.321.321l.018,0,.016,0h.929a.321.321,0,1,0,0-.642H31.47v-.321A.321.321,0,0,0,31.149,81.146Zm-5.459,4.5H28.9v.963a.323.323,0,0,0,.178.287l1.106.553v1.086a.321.321,0,0,0,.321.321h.321v1.284a.321.321,0,0,0,0,.642h.642a.321.321,0,0,0,0-.642V88.853h.321a.321.321,0,0,0,.321-.321V87.446l1.108-.553a.322.322,0,0,0,.177-.287v-.963h3.211v7.707H34.039V92.064a1.284,1.284,0,1,0-2.569,0v1.284h-.642V92.064a1.284,1.284,0,1,0-2.569,0v1.284H25.69Zm3.853,0h3.211v.764l-1.106.553a.323.323,0,0,0-.178.287v.963h-.642v-.963a.322.322,0,0,0-.177-.287l-1.108-.553ZM4.506,89.514h.632V90.78H4.506Zm1.274,0h.642V90.78H5.78Zm1.284,0h.652V90.78H7.065Zm47.531,0h.633V90.78H54.6Zm1.276,0h.642V90.78h-.642Zm1.283,0h.652V90.78h-.652ZM29.543,91.422a.642.642,0,0,1,.642.642v4.5H28.9v-4.5A.642.642,0,0,1,29.543,91.422Zm3.211,0a.642.642,0,0,1,.642.642v4.5H32.112v-4.5A.642.642,0,0,1,32.754,91.422Zm-28.986.019H8.449l1.712,5.138H8.172L6.34,94.729a.32.32,0,0,0-.227-.1h0a.319.319,0,0,0-.227.094L4.042,96.579H2.052l1.716-5.138Zm50.09,0h4.681l1.712,5.138H58.262l-1.833-1.85a.32.32,0,0,0-.227-.1h0a.319.319,0,0,0-.227.094l-1.841,1.851H53.08a.331.331,0,0,0-.094-.019h-.837l1.708-5.119ZM25.69,93.991h2.569V96.56h-.321a.321.321,0,0,0-.321.321v1.284a.321.321,0,0,0,.321.321H34.36a.321.321,0,0,0,.321-.321V96.881a.321.321,0,0,0-.321-.321h-.321V93.991h2.569v12.2H34.039v-4.817a1.6,1.6,0,0,0-2.89-.953,1.6,1.6,0,0,0-2.89.953v4.817H25.69v-12.2Zm5.138,0h.642v.642h-.642Zm0,1.284h.642V96.56h-.642ZM6.11,95.411l1.7,1.715a.322.322,0,0,0,.228.1h2.238V97.9a.934.934,0,0,0-.963.192.959.959,0,0,0-1.606.712v.642a.321.321,0,1,0,.642,0v-.642a.321.321,0,0,1,.642,0v.642a.321.321,0,1,0,.642,0v-.642a.321.321,0,0,1,.642,0v17.019H8.959v-2.254a2.89,2.89,0,0,0-5.78,0v2.254H1.927V98.808a.321.321,0,0,1,.642,0v.642a.321.321,0,1,0,.642,0v-.642a.321.321,0,0,1,.642,0v.642a.321.321,0,1,0,.642,0v-.642A.959.959,0,0,0,2.89,98.1a.934.934,0,0,0-.963-.192v-.682H4.175a.322.322,0,0,0,.228-.094Zm50.09,0,1.7,1.715a.322.322,0,0,0,.228.1H60.37V97.9a.934.934,0,0,0-.963.192.959.959,0,0,0-1.606.712v.642a.321.321,0,1,0,.642,0v-.642a.321.321,0,0,1,.642,0v.642a.321.321,0,1,0,.642,0v-.642a.321.321,0,0,1,.642,0v17.019H59.053v-2.254a2.89,2.89,0,0,0-5.78,0v2.254H52.022V98.808a.321.321,0,1,1,.642,0v.642a.321.321,0,1,0,.642,0v-.642a.321.321,0,1,1,.642,0v.642a.321.321,0,1,0,.642,0v-.642a.959.959,0,0,0-1.606-.712.934.934,0,0,0-.963-.192v-.682h2.243a.319.319,0,0,0,.227-.094ZM6.1,96.56a.965.965,0,0,0-.963.963V99.45a.321.321,0,0,0,.321.321H6.743a.321.321,0,0,0,.321-.321V97.523A.965.965,0,0,0,6.1,96.56Zm50.095,0a.965.965,0,0,0-.963.963V99.45a.321.321,0,0,0,.321.321h1.284a.321.321,0,0,0,.321-.321V97.523A.965.965,0,0,0,56.2,96.56ZM6.1,97.2a.322.322,0,0,1,.321.321v1.606H5.78V97.523A.322.322,0,0,1,6.1,97.2Zm22.157,0H28.9v.642h-.642Zm1.284,0h.642v.642h-.642Zm1.284,0h.642v.642h-.642Zm1.284,0h.642v.642h-.642Zm1.284,0h.642v.642H33.4Zm22.8,0a.322.322,0,0,1,.321.321v1.606h-.642V97.523A.322.322,0,0,1,56.2,97.2ZM10.918,98.487H25.047v2.569H10.918V98.487Zm26.332,0H51.379v2.569H37.25Zm-7.386,1.927a.965.965,0,0,1,.963.963v4.817H28.9v-4.817A.965.965,0,0,1,29.864,100.414Zm2.569,0a.965.965,0,0,1,.963.963v4.817H31.47v-4.817A.965.965,0,0,1,32.433,100.414ZM6.1,101.692a2.883,2.883,0,0,0-2.766,2.1.314.314,0,0,0-.038.122,2.859,2.859,0,0,0-.085.667v4.5a.32.32,0,0,0,.32.321H8.67a.321.321,0,0,0,.321-.321v-4.5a2.889,2.889,0,0,0-.087-.675.306.306,0,0,0-.035-.113,2.885,2.885,0,0,0-2.768-2.1Zm50.1,0a2.884,2.884,0,0,0-2.767,2.1.312.312,0,0,0-.036.122,2.856,2.856,0,0,0-.087.667v4.5a.321.321,0,0,0,.321.321h5.138a.321.321,0,0,0,.321-.321v-4.5a2.875,2.875,0,0,0-.087-.674.335.335,0,0,0-.036-.114A2.883,2.883,0,0,0,56.2,101.692Zm-45.279.006H25.047v5.138h-.642v-2.73a1.122,1.122,0,0,0-1.927-.784,1.122,1.122,0,0,0-1.927.784v2.73h-.642v-2.73a1.122,1.122,0,0,0-1.927-.784,1.122,1.122,0,0,0-1.927.784v2.73h-.642v-2.73a1.122,1.122,0,0,0-1.927-.784,1.122,1.122,0,0,0-1.927.784v2.73h-.642Zm26.332,0H51.379v5.138h-.642v-2.73a1.122,1.122,0,0,0-1.927-.784,1.122,1.122,0,0,0-1.927.784v2.73h-.642v-2.73a1.122,1.122,0,0,0-1.927-.784,1.122,1.122,0,0,0-1.927.784v2.73h-.642v-2.73a1.122,1.122,0,0,0-1.927-.784,1.122,1.122,0,0,0-1.927.784v2.73H37.25ZM6.1,102.334a2.247,2.247,0,0,1,2.027,1.291H4.075A2.244,2.244,0,0,1,6.1,102.334Zm50.095,0a2.246,2.246,0,0,1,2.027,1.291H54.17A2.244,2.244,0,0,1,56.2,102.334Zm-43.512,1.291a.483.483,0,0,1,.482.482v2.73H12.2v-2.73A.483.483,0,0,1,12.684,103.625Zm1.606,0a.483.483,0,0,1,.482.482v2.73h-.963v-2.73A.483.483,0,0,1,14.29,103.625Zm2.89,0a.483.483,0,0,1,.482.482v2.73H16.7v-2.73A.483.483,0,0,1,17.18,103.625Zm1.606,0a.483.483,0,0,1,.482.482v2.73H18.3v-2.73A.483.483,0,0,1,18.785,103.625Zm2.89,0a.483.483,0,0,1,.482.482v2.73h-.963v-2.73A.483.483,0,0,1,21.675,103.625Zm1.606,0a.483.483,0,0,1,.482.482v2.73H22.8v-2.73A.483.483,0,0,1,23.281,103.625Zm15.735,0a.483.483,0,0,1,.482.482v2.73h-.963v-2.73A.483.483,0,0,1,39.016,103.625Zm1.606,0a.483.483,0,0,1,.482.482v2.73H40.14v-2.73A.483.483,0,0,1,40.622,103.625Zm2.89,0a.483.483,0,0,1,.482.482v2.73H43.03v-2.73A.483.483,0,0,1,43.512,103.625Zm1.606,0a.483.483,0,0,1,.482.482v2.73h-.963v-2.73A.483.483,0,0,1,45.117,103.625Zm2.89,0a.483.483,0,0,1,.482.482v2.73h-.963v-2.73A.483.483,0,0,1,48.007,103.625Zm1.606,0a.483.483,0,0,1,.482.482v2.73h-.963v-2.73A.483.483,0,0,1,49.613,103.625Zm-45.727.642H4.5v.642H3.853v-.327a2.2,2.2,0,0,1,.033-.315Zm1.252,0H5.78v.642H5.138Zm1.284,0h.642v.642H6.422Zm1.284,0h.611a2.112,2.112,0,0,1,.031.315v.327H7.707v-.642Zm46.274,0h.61v.642h-.642v-.327A2.207,2.207,0,0,1,53.981,104.267Zm1.252,0h.642v.642h-.642Zm1.284,0h.642v.642h-.642Zm1.284,0h.611a2.216,2.216,0,0,1,.031.315v.327H57.8ZM3.853,105.551H4.5v3.2H3.853Zm1.284,0H5.78v3.2H5.138Zm1.284,0h.642v3.2H6.422Zm1.284,0h.642v3.2H7.707Zm46.241,0h.642v3.2h-.642Zm1.284,0h.642v3.2h-.642Zm1.284,0h.642v3.2h-.642Zm1.284,0h.642v3.2H57.8Zm-32.111,1.285H36.608v8.991H34.648v-4.181a3.532,3.532,0,0,0-7.065,0v4.181H25.691Zm-14.773.642H25.047v8.349h-.642v-2.573a1.927,1.927,0,0,0-3.853,0v2.573h-.642v-2.573a1.927,1.927,0,1,0-3.853,0v2.573h-.642v-2.573a1.927,1.927,0,1,0-3.853,0v2.573h-.642Zm26.332,0H51.379v8.349h-.642v-2.573a1.927,1.927,0,1,0-3.853,0v2.573h-.642v-2.573a1.927,1.927,0,1,0-3.853,0v2.573h-.642v-2.573a1.927,1.927,0,1,0-3.853,0v2.573H37.25Zm-25.368.636a.321.321,0,0,0-.321.321v1.606a.321.321,0,0,0,.321.321h3.211a.321.321,0,0,0,.321-.321v-1.606a.321.321,0,0,0-.321-.321H11.881Zm4.5,0a.321.321,0,0,0-.321.321v1.606a.321.321,0,0,0,.321.321h3.211a.321.321,0,0,0,.321-.321v-1.606a.321.321,0,0,0-.321-.321H16.377Zm4.5,0a.321.321,0,0,0-.321.321v1.606a.321.321,0,0,0,.321.321h3.211a.321.321,0,0,0,.321-.321v-1.606a.321.321,0,0,0-.321-.321H20.873Zm17.34,0a.321.321,0,0,0-.321.321v1.606a.321.321,0,0,0,.321.321h3.211a.321.321,0,0,0,.321-.321v-1.606a.321.321,0,0,0-.321-.321H38.213Zm4.5,0a.321.321,0,0,0-.321.321v1.606a.321.321,0,0,0,.321.321H45.92a.321.321,0,0,0,.321-.321v-1.606a.321.321,0,0,0-.321-.321H42.709Zm4.5,0a.321.321,0,0,0-.321.321v1.606a.321.321,0,0,0,.321.321h3.211a.321.321,0,0,0,.321-.321v-1.606a.321.321,0,0,0-.321-.321H47.2Zm-35,.642h.963v.963H12.2Zm1.606,0h.963v.963h-.963Zm2.89,0h.963v.963H16.7Zm1.606,0h.963v.963H18.3Zm2.89,0h.963v.963h-.963Zm1.606,0h.963v.963H22.8Zm8.316,0a2.894,2.894,0,0,1,2.89,2.89v4.175h-5.78v-4.175A2.894,2.894,0,0,1,31.116,108.756Zm7.418,0H39.5v.963h-.963Zm1.606,0H41.1v.963H40.14Zm2.89,0h.963v.963H43.03Zm1.606,0H45.6v.963h-.963Zm2.89,0h.963v.963h-.963Zm1.606,0h.963v.963h-.963ZM6.069,111.325a2.25,2.25,0,0,1,2.248,2.248v2.248h-4.5v-2.248A2.25,2.25,0,0,1,6.069,111.325Zm50.094,0a2.25,2.25,0,0,1,2.248,2.248v2.248h-4.5v-2.248A2.25,2.25,0,0,1,56.163,111.325Zm-42.676.645a1.286,1.286,0,0,1,1.284,1.284v2.573H12.2v-2.573A1.286,1.286,0,0,1,13.487,111.97Zm4.5,0a1.286,1.286,0,0,1,1.284,1.284v2.573H16.7v-2.573A1.286,1.286,0,0,1,17.983,111.97Zm4.5,0a1.286,1.286,0,0,1,1.285,1.284v2.573H21.194v-2.573A1.286,1.286,0,0,1,22.478,111.97Zm17.34,0a1.286,1.286,0,0,1,1.284,1.284v2.573H38.534v-2.573A1.286,1.286,0,0,1,39.819,111.97Zm4.5,0a1.286,1.286,0,0,1,1.284,1.284v2.573H43.03v-2.573A1.286,1.286,0,0,1,44.314,111.97Zm4.5,0a1.286,1.286,0,0,1,1.284,1.284v2.573H47.526v-2.573A1.286,1.286,0,0,1,48.81,111.97Z" transform="translate(13 -52.552)"/>
</svg>
