<svg id="Component_89_1" data-name="Component 89 – 1" xmlns="http://www.w3.org/2000/svg" width="88" height="90" viewBox="0 0 88 90">
  <defs>
    <style>
      .cls-1, .cls-5 {
        fill: none;
      }

      .cls-1 {
        stroke: #451d6a;
        opacity: 0.47;
      }

      .cls-2, .cls-3 {
        fill: #9b3189;
      }

      .cls-3 {
        font-size: 10px;
        font-family: Montserrat-Bold, Montserrat;
        font-weight: 700;
      }

      .cls-4 {
        stroke: none;
      }
    </style>
  </defs>
  <g id="Rectangle_400" data-name="Rectangle 400" class="cls-1">
    <rect class="cls-4" width="88" height="90" rx="17"/>
    <rect class="cls-5" x="0.5" y="0.5" width="87" height="89" rx="16.5"/>
  </g>
  <g id="g5" transform="translate(23 12)">
    <path id="path145" class="cls-2" d="M118.958,0a.4.4,0,0,0-.4.4V1.651a2.807,2.807,0,0,0-2.374,2.374h-2.053a.4.4,0,0,0-.4.4V5.634H109.3a.4.4,0,0,0-.4.4v6.842h-2.012a.4.4,0,0,0-.4.4v2.012h-1.207a.4.4,0,0,0-.4.4v2.817H102.86a.4.4,0,0,0-.36.583l2.372,4.744V32.2h-.4a.4.4,0,1,0,0,.8h.4V37.83h-1.155a.4.4,0,0,0-.335.626l1.49,2.235v7.6h-.4a.4.4,0,1,0,0,.8h.4v1.61h-3.22a.4.4,0,0,0,0,.8H142.7a.4.4,0,0,0,0-.8h-3.22V49.1h.4a.4.4,0,1,0,0-.8h-.4V40.77l1.542-2.314a.4.4,0,0,0-.335-.626h-1.207V33h.4a.4.4,0,1,0,0-.8h-.4V23.839l2.372-4.744a.4.4,0,0,0-.36-.582h-2.012V15.7a.4.4,0,0,0-.4-.4h-1.207V13.281a.4.4,0,0,0-.4-.4h-2.012V6.037a.4.4,0,0,0-.4-.4h-4.427V4.427a.4.4,0,0,0-.4-.4h-2.053c-.008-.054,0-.112-.016-.165A2.816,2.816,0,0,0,125.8,1.651V.4a.4.4,0,0,0-.4-.4Zm.4.8h5.634v.8H119.36Zm-.4,1.61H125.4a2.017,2.017,0,0,1,1.973,1.61H116.986A2.015,2.015,0,0,1,118.958,2.415Zm-4.427,2.415h15.293v.8H114.531ZM109.7,6.439h24.952v6.439H109.7Zm7.646,1.61a.4.4,0,0,0-.4.4v2.415a.4.4,0,0,0,.4.4h1.207v.4a.4.4,0,0,0,.4.4H125.4a.4.4,0,0,0,.4-.4v-.4h1.207a.4.4,0,0,0,.4-.4V8.451a.4.4,0,0,0-.4-.4Zm-3.22.017a2.012,2.012,0,1,0,2.012,2.012A2.014,2.014,0,0,0,114.128,8.066Zm16.1,0a2.012,2.012,0,1,0,2.012,2.012A2.014,2.014,0,0,0,130.226,8.066Zm-12.476.788H126.6v1.61H125.4a.4.4,0,0,0-.4.4v.4H119.36v-.4a.4.4,0,0,0-.4-.4H117.75Zm-3.622.017a1.207,1.207,0,1,1-1.207,1.207A1.209,1.209,0,0,1,114.128,8.871Zm16.1,0a1.207,1.207,0,1,1-1.207,1.207A1.209,1.209,0,0,1,130.226,8.871Zm-22.939,4.812h29.781v1.61H107.287Zm-1.61,2.415h33v2.415h-33Zm-2.166,3.22h37.333l-.4.8H103.913Zm.8,1.61h.556V22.04Zm1.361,0h1.61v2.415h-1.61Zm2.415,0h1.61v2.415h-1.61Zm2.415,0h1.61v2.415h-1.61Zm2.415,0h1.61v2.415h-1.61Zm2.415,0h1.61v2.415h-1.61Zm2.415,0h1.61v2.415h-1.61Zm2.415,0h1.61v2.415h-1.61Zm2.415,0h1.61v2.415h-1.61Zm2.415,0h1.61v2.415h-1.61Zm2.415,0h1.61v2.415h-1.61Zm2.415,0h1.61v2.415h-1.61Zm2.415,0h1.61v2.415h-1.61Zm2.415,0h1.61v2.415h-1.61Zm2.415,0h1.61v2.415h-1.61Zm2.415,0h.557l-.557,1.113Zm-33.805,3.22h8.854V32.2h-.8V29.379a.4.4,0,0,0-.4-.4h-6.439a.4.4,0,0,0-.4.4V32.2h-.8Zm9.659,0h13.683v1.61h-6.037a.4.4,0,0,0-.4.4v2.817h-.8V26.159a.4.4,0,0,0-.4-.4h-6.037Zm14.488,0h8.854V32.2h-.8V29.379a.4.4,0,0,0-.4-.4h-6.439a.4.4,0,0,0-.4.4V32.2h-.8V24.147Zm-19.72.8a1.61,1.61,0,1,0,1.61,1.61A1.611,1.611,0,0,0,110.1,24.952Zm24.147,0a1.61,1.61,0,1,0,1.61,1.61A1.611,1.611,0,0,0,134.251,24.952Zm-24.147.8a.8.8,0,1,1-.8.8A.805.805,0,0,1,110.1,25.757Zm24.147,0a.8.8,0,1,1-.8.8A.805.805,0,0,1,134.251,25.757Zm-18.915.8h5.634V26.7a6.037,6.037,0,0,0-4.81,5.5h-.824Zm8.049,0h5.634V32.2H128.2a6.036,6.036,0,0,0-4.81-5.5Zm-2.415.954v.844a4.412,4.412,0,0,0-3.183,3.836h-.822A5.234,5.234,0,0,1,120.97,27.516Zm2.415,0a5.234,5.234,0,0,1,4.006,4.68h-.822a4.411,4.411,0,0,0-3.183-3.836ZM120.97,29.2v.176a.4.4,0,0,0,.4.4h1.61a.4.4,0,0,0,.4-.4V29.2a3.608,3.608,0,0,1,2.38,2.993H125.4a.4.4,0,0,0,0,.8h.4V37.83h-.4a.4.4,0,0,0,0,.8h.4V50.708h-7.244V38.635h.4a.4.4,0,0,0,0-.8h-.4V33h.4a.4.4,0,0,0,0-.8h-.368A3.61,3.61,0,0,1,120.97,29.2Zm-13.683.579h1.207v.8h-1.207Zm2.012,0h1.61v.8H109.3Zm2.415,0h1.207v.8h-1.207Zm19.72,0h1.207v.8h-1.207Zm2.012,0h1.61v.8h-1.61Zm2.415,0h1.207v.8H135.86Zm-28.574,1.61h5.634v.8h-5.634Zm24.147,0h5.634v.8h-5.634ZM105.677,33h.8v.8h-.8Zm1.61,0h5.634v.8h-5.634Zm6.439,0h.8v.8h-.8Zm1.61,0h2.415V37.83h-2.415ZM126.6,33h2.415V37.83H126.6Zm3.22,0h.8v.8h-.8Zm1.61,0h5.634v.8h-5.634Zm6.439,0h.8v.8h-.8Zm-32.2,1.61h.8v3.22h-.8Zm1.61,0h.8v2.012a.4.4,0,0,0,.4.4h3.22a.4.4,0,0,0,.4-.4V34.61h.8v3.22h-5.634Zm1.61,0h2.415v1.61H108.9Zm4.829,0h.8v3.22h-.8Zm16.1,0h.8v3.22h-.8Zm1.61,0h.8v2.012a.4.4,0,0,0,.4.4h3.22a.4.4,0,0,0,.4-.4V34.61h.8v3.22h-5.634Zm1.61,0h2.415v1.61h-2.415Zm4.829,0h.8v3.22h-.8Zm-33.4,4.024h11.324l-1.074,1.61H105.54Zm12.29,0h.992V50.708h-2.415V40.77Zm9.846,0h1.044l1.371,2.056V50.708H126.6Zm2.011,0h11.324l-1.074,1.61h-9.178Zm-22.938,2.415h.8v7.244h-.8Zm1.61,0h5.634v7.244h-5.634Zm6.439,0h.8v7.244h-.8Zm16.1,0h.8v7.244h-.8Zm1.61,0h5.634v7.244h-5.634Zm6.439,0h.8v7.244h-.8Zm-32.2,8.049h.8v1.61h-.8Zm1.61,0h.8v1.61h-.8Zm1.61,0h2.415v1.61H108.9Zm3.22,0h.8v1.61h-.8Zm1.61,0h.8v1.61h-.8Zm16.1,0h.8v1.61h-.8Zm1.61,0h.8v1.61h-.8Zm1.61,0h2.415v1.61h-2.415Zm3.22,0h.8v1.61h-.8Zm1.61,0h.8v1.61h-.8Z" transform="translate(-101.25)"/>
  </g>
  <text id="Delhi" class="cls-3" transform="translate(31 79)"><tspan x="0" y="0">Delhi</tspan></text>
</svg>
