<svg xmlns="http://www.w3.org/2000/svg" width="18.525" height="18.532" viewBox="0 0 18.525 18.532">
  <defs>
    <style>
      .cls-1 {
        fill: #9b3189;
      }
    </style>
  </defs>
  <g id="Group_992" data-name="Group 992" transform="translate(0 0)">
    <path id="Path_1565" data-name="Path 1565" class="cls-1" d="M491.231-892.68a1.672,1.672,0,0,1-.542.777l-.573.531c-.937-.959-1.948-1.849-2.808-2.845.263-.277.511-.553.776-.812a.881.881,0,0,1,.709-.276.418.418,0,0,1,.2.071,10.893,10.893,0,0,1,1.461,1.353c.148.155.292.314.445.464a1.009,1.009,0,0,1,.335.509Z" transform="translate(-472.706 895.309)"/>
    <path id="Path_1566" data-name="Path 1566" class="cls-1" d="M138.458-880.777q-.877.86-1.757,1.719a.213.213,0,0,1-.136.04q-1.839,0-3.678.005c-1.122,0-2.244.017-3.366.006a1.84,1.84,0,0,0-1.826,1.761c0,.085.005.17.005.255q0,5.153,0,10.305a2.114,2.114,0,0,0,.157.94,1.754,1.754,0,0,0,1.325,1.056,4.459,4.459,0,0,0,.745.03q5.1,0,10.2,0a1.877,1.877,0,0,0,1.207-.355,1.742,1.742,0,0,0,.723-1.438q0-3.522,0-7.043a.246.246,0,0,1,.076-.191q.833-.831,1.661-1.667c.014-.015.031-.027.058-.052,0,.04,0,.063,0,.087,0,3.161-.017,6.322-.007,9.483a3.085,3.085,0,0,1-2.531,2.969.542.542,0,0,1-.1.006q-6.268,0-12.537,0a2.459,2.459,0,0,1-1.3-.414,2.941,2.941,0,0,1-1.422-2.044,2.639,2.639,0,0,1-.035-.461q-.008-6.055-.008-12.111a2.827,2.827,0,0,1,1.216-2.313,3.022,3.022,0,0,1,1.91-.6c3.107.005,6.215,0,9.322,0h.082Z" transform="translate(-125.914 881.39)"/>
    <path id="Path_1567" data-name="Path 1567" class="cls-1" d="M322.5-848.083l-2.826-2.885,6.281-6.246,2.837,2.885Z" transform="translate(-311.842 858.754)"/>
    <path id="Path_1568" data-name="Path 1568" class="cls-1" d="M281.863-692.143l2.87,2.827c-1.329.415-2.664.763-4.017,1.16Z" transform="translate(-274.461 700.352)"/>
  </g>
</svg>
