<svg xmlns="http://www.w3.org/2000/svg" width="23.899" height="21.859" viewBox="0 0 23.899 21.859">
  <defs>
    <style>
      .cls-1 {
        fill: #532280;
      }
    </style>
  </defs>
  <path id="Path_1569" data-name="Path 1569" class="cls-1" d="M1192.864-2675.617a7.474,7.474,0,0,1,3.858-2.291,6.539,6.539,0,0,1,8.056,6.227,10.03,10.03,0,0,1-2.694,6.536,68.234,68.234,0,0,1-7.136,7.086c-.609.56-1.242,1.1-1.838,1.671-.219.212-.325.2-.542-.005a110.543,110.543,0,0,1-8.323-7.974,13,13,0,0,1-3.138-5.364,6.512,6.512,0,0,1,4.838-8.15,6.78,6.78,0,0,1,6.524,1.909c.107.1.21.207.317.309A.38.38,0,0,0,1192.864-2675.617Z" transform="translate(-1180.88 2678.095)"/>
</svg>
