<svg xmlns="http://www.w3.org/2000/svg" width="5.087" height="10.174" viewBox="0 0 5.087 10.174">
  <defs>
    <style>
      .cls-1 {
        fill: #532280;
      }
    </style>
  </defs>
  <path id="Path_38917" data-name="Path 38917" class="cls-1" d="M2418.464,3607.061q0,1.459,0,2.918a1.092,1.092,0,0,1-2.174.149.716.716,0,0,1,0-.1q0-2.555,0-5.109a.363.363,0,0,1,.71-.121.565.565,0,0,1,.014.157q0,2.487,0,4.973a.383.383,0,0,0,.227.4.361.361,0,0,0,.5-.315c0-.026,0-.053,0-.079q0-2.855,0-5.711a1.089,1.089,0,0,0-2.158-.245,1.621,1.621,0,0,0-.022.26q0,2.867,0,5.734a1.815,1.815,0,0,0,3.615.251,2.887,2.887,0,0,0,.018-.294q0-2.5,0-5a.357.357,0,0,1,.245-.368.336.336,0,0,1,.4.115.5.5,0,0,1,.082.261c.005,1.275,0,2.551,0,3.826v1.249a2.545,2.545,0,0,1-5.056.395,2.133,2.133,0,0,1-.03-.361q0-2.947,0-5.893a1.816,1.816,0,0,1,3.611-.253,2.063,2.063,0,0,1,.021.282Q2418.465,3605.619,2418.464,3607.061Z" transform="translate(-2414.83 -3602.355)"/>
</svg>
