<svg xmlns="http://www.w3.org/2000/svg" xmlns:xlink="http://www.w3.org/1999/xlink" width="96.586" height="89.622" viewBox="0 0 96.586 89.622">
  <defs>
    <style>
      .cls-1 {
        fill: #9b3189;
      }

      .cls-2 {
        fill: #fff;
        font-size: 17px;
        font-family: Montserrat-SemiBold, Montserrat;
        font-weight: 600;
      }

      .cls-3 {
        filter: url(#Path_1637);
      }
    </style>
    <filter id="Path_1637" x="0" y="0" width="96.586" height="89.622" filterUnits="userSpaceOnUse">
      <feOffset input="SourceAlpha"/>
      <feGaussianBlur stdDeviation="2.5" result="blur"/>
      <feFlood flood-opacity="0.161"/>
      <feComposite operator="in" in2="blur"/>
      <feComposite in="SourceGraphic"/>
    </filter>
  </defs>
  <g id="Component_75_1" data-name="Component 75 – 1" transform="translate(7.5 7.5)">
    <g class="cls-3" transform="matrix(1, 0, 0, 1, -7.5, -7.5)">
      <path id="Path_1637-2" data-name="Path 1637" class="cls-1" d="M1221.792-2669.637a25.505,25.505,0,0,1,13.169-7.822,22.323,22.323,0,0,1,27.5,21.256c.143,8.792-3.937,15.791-9.2,22.314-7.221,8.962-15.949,16.423-24.36,24.189-2.081,1.912-4.24,3.745-6.275,5.705-.746.723-1.111.669-1.852-.017-9.645-8.891-19.714-17.343-28.412-27.222-4.749-5.4-8.915-11.161-10.714-18.307-3.2-12.729,3.776-24.726,16.516-27.825,8.552-2.081,15.943.585,22.27,6.516.367.346.717.708,1.081,1.058A1.369,1.369,0,0,0,1221.792-2669.637Z" transform="translate(-1173.38 2685.6)"/>
    </g>
    <text id="_0" data-name="0" class="cls-2" transform="translate(35.001 43)"><tspan x="0" y="0">0</tspan></text>
  </g>
</svg>
