<svg xmlns="http://www.w3.org/2000/svg" width="13.282" height="17.974" viewBox="0 0 13.282 17.974">
  <defs>
    <style>
      .cls-1 {
        fill: #9b3189;
      }
    </style>
  </defs>
  <g id="Group_25451" data-name="Group 25451" transform="translate(-5680.166 -4149.214)">
    <path id="Path_38912" data-name="Path 38912" class="cls-1" d="M5712.927,4155.482a5.253,5.253,0,0,1-.885.788c-.115.085-.227.213-.354.232s-.264-.076-.4-.12a3.119,3.119,0,0,0-.97-.184.326.326,0,0,0-.11.044c.03.029.054.073.09.086a2.69,2.69,0,0,1,.87.473c-.045.03-.083.056-.122.08a12.817,12.817,0,0,0-2.306,1.749,4.172,4.172,0,0,0-.363.414.219.219,0,0,1-.2.092,2.514,2.514,0,0,0-1.081.226c-.035.016-.057.063-.085.1.044.008.093.032.131.021a1.188,1.188,0,0,1,.9.08l-.221.138a6.734,6.734,0,0,0-1.783,1.706c-.086.115-.173.229-.254.347a.5.5,0,0,0-.045.125.818.818,0,0,0,.142.006,5.5,5.5,0,0,1,.572-.058,26.761,26.761,0,0,1-1.687,2.391l-.026-.012c.042-.168.082-.338.127-.506a28.586,28.586,0,0,1,1.818-4.964,19.161,19.161,0,0,1,2.817-4.38c.3-.344.629-.667.955-.989a11.154,11.154,0,0,1,2.513-1.852,10.388,10.388,0,0,1,2.487-.969c.069-.017.174-.017.088-.164-.249.044-.511.079-.767.139a9.876,9.876,0,0,0-3.586,1.684,14.292,14.292,0,0,0-1.2.975,15.708,15.708,0,0,0-2.963,3.746,24.44,24.44,0,0,0-2.23,5.189c-.2.641-.361,1.292-.54,1.938a.33.33,0,0,1-.036.091,9.411,9.411,0,0,1,.016-2.678l.177.085c.091.042.118.022.121-.077.012-.4.01-.81.039-1.212a17.1,17.1,0,0,1,.45-2.767,2,2,0,0,0,.1.23q.165.278.343.548c.018.026.067.03.1.043.007-.036.028-.077.019-.107a2.614,2.614,0,0,1-.032-1.288,7.251,7.251,0,0,1,.685-1.83c.1-.194.208-.381.313-.57a.5.5,0,0,1,.04-.056c.076.2.142.393.228.581a1.669,1.669,0,0,0,.2.3c.019.024.066.028.1.042.005-.035.025-.076.014-.105a3.39,3.39,0,0,1-.134-1.437.228.228,0,0,1,.038-.1,8.694,8.694,0,0,1,2.078-2.276c.028-.021.06-.039.084-.054.069.27.136.535.2.8a.172.172,0,0,0,.022.062.571.571,0,0,0,.065.063c.022-.025.055-.047.063-.076.069-.239.12-.485.2-.719a6.328,6.328,0,0,1,.32-.724.606.606,0,0,1,.212-.227,9.746,9.746,0,0,1,2.55-1.155,5.433,5.433,0,0,1,1.42-.221,2.782,2.782,0,0,1,2.168.847,1.62,1.62,0,0,1,.353,1.7,3.44,3.44,0,0,1-.754,1.22,9.763,9.763,0,0,1-2.183,1.757,3.253,3.253,0,0,1-.295.173.174.174,0,0,1-.138,0,3.545,3.545,0,0,0-2.009-.367.207.207,0,0,0-.065.012c-.033.016-.063.037-.1.056.03.026.056.068.09.076a4.2,4.2,0,0,1,1.5.718c.018.013.035.026.052.041A.278.278,0,0,1,5712.927,4155.482Z" transform="translate(-23.448 0)"/>
    <path id="Path_38913" data-name="Path 38913" class="cls-1" d="M5724.351,4225.708c-.187.086-.36.163-.531.246a11.748,11.748,0,0,0-2.846,1.948,17.054,17.054,0,0,0-3.288,4.253,25.324,25.324,0,0,0-2.054,4.727c-.212.655-.385,1.323-.577,1.985l-.032.115-.115-.033-.125-.04c.064-.25.125-.495.191-.738.057-.209.117-.417.182-.623.2-.625.389-1.254.6-1.875a21.928,21.928,0,0,1,1.1-2.6,18,18,0,0,1,2.758-4.13,11.745,11.745,0,0,1,4.411-3.14c.089-.035.179-.066.269-.1A.178.178,0,0,1,5724.351,4225.708Z" transform="translate(-33.852 -74.8)"/>
    <path id="Path_38914" data-name="Path 38914" class="cls-1" d="M5690.53,4779.6a5.559,5.559,0,0,1-1.592-.261c-.028-.009-.049-.042-.073-.064.032-.007.066-.027.095-.02a5.792,5.792,0,0,0,1.7.143,10.479,10.479,0,0,0,1.288-.148,11.565,11.565,0,0,0,3.056-1.071c.988-.486,1.961-1,2.945-1.5a12.154,12.154,0,0,1,2.52-1.009c.373-.093.754-.153,1.133-.223.033-.006.073.021.109.033-.032.023-.061.06-.1.067a12.179,12.179,0,0,0-2.469.834c-.82.378-1.628.783-2.433,1.192a25.137,25.137,0,0,1-2.841,1.332c-.537.194-1.088.351-1.64.5a7.059,7.059,0,0,1-1.447.2C5690.7,4779.6,5690.615,4779.6,5690.53,4779.6Z" transform="translate(-8.507 -612.411)"/>
    <path id="Path_38915" data-name="Path 38915" class="cls-1" d="M5708.678,4829.939l.25.075-.1.347-.264-.086Z" transform="translate(-27.775 -665.705)"/>
    <path id="Path_38916" data-name="Path 38916" class="cls-1" d="M5681.02,4850.8l-.249-.082a.164.164,0,0,0-.024.033.7.7,0,0,0-.034.1,2.974,2.974,0,0,1-.417,1c-.038.063-.073.127-.105.194a.157.157,0,0,0-.023.092c.044.217.094.433.143.655.048-.052.094-.1.143-.151a.685.685,0,0,1,.165-.145c.189-.09.217-.236.211-.428a2.3,2.3,0,0,1,.145-1.082A.955.955,0,0,0,5681.02,4850.8Zm-.531,1.478c-.038-.007-.069-.057-.1-.088.034-.031.065-.081.1-.087s.067.045.125.088C5680.556,4852.235,5680.518,4852.285,5680.489,4852.279Z" transform="translate(0 -686.027)"/>
  </g>
</svg>
