<svg id="Component_95_1" data-name="Component 95 – 1" xmlns="http://www.w3.org/2000/svg" width="88" height="90" viewBox="0 0 88 90">
  <defs>
    <style>
      .cls-1, .cls-5 {
        fill: none;
      }

      .cls-1 {
        stroke: #451d6a;
        opacity: 0.47;
      }

      .cls-2, .cls-3 {
        fill: #9b3189;
      }

      .cls-2 {
        font-size: 10px;
        font-family: Montserrat-Bold, Montserrat;
        font-weight: 700;
      }

      .cls-4 {
        stroke: none;
      }
    </style>
  </defs>
  <g id="Rectangle_401" data-name="Rectangle 401" class="cls-1">
    <rect class="cls-4" width="88" height="90" rx="17"/>
    <rect class="cls-5" x="0.5" y="0.5" width="87" height="89" rx="16.5"/>
  </g>
  <text id="Kolkata" class="cls-2" transform="translate(25 79)"><tspan x="0" y="0">Kolkata</tspan></text>
  <g id="Group_1014" data-name="Group 1014" transform="translate(15 12)">
    <path id="Path_1574" data-name="Path 1574" class="cls-3" d="M68.991,717.187H66.267a.429.429,0,0,0-.454.454v3.633a.429.429,0,0,0,.454.454h2.724a.429.429,0,0,0,.454-.454v-3.633A.429.429,0,0,0,68.991,717.187Zm-.454.908V719H66.721V718.1Zm-1.816,2.724v-.908h1.816v.908Z" transform="translate(-62.271 -681.77)"/>
    <path id="Path_1575" data-name="Path 1575" class="cls-3" d="M57.576,109.919H56.214v-8.173h.454a.454.454,0,1,0,0-.908h-.454V93.572h.454a.454.454,0,1,0,0-.908h-.454V89.94h.454a.454.454,0,1,0,0-.908h-.454V85.853a.454.454,0,1,0-.908,0v.454H54.4V83.583h.454a.454.454,0,1,0,0-.908H54.4a1.75,1.75,0,0,0-1.362-1.725h0V79.5a.454.454,0,1,0-.908,0v1.453h0a1.75,1.75,0,0,0-1.362,1.725h-.454a.454.454,0,0,0,0,.908h.454v2.724h-.908v-.454a.454.454,0,1,0-.908,0v3.178h-.454a.454.454,0,0,0,0,.908h.454v.908H41.684V89.94h.454a.454.454,0,1,0,0-.908h-.454V84.491h.454a.454.454,0,1,0,0-.908h-.454a2.333,2.333,0,0,0-1.816-1.816V80.4a.454.454,0,1,0-.908,0v1.362h-.454a2.242,2.242,0,0,1-2.18-1.816H37.6a.429.429,0,0,0,.454-.454V77.68a.429.429,0,0,0-.454-.454H36.235V75.41h.454a.454.454,0,1,0,0-.908h-.454a7.3,7.3,0,0,0-4.9-5.994V65.42h.454a.454.454,0,1,0,0-.908h-.454A2.333,2.333,0,0,0,29.515,62.7V59.517a.454.454,0,0,0-.908,0V62.7a2.333,2.333,0,0,0-1.816,1.816h-.454a.454.454,0,0,0,0,.908h.454v3.088a7.3,7.3,0,0,0-4.9,5.994h-.545a.454.454,0,1,0,0,.908H21.8v1.816H20.433a.429.429,0,0,0-.454.454V79.5a.429.429,0,0,0,.454.454H21.7a2.242,2.242,0,0,1-2.18,1.816h-.454V80.4a.454.454,0,1,0-.908,0v1.362a2.333,2.333,0,0,0-1.816,1.816h-.454a.454.454,0,1,0,0,.908h.454v4.541h-.454a.454.454,0,1,0,0,.908h.454v.908H9.081V89.94h.454a.454.454,0,0,0,0-.908H9.081V85.853a.454.454,0,1,0-.908,0v.454H7.265V83.583h.454a.454.454,0,0,0,0-.908H7.265A1.75,1.75,0,0,0,5.9,80.949h0V79.5a.454.454,0,1,0-.908,0v1.453h0a1.75,1.75,0,0,0-1.362,1.725H3.179a.454.454,0,1,0,0,.908h.454v2.724H2.724v-.454A.429.429,0,0,0,2.27,85.4a.429.429,0,0,0-.454.454v3.178H1.362a.454.454,0,1,0,0,.908h.454v2.724H1.362a.454.454,0,1,0,0,.908h.454v7.265H1.362a.454.454,0,1,0,0,.908h.454v8.173H.454a.454.454,0,1,0,0,.908H57.667a.429.429,0,0,0,.454-.454A.509.509,0,0,0,57.576,109.919Zm-2.27-9.081H49.857V93.572h5.449ZM52.581,81.767a.858.858,0,0,1,.908.908H51.673A.91.91,0,0,1,52.581,81.767Zm-.908,1.816H53.49v2.724H51.673Zm-1.816,3.723h0l1.362-.091h4v1.816H49.766V87.306Zm5.449,2.634v2.724H49.857V89.94Zm-6.357,1.816v.908h-.454a.454.454,0,0,0,0,.908h.454v.908H41.684v-.908h.454a.454.454,0,1,0,0-.908h-.454v-.908ZM25.337,107.195V99.021a3.633,3.633,0,1,1,7.265,0v10.9H25.337ZM28.97,94.481A4.6,4.6,0,0,0,25.337,96.3V93.572H32.6V96.3A4.471,4.471,0,0,0,28.97,94.481Zm2.27-1.816h-5.9V90.848H32.6v1.816Zm-8.627-6.357h1.816v1.816H22.613Zm4.087,0h5.9v1.816H25.337V86.307Zm-2.27-6.357h.908v3.633h-.908Zm1.816,0h5.449v3.633h-.908v-1a1.816,1.816,0,0,0-3.633,0v1h-.908Zm7.265,3.633H32.6V79.95h.908Zm-3.633,0H28.062v-1a.908.908,0,0,1,1.816,0Zm-2.724.908h3.633V85.4H27.153Zm8.173,3.633H33.51V86.307h1.816Zm-13.168.908H37.143v.908H20.8v-.454h0v-.454ZM17.164,91.3V89.94h2.724v.454a.429.429,0,0,0,.454.454H21.7v1.816H17.164Zm4.541,2.27v2.089a1.65,1.65,0,0,0-1.816,0V93.572Zm0,11.806H19.888v-1.816a.908.908,0,1,1,1.816,0Zm-.908-3.633a1.534,1.534,0,0,0-.908.272V99.929H21.7v2.089A1.534,1.534,0,0,0,20.8,101.746Zm.908-2.724H19.888V97.2a.908.908,0,0,1,1.816,0Zm-1.816,7.265H21.7v3.633H19.888Zm2.724-15.438h1.816v1.816H22.613Zm10.9,0h1.816v1.816H33.51Zm4.541,14.53H36.235v-1.816a.908.908,0,0,1,1.816,0Zm-.908-3.633a1.534,1.534,0,0,0-.908.272V99.929h1.816v2.089A1.534,1.534,0,0,0,37.143,101.746Zm.908-2.724H36.235V97.2a.908.908,0,0,1,1.816,0Zm-1.816,7.265h1.816v3.633H36.235Zm1.816-10.625a1.65,1.65,0,0,0-1.816,0V93.572h1.816Zm-1.816-3V90.848H37.6a.429.429,0,0,0,.454-.454V89.94h2.724v2.724H36.235Zm4.541-3.633h-.908v-2.27a.454.454,0,1,0-.908,0v2.27h-.908V84.491h2.724Zm-.091-5.449H38.142a1.344,1.344,0,0,1,2.543,0Zm-3-1a2.165,2.165,0,0,0-.545,1h-.454a.454.454,0,0,0,0,.908h.454v3.633h-.908v-2.27a.429.429,0,0,0-.454-.454H31.694v-.908h3.178a.454.454,0,1,0,0-.908h-.454V79.95h1A3.239,3.239,0,0,0,37.688,82.584Zm-2.361-5.358h-.908V75.41h.908Zm-10.9-1.816h1.816v1.816H24.429Zm2.724,0h3.633v1.816H27.153Zm4.541,0H33.51v1.816H31.694ZM28.97,63.6a1.283,1.283,0,0,1,1.271.908H27.7A1.282,1.282,0,0,1,28.97,63.6ZM27.608,65.42h2.724v2.815a3.088,3.088,0,0,0-.908-.091V66.782a.454.454,0,1,0-.908,0v1.362c-.272,0-.636.091-.908.091Zm1.362,3.633A6.354,6.354,0,0,1,35.236,74.5H22.7A6.354,6.354,0,0,1,28.97,69.053ZM22.613,75.41h.908v1.816h-.908ZM20.8,78.134H37.143v.908H20.8Zm1.816,1.816h1v3.633h-.454a.454.454,0,1,0,0,.908h3.178V85.4H22.25a.429.429,0,0,0-.454.454v2.27h-.908V84.491h.454a.454.454,0,0,0,0-.908h-.454a2.164,2.164,0,0,0-.545-1A3.386,3.386,0,0,0,22.613,79.95Zm-4.087,2.724a1.283,1.283,0,0,1,1.271.908H17.255A1.366,1.366,0,0,1,18.526,82.675Zm1.362,1.816v4.541H18.98v-2.27a.454.454,0,1,0-.908,0v2.27h-.908V84.491Zm-3.633,7.265v.908H15.8a.454.454,0,0,0,0,.908h.454v.908H8.991v-.908h.454a.454.454,0,1,0,0-.908H8.991v-.908Zm-10.9-9.99a.858.858,0,0,1,.908.908H4.45A.858.858,0,0,1,5.358,81.767ZM4.45,83.583H6.266v2.724H4.45ZM2.634,87.306h0l1.271-.091H7.992v1.816H2.543V87.306Zm0,2.634H8.082v2.724H2.634Zm0,3.633H8.082v7.265H2.634Zm0,8.173H8.082v8.173H2.634Zm6.357,0h.454a.454.454,0,1,0,0-.908H8.991V95.389h7.265v14.53H8.991Zm8.173,8.173V93.572H18.98v16.347Zm5.449,0V93.572h1.816v16.347Zm10.9,0V93.572h1.816v16.347Zm5.449-4.087V93.572h1.816v16.347H38.959Zm2.724-10.444h7.265v5.449h-.454a.454.454,0,0,0,0,.908h.454v8.173H41.684Zm8.173,14.53v-8.173h5.449v8.173Z" transform="translate(0 -59.063)"/>
    <path id="Path_1576" data-name="Path 1576" class="cls-3" d="M76.257,757.294H73.532a.429.429,0,0,0-.454.454v3.633a.429.429,0,0,0,.454.454h2.724a.429.429,0,0,0,.454-.454v-3.633A.429.429,0,0,0,76.257,757.294Zm-.454.908v.908H73.986V758.2Zm0,2.724H73.986v-.908H75.8Zm.454-9.99H73.532a.429.429,0,0,0-.454.454v3.633a.429.429,0,0,0,.454.454h2.724a.429.429,0,0,0,.454-.454v-3.633A.429.429,0,0,0,76.257,750.937Zm-.454.908v.908H73.986v-.908Zm0,2.724H73.986v-.908H75.8Zm-6.811,2.724H66.267a.429.429,0,0,0-.454.454v3.633a.429.429,0,0,0,.454.454h2.724a.429.429,0,0,0,.454-.454v-3.633A.429.429,0,0,0,68.991,757.294Zm-.454,3.633H66.721V758.2h1.816Z" transform="translate(-62.271 -713.703)"/>
    <circle id="Ellipse_6452" data-name="Ellipse 6452" class="cls-3" cx="0.454" cy="0.454" r="0.454" transform="translate(28.516 16.801)"/>
    <circle id="Ellipse_6453" data-name="Ellipse 6453" class="cls-3" cx="0.454" cy="0.454" r="0.454" transform="translate(4.904 31.785)"/>
    <path id="Path_1577" data-name="Path 1577" class="cls-3" d="M816.032,721.728h2.724a.429.429,0,0,0,.454-.454v-3.633a.429.429,0,0,0-.454-.454h-2.724a.429.429,0,0,0-.454.454v3.633A.429.429,0,0,0,816.032,721.728Zm.454-.908v-.908H818.3v.908ZM818.3,718.1V719h-1.816V718.1Zm-6.811,7.265h-2.724a.429.429,0,0,0-.454.454v3.633a.429.429,0,0,0,.454.454h2.724a.429.429,0,0,0,.454-.454v-3.633A.429.429,0,0,0,811.491,725.36Zm-2.27.908h1.816v.908h-1.816Zm0,2.724v-.908h1.816v.908Zm2.27-9.99h-2.724a.429.429,0,0,0-.454.454v3.633a.429.429,0,0,0,.454.454h2.724a.429.429,0,0,0,.454-.454v-3.633A.429.429,0,0,0,811.491,719Zm-2.27.908h1.816v.908h-1.816Zm0,2.724v-.908h1.816v.908Zm9.535,2.724h-2.724a.429.429,0,0,0-.454.454v3.633a.429.429,0,0,0,.454.454h2.724a.429.429,0,0,0,.454-.454v-3.633A.429.429,0,0,0,818.757,725.36Zm-.454,3.633h-1.816v-2.724H818.3Z" transform="translate(-764.813 -681.77)"/>
    <circle id="Ellipse_6454" data-name="Ellipse 6454" class="cls-3" cx="0.454" cy="0.454" r="0.454" transform="translate(52.127 31.785)"/>
  </g>
</svg>
