<svg xmlns="http://www.w3.org/2000/svg" width="4.637" height="7" viewBox="0 0 4.637 7">
  <defs>
    <style>
      .cls-1 {
        fill: #9b3189;
      }
    </style>
  </defs>
  <g id="Group_7193" data-name="Group 7193" transform="translate(543.186 494.383)">
    <path id="Path_14105" data-name="Path 14105" class="cls-1" d="M-540.9-488.213c-.086-.12-.164-.236-.248-.347-.361-.479-.727-.954-1.084-1.435a6.478,6.478,0,0,1-.73-1.206,2.14,2.14,0,0,1-.219-.957,2.3,2.3,0,0,1,1.87-2.18,2.326,2.326,0,0,1,2.653,1.529,1.938,1.938,0,0,1-.135,1.6,11.213,11.213,0,0,1-.995,1.513q-.513.685-1.029,1.368C-540.847-488.3-540.872-488.258-540.9-488.213Zm.038-2.606a1.035,1.035,0,0,0,1.044-1.039,1.038,1.038,0,0,0-1.056-1.021,1.035,1.035,0,0,0-1.027,1.033A1.032,1.032,0,0,0-540.865-490.819Z" transform="translate(0 0)"/>
    <path id="Path_14106" data-name="Path 14106" class="cls-1" d="M-494.748-119.035c.113-.162.219-.318.33-.471.1-.134.2-.265.3-.4a.081.081,0,0,1,.063-.03,1.836,1.836,0,0,1,.7.282,1.029,1.029,0,0,1,.1.078.469.469,0,0,1,0,.747,1.466,1.466,0,0,1-.63.321,3.031,3.031,0,0,1-1.8-.053,1.193,1.193,0,0,1-.516-.318.445.445,0,0,1,.014-.657,1.52,1.52,0,0,1,.773-.382c.017,0,.048.016.061.034.185.253.368.506.552.76Z" transform="translate(-46.156 -368.99)"/>
  </g>
</svg>
