<svg id="Group_7066" data-name="Group 7066" xmlns="http://www.w3.org/2000/svg" width="6.446" height="6.322" viewBox="0 0 6.446 6.322">
  <defs>
    <style>
      .cls-1 {
        fill: #451d6a;
      }
    </style>
  </defs>
  <path id="Path_13804" data-name="Path 13804" class="cls-1" d="M-2501.383,449.965h2.991l-.436-.784s-.363-.494-1.06,0Z" transform="translate(2504.16 -448.962)"/>
  <ellipse id="Ellipse_6525" data-name="Ellipse 6525" class="cls-1" cx="0.25" cy="0.25" rx="0.25" ry="0.25" transform="translate(4.559 3.632)"/>
  <path id="Path_13805" data-name="Path 13805" class="cls-1" d="M-2561.677,484.572h1.634V483.4a.591.591,0,0,0-.592-.592h-5.263a.591.591,0,0,0-.591.592v3.7a.591.591,0,0,0,.591.592h5.263a.591.591,0,0,0,.592-.592v-1.172h-1.634a.675.675,0,0,1-.675-.675h0A.675.675,0,0,1-2561.677,484.572Zm-2.917,1.589a.914.914,0,0,1-.914-.914.914.914,0,0,1,.914-.914.914.914,0,0,1,.914.914A.914.914,0,0,1-2564.594,486.161Z" transform="translate(2566.489 -481.365)"/>
  <g id="Group_7065" data-name="Group 7065" transform="translate(1.454 3.193)">
    <path id="Path_13806" data-name="Path 13806" class="cls-1" d="M-2532.011,524.573c-.232-.042-.374-.145-.374-.319a.344.344,0,0,1,.374-.33v-.036a.052.052,0,0,1,.048-.053.052.052,0,0,1,.047.053v.036c.123,0,.374.08.374.234a.094.094,0,0,1-.1.1c-.1,0-.1-.168-.275-.171v.3c.208.044.391.105.391.348,0,.211-.157.317-.391.332v.1a.052.052,0,0,1-.047.054.052.052,0,0,1-.048-.054v-.1c-.266-.006-.4-.165-.4-.289a.09.09,0,0,1,.1-.1c.176,0,.039.217.3.228Zm0-.489c-.106,0-.175.066-.175.134s.058.124.175.148Zm.095.818c.094-.006.193-.05.193-.154s-.108-.138-.193-.157Z" transform="translate(2532.408 -523.834)"/>
  </g>
</svg>
