<svg id="Component_90_1" data-name="Component 90 – 1" xmlns="http://www.w3.org/2000/svg" width="88" height="90" viewBox="0 0 88 90">
  <defs>
    <style>
      .cls-1, .cls-5 {
        fill: none;
      }

      .cls-1 {
        stroke: #451d6a;
        opacity: 0.47;
      }

      .cls-2, .cls-3 {
        fill: #9b3189;
      }

      .cls-2 {
        font-size: 10px;
        font-family: Montserrat-Bold, Montserrat;
        font-weight: 700;
      }

      .cls-4 {
        stroke: none;
      }
    </style>
  </defs>
  <g id="Rectangle_406" data-name="Rectangle 406" class="cls-1">
    <rect class="cls-4" width="88" height="90" rx="17"/>
    <rect class="cls-5" x="0.5" y="0.5" width="87" height="89" rx="16.5"/>
  </g>
  <text id="Mumbai" class="cls-2" transform="translate(24 79)"><tspan x="0" y="0">Mumbai</tspan></text>
  <path id="Path_1583" data-name="Path 1583" class="cls-3" d="M68.947,173.227H66.189V150.061h1.655a.607.607,0,0,0,.552-.331l1.1-3.309c.11-.221,0-.331-.11-.552a.573.573,0,0,0-.441-.221H66.189v-4.413h.552a.521.521,0,0,0,.552-.552v-3.309a.521.521,0,0,0-.552-.552h-16v-3.861a.521.521,0,0,0-.552-.552h-.552v-7.722a2.126,2.126,0,0,0-1.655-2.1v-1.765a.552.552,0,1,0-1.1,0v1.765a2.126,2.126,0,0,0-1.655,2.1V129.1H24.269v-4.413a2.126,2.126,0,0,0-1.655-2.1v-1.765a.552.552,0,1,0-1.1,0v1.765a2.126,2.126,0,0,0-1.655,2.1v7.722h-.552a.521.521,0,0,0-.552.552v3.861h-16a.521.521,0,0,0-.552.552v3.309a.521.521,0,0,0,.552.552h.552v4.413H.552a.573.573,0,0,0-.441.221.827.827,0,0,0-.11.552l1.1,3.309a.607.607,0,0,0,.552.331H3.309v23.166H.552a.552.552,0,0,0,0,1.1h68.4a.552.552,0,0,0,0-1.1ZM67.4,148.958H50.745v-2.206h17.43Zm-42.03-15.444H44.126v6.619H25.372Zm24.269,0v6.619H45.229v-6.619h4.413Zm-18.753,7.722v4.413H28.682v-4.413Zm1.1,0H34.2v4.413H31.991Zm3.309,0h2.206v4.413H35.3Zm3.309,0h2.206v4.413H38.61Zm3.309,0h2.206v4.413H41.92Zm3.309,4.413v-4.413h4.413v4.413Zm-17.65-4.413v4.413H25.372v-4.413Zm-3.309,4.413H19.857v-4.413h4.413Zm0,1.1v2.206H19.857v-2.206Zm20.96,0h4.413v2.206H45.229Zm19.857-1.1H50.745v-4.413H65.086Zm1.1-7.722v2.206H50.745v-2.206Zm-19.857-5.516v-5.516h2.206v5.516Zm1.1-8.825a1.042,1.042,0,0,1,1.1,1.1v1.1H46.332v-1.1A1.042,1.042,0,0,1,47.435,123.585ZM45.229,130.2v2.206H24.269V130.2Zm-23.166-6.619a1.042,1.042,0,0,1,1.1,1.1v1.1H20.96v-1.1A1.042,1.042,0,0,1,22.063,123.585Zm-1.1,3.309h2.206v5.516H20.96Zm-.552,6.619h3.861v6.619H19.857v-2.758h0v-3.861Zm-17.1,4.413H18.753v2.206H3.309Zm1.1,3.309H18.753v4.413H4.413Zm-3.089,5.516h17.43v2.206H2.1Zm3.089,3.309H18.753v23.166H17.1V160.651h0a7.629,7.629,0,0,0-4.413-6.95,1.191,1.191,0,0,0-1.213,0,8.026,8.026,0,0,0-4.413,6.95h0v12.576H4.3V150.061Zm4.964,23.166h-1.1V161.092H16v12.135h-1.1v-7.17a4.226,4.226,0,0,0-2.537-3.861h-.331a4.1,4.1,0,0,0-2.647,3.861Zm-1.1-13.238a6.815,6.815,0,0,1,3.751-5.516h.221A6.892,6.892,0,0,1,16,159.989Zm2.206,13.238v-7.17a3.325,3.325,0,0,1,1.655-2.758,3.1,3.1,0,0,1,1.655,2.758v7.17Zm9.377,0V150.061h4.413v23.166Zm7.722,0V161.2a9.524,9.524,0,0,1,4.523-8.163l2.648-1.765,2.648,1.655A9.573,9.573,0,0,1,41.92,161.2v12.135H27.579Zm10.37-21.18-2.978-1.875a.493.493,0,0,0-.552,0l-2.979,1.875a10.833,10.833,0,0,0-4.964,9.156v12.024h-1.1V146.751H44.126v26.475h-1.1V161.092A10.636,10.636,0,0,0,37.948,152.047Zm7.281,21.18V150.061h4.413v23.166ZM53.5,161.092h7.722v12.135h-1.1v-7.17a4.226,4.226,0,0,0-2.537-3.861h-.331a4.1,4.1,0,0,0-2.648,3.861v7.17H53.5Zm0-1.1a6.816,6.816,0,0,1,3.751-5.516h.221a6.892,6.892,0,0,1,3.751,5.516Zm2.206,13.238v-7.17a3.325,3.325,0,0,1,1.655-2.758,3.1,3.1,0,0,1,1.655,2.758v7.17Zm6.619,0V160.651h0a7.909,7.909,0,0,0-4.413-7.06,1.191,1.191,0,0,0-1.213,0,7.986,7.986,0,0,0-4.413,7.06v12.576H50.634V150.061H64.975v23.166Z" transform="translate(9 -110.886)"/>
</svg>
