<svg xmlns="http://www.w3.org/2000/svg" width="23.886" height="20.566" viewBox="0 0 23.886 20.566">
  <defs>
    <style>
      .cls-1 {
        fill: #532280;
      }
    </style>
  </defs>
  <g id="Group_1068" data-name="Group 1068" transform="translate(-0.398)">
    <path id="Path_32" data-name="Path 32" class="cls-1" d="M-3132.143-3864.321v-.953a8.731,8.731,0,0,1,.954.006c.468.053.616-.119.611-.619-.024-2.349,0-4.7-.022-7.047a1.071,1.071,0,0,1,.5-.949,3.8,3.8,0,0,1,3.089-.991,1.2,1.2,0,0,0,.3-.035v-3.014l-.822.4-.479-.869,1.948-1.131c1.089-.635,2.2-1.234,3.261-1.917a3.4,3.4,0,0,1,2.583-.587v-2.823c.938,0,1.778.762,2.821-.042-.075.495-.058.989-.171,1.024a4.891,4.891,0,0,1-1.474.189,3.923,3.923,0,0,1-.973-.281v1.822c.028.018.063.058.09.053a3.894,3.894,0,0,1,2.643.833c1.6.961,3.231,1.881,4.911,2.854l-.459.88-.821-.413v3.026a1.942,1.942,0,0,0,.513.03c1.289-.281,2.192.523,3.125,1.21a.86.86,0,0,1,.213.609c.015,2.349.032,4.7-.006,7.046-.01.618.165.819.733.735a5.984,5.984,0,0,1,.819-.006v.953Zm13.151-1.056v-4.678h-2.4v4.678Zm-1.2-13.729a1.84,1.84,0,0,0-1.813,1.857,1.853,1.853,0,0,0,1.777,1.845,1.85,1.85,0,0,0,1.841-1.836A1.839,1.839,0,0,0-3120.187-3879.106Zm-8.984,8.982h.971v-2.329h-.971Zm1.971-2.33v2.332h.938v-2.332Zm1.995-.007v2.331h.974v-2.331Zm1.978,0v2.345h.948v-2.345Zm5.118,0v2.333h.964v-2.333Zm1.957,0v2.331h.98v-2.331Zm2.974,2.337v-2.335h-.942v2.335Zm1.965,0v-2.329h-.964v2.329Zm-17.938.964v2.355h.934v-2.355Zm2.9,2.36v-2.324h-.949v2.324Zm2.03-2.34h-.967v2.336h.967Zm1.006-.023v2.358h.935v-2.358Zm6.07,2.369v-2.335h-.955v2.335Zm1-.029h.967v-2.322h-.967Zm2.978.022v-2.337h-.959v2.337Zm1.009-2.343v2.343h.941v-2.343Zm-12.622-6.282v-2.025h-.73v2.025Zm1.178-.007v-2h-.756v2Zm6.832-2.021v2.019h.755v-2.019Zm1.916,2.026v-2.011h-.73v2.011Z" transform="translate(3132.541 3884.887)"/>
    <path id="Path_33" data-name="Path 33" class="cls-1" d="M-2354.313-3473.142a1.8,1.8,0,0,1-.751-2.187A2.618,2.618,0,0,0-2354.313-3473.142Z" transform="translate(2367.387 3481.808)"/>
  </g>
</svg>
