<svg xmlns="http://www.w3.org/2000/svg" width="248.711" height="238.503" viewBox="0 0 248.711 238.503">
  <defs>
    <style>
      .cls-1 {
        fill: #f5f5f5;
      }

      .cls-2 {
        fill: #e0e0e0;
      }

      .cls-3 {
        fill: #ebebeb;
      }

      .cls-4 {
        fill: #263238;
      }

      .cls-5, .cls-8 {
        fill: #532280;
      }

      .cls-6 {
        fill: #9b3089;
      }

      .cls-7 {
        fill: #fff;
      }

      .cls-8 {
        opacity: 0.1;
      }

      .cls-10, .cls-9 {
        fill: #9b3189;
      }

      .cls-10, .cls-14 {
        opacity: 0.3;
      }

      .cls-11 {
        fill: #e8505b;
      }

      .cls-12 {
        opacity: 0.4;
      }

      .cls-13 {
        fill: #8d55bf;
      }

      .cls-15 {
        fill: #ffbe9d;
      }

      .cls-16 {
        fill: #eb996e;
      }

      .cls-17 {
        fill: #455a64;
      }

      .cls-18 {
        fill: #fafafa;
      }
    </style>
  </defs>
  <g id="Group_25434" data-name="Group 25434" transform="translate(-612.03 -40.684)">
    <g id="Background_Complete" data-name="Background Complete" transform="translate(621.888 40.684)">
      <g id="Group_25145" data-name="Group 25145" transform="translate(115.149 172.156)">
        <g id="Group_25119" data-name="Group 25119">
          <g id="Group_25118" data-name="Group 25118">
            <g id="Group_25117" data-name="Group 25117">
              <g id="Group_25116" data-name="Group 25116">
                <path id="Path_38745" data-name="Path 38745" class="cls-1" d="M849.326,411.511c-9.708-4.6-13.581-15.521-14.95-25.7-.229-1.7-.715-3.448-.163-5.066s2.257-2.948,3.889-2.492c1.355.378,2.148,1.745,3.054,2.833a10.021,10.021,0,0,0,4.6,3.114,3.818,3.818,0,0,0,3.521-.273c1.321-1.051,1.152-3.092.858-4.771q-.825-4.693-1.648-9.384a15.882,15.882,0,0,1-.337-5.076,5.285,5.285,0,0,1,2.679-4.078,3.205,3.205,0,0,1,4.271,1.456,15.728,15.728,0,0,1,.4,2.084,1.792,1.792,0,0,0,1.315,1.488c.7.084,1.3-.506,1.715-1.083a22.662,22.662,0,0,0,2.987-6.733,31.392,31.392,0,0,1,2.684-6.881,9.213,9.213,0,0,1,5.571-4.494,5.517,5.517,0,0,1,6.206,2.767c1.01,2.266.035,4.9-1.144,7.074a38.036,38.036,0,0,1-6.549,8.763,3.132,3.132,0,0,0-1.069,1.626c-.175,1.182,1.074,2.115,2.242,2.3a19.666,19.666,0,0,0,4-.222,3.832,3.832,0,0,1,3.558,1.425c.978,1.6-.153,3.644-1.367,5.062a32.592,32.592,0,0,1-8.579,7.1,10.991,10.991,0,0,0-3.243,2.315,3.155,3.155,0,0,0-.394,3.73,3.211,3.211,0,0,0,3.667.741,22.71,22.71,0,0,0,3.448-2.032c2.161-1.262,5.17-1.607,6.986.138a5.392,5.392,0,0,1,1.361,4.606,12.428,12.428,0,0,1-1.844,4.583A32.761,32.761,0,0,1,864.9,408.452c-5.042,2.763-9.919,4.106-15.571,3.059" transform="translate(-833.959 -346.316)"/>
              </g>
            </g>
          </g>
        </g>
        <g id="Group_25124" data-name="Group 25124" transform="translate(16.906 1.014)">
          <g id="Group_25123" data-name="Group 25123">
            <g id="Group_25122" data-name="Group 25122">
              <g id="Group_25121" data-name="Group 25121">
                <g id="Group_25120" data-name="Group 25120">
                  <path id="Path_38746" data-name="Path 38746" class="cls-2" d="M863.972,405.511a152.772,152.772,0,0,1,3.234-17.219l1.08-4.47c.358-1.466.712-2.921,1.147-4.321a76.435,76.435,0,0,1,2.959-7.906c1.063-2.469,2.162-4.774,3.2-6.921s2.063-4.128,3.065-5.894A60.45,60.45,0,0,1,884,350.8c.7-.889,1.269-1.561,1.66-2.011l.447-.509a1.345,1.345,0,0,1,.161-.166,1.207,1.207,0,0,1-.136.188l-.424.529c-.375.464-.926,1.147-1.613,2.046a63.975,63.975,0,0,0-5.245,8.012c-.987,1.769-1.988,3.751-3.024,5.9s-2.121,4.456-3.174,6.922a77.175,77.175,0,0,0-2.93,7.882c-.43,1.394-.78,2.835-1.138,4.305l-1.077,4.468a156.5,156.5,0,0,0-3.252,17.18" transform="translate(-863.972 -348.117)"/>
                </g>
              </g>
            </g>
          </g>
        </g>
        <g id="Group_25129" data-name="Group 25129" transform="translate(16.87 14.303)">
          <g id="Group_25128" data-name="Group 25128">
            <g id="Group_25127" data-name="Group 25127">
              <g id="Group_25126" data-name="Group 25126">
                <g id="Group_25125" data-name="Group 25125">
                  <path id="Path_38747" data-name="Path 38747" class="cls-2" d="M869.49,389.778a3.5,3.5,0,0,1-.285-.689c-.167-.449-.386-1.107-.646-1.924-.52-1.633-1.163-3.912-1.86-6.427s-1.371-4.781-1.915-6.4c-.27-.811-.495-1.465-.656-1.915a3.453,3.453,0,0,1-.218-.713,3.334,3.334,0,0,1,.331.668c.2.437.454,1.082.751,1.886.6,1.607,1.309,3.87,2.007,6.389.683,2.484,1.3,4.731,1.772,6.448.218.774.4,1.427.55,1.95A3.332,3.332,0,0,1,869.49,389.778Z" transform="translate(-863.908 -371.71)"/>
                </g>
              </g>
            </g>
          </g>
        </g>
        <g id="Group_25134" data-name="Group 25134" transform="translate(22.452 24.676)">
          <g id="Group_25133" data-name="Group 25133">
            <g id="Group_25132" data-name="Group 25132">
              <g id="Group_25131" data-name="Group 25131">
                <g id="Group_25130" data-name="Group 25130">
                  <path id="Path_38748" data-name="Path 38748" class="cls-2" d="M894.737,390.129a4.724,4.724,0,0,1-.844.249c-.546.143-1.337.346-2.306.628-1.942.548-4.6,1.4-7.488,2.467s-5.462,2.155-7.3,2.992c-.923.412-1.66.766-2.172,1.007a4.659,4.659,0,0,1-.808.349,4.687,4.687,0,0,1,.753-.46c.5-.275,1.22-.66,2.133-1.1,1.819-.891,4.388-2.01,7.285-3.086a77.245,77.245,0,0,1,7.539-2.385c.98-.255,1.781-.425,2.338-.531A4.707,4.707,0,0,1,894.737,390.129Z" transform="translate(-873.818 -390.124)"/>
                </g>
              </g>
            </g>
          </g>
        </g>
        <g id="Group_25139" data-name="Group 25139" transform="translate(1.561 32.218)">
          <g id="Group_25138" data-name="Group 25138">
            <g id="Group_25137" data-name="Group 25137">
              <g id="Group_25136" data-name="Group 25136">
                <g id="Group_25135" data-name="Group 25135">
                  <path id="Path_38749" data-name="Path 38749" class="cls-2" d="M852.273,429.263a1.132,1.132,0,0,1-.193-.238l-.5-.719c-.433-.626-1.035-1.548-1.765-2.7-1.461-2.3-3.378-5.536-5.446-9.138s-3.954-6.854-5.365-9.18l-1.679-2.749-.453-.751a1.125,1.125,0,0,1-.14-.274,1.18,1.18,0,0,1,.193.239l.5.718c.433.626,1.035,1.549,1.765,2.7,1.461,2.3,3.379,5.536,5.447,9.14s3.954,6.853,5.365,9.179l1.679,2.749.453.751A1.116,1.116,0,0,1,852.273,429.263Z" transform="translate(-836.73 -403.515)"/>
                </g>
              </g>
            </g>
          </g>
        </g>
        <g id="Group_25144" data-name="Group 25144" transform="translate(17.104 43.858)">
          <g id="Group_25143" data-name="Group 25143">
            <g id="Group_25142" data-name="Group 25142">
              <g id="Group_25141" data-name="Group 25141">
                <g id="Group_25140" data-name="Group 25140">
                  <path id="Path_38750" data-name="Path 38750" class="cls-2" d="M891.463,424.181a1.162,1.162,0,0,1-.265.166l-.786.42-2.905,1.516c-2.453,1.281-5.82,3.088-9.538,5.091s-7.107,3.782-9.587,5.012c-1.24.616-2.248,1.1-2.952,1.426l-.812.367a1.141,1.141,0,0,1-.293.108,1.2,1.2,0,0,1,.265-.166l.786-.42,2.9-1.516c2.453-1.28,5.82-3.088,9.54-5.091s7.105-3.781,9.585-5.011c1.24-.616,2.248-1.1,2.952-1.426l.812-.367A1.157,1.157,0,0,1,891.463,424.181Z" transform="translate(-864.324 -424.179)"/>
                </g>
              </g>
            </g>
          </g>
        </g>
      </g>
      <g id="Group_25169" data-name="Group 25169" transform="translate(51.147 116.291)">
        <g id="Group_25147" data-name="Group 25147">
          <g id="Group_25146" data-name="Group 25146">
            <path id="Path_38751" data-name="Path 38751" class="cls-3" d="M729.271,247.292s-6.693.93-2.936,15.588,6.945,22.213,6.945,22.213.505,3.32-2.171,3.217-8.133-2.276-9.984.612c-1.92,3-.242,6.6,3.956,10.382s13.091,12.392,13.892,13.174,1.383,2.394-.451,2.616-14.862-1.307-15.217,4.919,13.068,14.828,14.517,15.8,1.678,1.726,1.353,2.569-4.655-.084-8.378-.368-8.09.041-7.994,3.65,7.144,12.728,27.708,19.508l9.734,2.518,7.2-7.086c14.475-16.1,16.06-27.518,14.349-30.7s-5.66-1.29-8.75.805-6.388,5.051-7.088,4.483-.879-1.341-.1-2.9,8.151-15.7,4.748-20.922-13.947,2.575-15.649,3.294-1.993-.989-1.692-2.046c.306-1.077,3.744-12.972,5.509-18.336s1.429-9.33-1.725-10.975c-3.042-1.587-6.7,3.011-8.969,4.43s-3.483-1.713-3.483-1.713-.989-8.139-5.012-22.727-10.439-11.974-10.439-11.974" transform="translate(-720.334 -247.138)"/>
          </g>
        </g>
        <g id="Group_25150" data-name="Group 25150" transform="translate(12.279 13.287)">
          <g id="Group_25149" data-name="Group 25149">
            <g id="Group_25148" data-name="Group 25148">
              <path id="Path_38752" data-name="Path 38752" class="cls-2" d="M769.754,376.408c-2.913-10.725-7.769-29.873-12.024-46.292s-8.118-31.269-10.976-42.007l-3.4-12.714-.922-3.457-.232-.9c-.051-.2-.069-.31-.069-.31s.039.1.1.3.149.51.262.893c.227.8.556,1.957.978,3.442.846,2.99,2.04,7.326,3.494,12.689,2.913,10.725,6.812,25.573,11.065,41.986s9.077,35.574,11.935,46.313" transform="translate(-742.134 -270.726)"/>
            </g>
          </g>
        </g>
        <g id="Group_25153" data-name="Group 25153" transform="translate(8.301 45.13)">
          <g id="Group_25152" data-name="Group 25152">
            <g id="Group_25151" data-name="Group 25151">
              <path id="Path_38753" data-name="Path 38753" class="cls-2" d="M735.071,327.261a3.271,3.271,0,0,1,.641.344c.4.237.976.6,1.679,1.048,1.4.905,3.312,2.2,5.392,3.677l5.31,3.787,1.615,1.137a3.288,3.288,0,0,1,.578.442,3.219,3.219,0,0,1-.644-.339c-.4-.238-.975-.6-1.674-1.057-1.4-.919-3.286-2.244-5.365-3.715l-5.334-3.747-1.622-1.129A3.285,3.285,0,0,1,735.071,327.261Z" transform="translate(-735.07 -327.259)"/>
            </g>
          </g>
        </g>
        <g id="Group_25156" data-name="Group 25156" transform="translate(24.324 37.162)">
          <g id="Group_25155" data-name="Group 25155">
            <g id="Group_25154" data-name="Group 25154">
              <path id="Path_38754" data-name="Path 38754" class="cls-2" d="M763.519,331.041c-.073-.047,2.433-4.1,5.6-9.048s5.787-8.927,5.86-8.88-2.433,4.1-5.6,9.048S763.591,331.087,763.519,331.041Z" transform="translate(-763.517 -313.112)"/>
            </g>
          </g>
        </g>
        <g id="Group_25159" data-name="Group 25159" transform="translate(29.721 67.629)">
          <g id="Group_25158" data-name="Group 25158">
            <g id="Group_25157" data-name="Group 25157">
              <path id="Path_38755" data-name="Path 38755" class="cls-2" d="M773.1,380.166a3.426,3.426,0,0,1,.535-.516l1.519-1.329c1.28-1.123,3.042-2.682,4.922-4.474s3.535-3.465,4.719-4.688l1.4-1.449a3.441,3.441,0,0,1,.542-.508,3.34,3.34,0,0,1-.452.59c-.307.366-.76.887-1.334,1.518-1.145,1.264-2.775,2.971-4.665,4.764s-3.676,3.333-4.995,4.415c-.662.538-1.2.968-1.584,1.254A3.346,3.346,0,0,1,773.1,380.166Z" transform="translate(-773.098 -367.203)"/>
            </g>
          </g>
        </g>
        <g id="Group_25162" data-name="Group 25162" transform="translate(13.245 74.772)">
          <g id="Group_25161" data-name="Group 25161">
            <g id="Group_25160" data-name="Group 25160">
              <path id="Path_38756" data-name="Path 38756" class="cls-2" d="M743.848,379.887a2.918,2.918,0,0,1,.667.162l1.782.552c1.5.478,3.567,1.159,5.843,1.93s4.332,1.485,5.814,2.018l1.75.645a2.951,2.951,0,0,1,.629.277,2.919,2.919,0,0,1-.668-.162l-1.782-.551c-1.5-.478-3.567-1.16-5.843-1.931s-4.331-1.485-5.814-2.017l-1.75-.646A2.913,2.913,0,0,1,743.848,379.887Z" transform="translate(-743.848 -379.883)"/>
            </g>
          </g>
        </g>
        <g id="Group_25165" data-name="Group 25165" transform="translate(15.149 97.893)">
          <g id="Group_25164" data-name="Group 25164">
            <g id="Group_25163" data-name="Group 25163">
              <path id="Path_38757" data-name="Path 38757" class="cls-2" d="M747.228,420.933a4.67,4.67,0,0,1,.852.215l2.287.7c1.926.6,4.581,1.455,7.507,2.415s5.571,1.846,7.48,2.5l2.256.792a4.719,4.719,0,0,1,.813.331,4.786,4.786,0,0,1-.851-.215l-2.287-.7c-1.926-.6-4.582-1.455-7.509-2.415s-5.57-1.846-7.479-2.5l-2.255-.792A4.741,4.741,0,0,1,747.228,420.933Z" transform="translate(-747.228 -420.93)"/>
            </g>
          </g>
        </g>
        <g id="Group_25168" data-name="Group 25168" transform="translate(35.884 87.626)">
          <g id="Group_25167" data-name="Group 25167">
            <g id="Group_25166" data-name="Group 25166">
              <path id="Path_38758" data-name="Path 38758" class="cls-2" d="M784.041,419.619a5.34,5.34,0,0,1,.66-.671l1.864-1.754c1.572-1.483,3.736-3.539,6.061-5.876s4.381-4.5,5.856-6.082l1.748-1.87a5.494,5.494,0,0,1,.667-.662,5.369,5.369,0,0,1-.577.743c-.387.465-.957,1.129-1.676,1.938-1.435,1.619-3.465,3.816-5.8,6.154s-4.521,4.376-6.133,5.818c-.808.719-1.468,1.294-1.933,1.681A5.5,5.5,0,0,1,784.041,419.619Z" transform="translate(-784.04 -402.703)"/>
            </g>
          </g>
        </g>
      </g>
      <g id="Group_25170" data-name="Group 25170" transform="translate(9.763 0)">
        <path id="Path_38759" data-name="Path 38759" class="cls-1" d="M668.12,75.714,662.623,74a4.893,4.893,0,0,1-6.262,3.2,4.659,4.659,0,0,1-3.422-4.183,5.16,5.16,0,0,1,1.78-4.33c1.412-1.247,3.891-2.006,7.392-.2L665.979,56.1l-5.436-1.7-2.265,7.26a11.119,11.119,0,0,0-10.859,7.993c-2.508,8.039,4.119,12.154,7.2,13.116C656.983,83.506,665.2,85.444,668.12,75.714Z" transform="translate(-646.864 -46.674)"/>
        <rect id="Rectangle_3727" data-name="Rectangle 3727" class="cls-1" width="5.779" height="5.397" transform="matrix(-0.955, -0.298, 0.298, -0.955, 19.927, 6.873)"/>
      </g>
      <g id="Group_25171" data-name="Group 25171" transform="translate(45.975 9.706)">
        <path id="Path_38760" data-name="Path 38760" class="cls-3" d="M711.368,63.255l2.2-.58a1.935,1.935,0,0,1,1.424-2.388,1.84,1.84,0,0,1,2.024.682,2.038,2.038,0,0,1,.314,1.824,2.47,2.47,0,0,1-2.434,1.619l1.309,4.964,2.176-.575-.767-2.907a4.4,4.4,0,0,0,1.957-4.959,4.091,4.091,0,0,0-5.168-2.879A3.906,3.906,0,0,0,711.368,63.255Z" transform="translate(-711.151 -57.916)"/>
        <rect id="Rectangle_3728" data-name="Rectangle 3728" class="cls-3" width="2.285" height="2.134" transform="matrix(0.967, -0.255, 0.255, 0.967, 5.32, 12.484)"/>
      </g>
      <g id="Group_25172" data-name="Group 25172" transform="translate(227.425 69.169)">
        <path id="Path_38761" data-name="Path 38761" class="cls-3" d="M1034.345,166.368l2.141.775a1.935,1.935,0,0,1,2.531-1.152,1.84,1.84,0,0,1,1.276,1.713,2.039,2.039,0,0,1-.78,1.679,2.471,2.471,0,0,1-2.923-.054l-1.749,4.826,2.117.767,1.024-2.827a4.4,4.4,0,0,0,4.432-2.963,4.092,4.092,0,0,0-2.611-5.309A3.906,3.906,0,0,0,1034.345,166.368Z" transform="translate(-1033.748 -163.481)"/>
        <rect id="Rectangle_3729" data-name="Rectangle 3729" class="cls-3" width="2.285" height="2.134" transform="translate(0.727 11.665) rotate(19.914)"/>
      </g>
      <g id="Group_25173" data-name="Group 25173" transform="translate(0 84.203)">
        <path id="Path_38762" data-name="Path 38762" class="cls-1" d="M630.39,202.539l4.53-1.745a4.125,4.125,0,0,1,2.461-5.395,3.928,3.928,0,0,1,4.451.972,4.35,4.35,0,0,1,1.091,3.793c-.281,1.563-1.521,3.363-4.781,4l3.935,10.214,4.479-1.726-2.3-5.983a9.374,9.374,0,0,0,2.99-10.968c-2.552-6.624-9.085-5.874-11.628-4.894C633.669,191.559,627.226,194.581,630.39,202.539Z" transform="translate(-629.531 -190.171)"/>
        <rect id="Rectangle_3730" data-name="Rectangle 3730" class="cls-1" width="4.872" height="4.55" transform="matrix(0.933, -0.359, 0.359, 0.933, 13.345, 26.319)"/>
      </g>
      <g id="Group_25174" data-name="Group 25174" transform="translate(216.555 100.862)">
        <path id="Path_38763" data-name="Path 38763" class="cls-1" d="M1027.821,236.133l-3.21,1.236a2.924,2.924,0,0,1-1.745,3.823,2.784,2.784,0,0,1-3.154-.689,3.084,3.084,0,0,1-.773-2.688c.2-1.107,1.078-2.383,3.388-2.836l-2.789-7.238-3.174,1.223L1018,233.2a6.642,6.642,0,0,0-2.119,7.772c1.808,4.694,6.438,4.163,8.24,3.469C1025.5,243.914,1030.063,241.773,1027.821,236.133Z" transform="translate(-1014.592 -223.239)"/>
        <rect id="Rectangle_3731" data-name="Rectangle 3731" class="cls-1" width="3.452" height="3.224" transform="translate(4.381 3.009) rotate(158.931)"/>
      </g>
    </g>
    <g id="Floor" transform="translate(612.03 278.852)">
      <g id="Group_25175" data-name="Group 25175">
        <path id="Path_38764" data-name="Path 38764" class="cls-4" d="M860.741,463.658c0,.081-55.68.146-124.349.146-68.693,0-124.361-.066-124.361-.146s55.669-.147,124.361-.147C805.061,463.511,860.741,463.577,860.741,463.658Z" transform="translate(-612.03 -463.511)"/>
      </g>
    </g>
    <g id="Plant" transform="translate(626.086 181.085)">
      <g id="Group_25201" data-name="Group 25201" transform="translate(0)">
        <g id="Group_25178" data-name="Group 25178" transform="translate(0 41.647)">
          <g id="Group_25177" data-name="Group 25177">
            <g id="Group_25176" data-name="Group 25176">
              <path id="Path_38765" data-name="Path 38765" class="cls-5" d="M658.645,405.518c.535-2.071-.824-4.151-2.347-5.654s-3.342-2.85-4.135-4.837c-1.283-3.219.442-7.388-1.748-10.074-1.288-1.58-3.6-2.109-4.742-3.8a8.643,8.643,0,0,1-1.03-3.017,30.644,30.644,0,0,0-7.621-14.26,26.6,26.6,0,0,0,2.99,13.743c.887,1.689,1.976,3.335,2.27,5.22.477,3.061-1.231,6.214-.479,9.219.86,3.437,4.72,5.737,4.9,9.275.155,2.991-2.452,5.616-2.258,8.605a8.073,8.073,0,0,0,1.331,3.547c2.313,3.844,5.709,6.493,10.859,6.407l6.307.221Z" transform="translate(-636.984 -363.879)"/>
            </g>
          </g>
        </g>
        <g id="Group_25200" data-name="Group 25200" transform="translate(5.565)">
          <g id="Group_25191" data-name="Group 25191" transform="translate(18.479 19.981)">
            <g id="Group_25186" data-name="Group 25186">
              <g id="Group_25185" data-name="Group 25185">
                <g id="Group_25184" data-name="Group 25184">
                  <g id="Group_25183" data-name="Group 25183">
                    <path id="Path_38767" data-name="Path 38767" class="cls-5" d="M682.866,403.483a5.039,5.039,0,0,0,1.737-.038,10.508,10.508,0,0,0,2.049-.516,8.68,8.68,0,0,0,2.531-1.386,3.528,3.528,0,0,0,1.041-1.387,6.527,6.527,0,0,0,.3-1.885,18.307,18.307,0,0,1,.147-2.04,5.642,5.642,0,0,1,.771-2.028c.744-1.306,1.979-2.543,2.378-4.317a14.285,14.285,0,0,0-.171-5.529,11.731,11.731,0,0,1,.147-5.925c.676-1.973,2.06-3.754,2.752-5.977.688-2.246.367-4.662.513-7.044a9.345,9.345,0,0,1,.822-3.5c.51-1.116,1.218-2.169,1.77-3.345,1.12-2.376,1.317-5.069,1.623-7.708q.225-1.995.453-4.03a19.715,19.715,0,0,1,.7-4.034,35.63,35.63,0,0,1,1.508-3.9,12.887,12.887,0,0,0,.732-2.039,20.465,20.465,0,0,0,.2-2.169,25.545,25.545,0,0,0-.168-4.366c-.171-1.456-.434-2.9-.59-4.357l-.028-.252-.033-.291-.259.13a9.74,9.74,0,0,0-3.395,2.865,15.453,15.453,0,0,0-2.086,3.844,47.346,47.346,0,0,0-1.964,8.259,22.428,22.428,0,0,1-2.592,7.628c-.691,1.123-1.528,2.149-2.259,3.245a8.921,8.921,0,0,0-1.565,3.595c-.373,2.668,1.1,5.012.791,7.374a8.185,8.185,0,0,1-1.151,3.274c-.573,1.008-1.246,1.942-1.885,2.881a18.591,18.591,0,0,0-1.693,2.91,9.219,9.219,0,0,0-.774,3.162c-.154,2.127.148,4.145-.008,6.05a13.921,13.921,0,0,1-1.556,5.184c-.763,1.552-1.612,2.955-2.322,4.316a22.066,22.066,0,0,0-.956,2.01,9.9,9.9,0,0,0-.554,1.994,12.575,12.575,0,0,0-.046,3.6,9.073,9.073,0,0,0,1.8,4.591,4.406,4.406,0,0,0,.51.553,2.535,2.535,0,0,0,.414.351c.235.173.361.253.361.253a7.981,7.981,0,0,1-1.222-1.208,9.133,9.133,0,0,1-1.712-4.56,12.522,12.522,0,0,1,.081-3.548,9.744,9.744,0,0,1,.558-1.947,21.912,21.912,0,0,1,.962-1.983c.717-1.349,1.574-2.747,2.353-4.308a14.161,14.161,0,0,0,1.611-5.275c.166-1.946-.127-3.971.033-6.047a8.91,8.91,0,0,1,.76-3.056,18.242,18.242,0,0,1,1.674-2.852c.638-.933,1.319-1.871,1.908-2.9a8.515,8.515,0,0,0,1.2-3.407c.3-2.517-1.155-4.876-.776-7.356a8.558,8.558,0,0,1,1.512-3.438c.72-1.075,1.561-2.1,2.273-3.254a22.8,22.8,0,0,0,2.652-7.755,47.133,47.133,0,0,1,1.951-8.191,15.069,15.069,0,0,1,2.031-3.744,9.34,9.34,0,0,1,3.252-2.747l-.291-.161c.009.08.019.167.029.254.158,1.476.422,2.922.591,4.361a25.169,25.169,0,0,1,.167,4.3,20.485,20.485,0,0,1-.194,2.1,12.643,12.643,0,0,1-.708,1.966,35.913,35.913,0,0,0-1.52,3.946,20.065,20.065,0,0,0-.71,4.1q-.226,2.036-.447,4.033c-.3,2.651-.5,5.3-1.577,7.594-.533,1.142-1.24,2.2-1.765,3.351a9.714,9.714,0,0,0-.846,3.631c-.137,2.434.179,4.813-.479,6.969s-2.03,3.936-2.725,5.971a12,12,0,0,0-.135,6.072,14.094,14.094,0,0,1,.2,5.424c-.365,1.694-1.564,2.919-2.322,4.263a5.832,5.832,0,0,0-.782,2.109,18.2,18.2,0,0,0-.132,2.065,6.4,6.4,0,0,1-.269,1.833,3.383,3.383,0,0,1-.978,1.328,8.677,8.677,0,0,1-2.471,1.394,10.887,10.887,0,0,1-2.021.548,8.091,8.091,0,0,1-1.283.124C683.017,403.478,682.866,403.483,682.866,403.483Z" transform="translate(-679.669 -325.415)"/>
                  </g>
                </g>
              </g>
            </g>
            <g id="Group_25190" data-name="Group 25190" transform="translate(3.195 3.764)">
              <g id="Group_25189" data-name="Group 25189">
                <g id="Group_25188" data-name="Group 25188">
                  <g id="Group_25187" data-name="Group 25187">
                    <path id="Path_38768" data-name="Path 38768" class="cls-5" d="M705.272,332.1a.727.727,0,0,0-.061.19l-.139.568c-.124.5-.272,1.247-.51,2.184s-.82,1.991-1.309,3.295c-.509,1.292-1.025,2.79-1.5,4.474s-.907,3.55-1.353,5.551a23.383,23.383,0,0,1-2.019,6.159c-.517,1.025-1.1,2.062-1.561,3.2a14.884,14.884,0,0,0-.908,3.62,73.064,73.064,0,0,1-1.36,7.63c-1.265,5.169-2.469,10.092-3.566,14.575L688,395.424l-1.981,8.022q-.329,1.387-.519,2.187l-.125.571a.725.725,0,0,0-.029.2.759.759,0,0,0,.069-.188l.164-.562.593-2.167,2.106-7.991c.878-3.387,1.918-7.405,3.073-11.864,1.107-4.484,2.323-9.408,3.6-14.578a72.172,72.172,0,0,0,1.357-7.662,14.557,14.557,0,0,1,.874-3.532c.446-1.105,1.019-2.137,1.536-3.172a23.53,23.53,0,0,0,2.014-6.255c.431-2.006.84-3.869,1.3-5.547s.949-3.175,1.435-4.469c.464-1.3,1.018-2.369,1.25-3.334s.339-1.7.438-2.209c.04-.233.073-.423.1-.576A.735.735,0,0,0,705.272,332.1Z" transform="translate(-685.341 -332.097)"/>
                  </g>
                </g>
              </g>
            </g>
          </g>
          <g id="Group_25199" data-name="Group 25199">
            <g id="Group_25194" data-name="Group 25194">
              <g id="Group_25193" data-name="Group 25193">
                <g id="Group_25192" data-name="Group 25192">
                  <path id="Path_38769" data-name="Path 38769" class="cls-6" d="M669.652,388.011c4.12-2.449,5.3-9.882,3.584-14.356s-4.727-8.561-5.19-13.332c-.357-3.667.844-7.43-.01-11.014-1.152-4.837-5.874-8.583-5.82-13.555.03-2.79,1.618-5.415,1.491-8.2-.155-3.418-2.779-6.131-4.4-9.142-2.487-4.609-2.651-10.058-3.5-15.226s-2.82-10.7-7.4-13.243c-.676,4.388-1.831,7.393-1.469,13.337.131,2.135,2.61,6.221,2.948,10.9.2,2.8.341,5.6.512,8.4a26.936,26.936,0,0,0,1.319,8.044c.748,1.952,1.95,3.725,2.5,5.741,1.045,3.792-.328,7.9.516,11.741.715,3.255,2.967,6.056,3.428,9.357.647,4.637-2.355,9.455-.818,13.879.763,2.2,2.568,3.958,3.081,6.224.4,1.759-.036,3.62.324,5.387.58,2.846,6.008,5.056,8.908,4.881" transform="translate(-646.864 -289.942)"/>
                </g>
              </g>
            </g>
            <g id="Group_25198" data-name="Group 25198" transform="translate(2.67 4.356)">
              <g id="Group_25197" data-name="Group 25197">
                <g id="Group_25196" data-name="Group 25196">
                  <g id="Group_25195" data-name="Group 25195">
                    <path id="Path_38770" data-name="Path 38770" class="cls-7" d="M651.607,297.675a1.136,1.136,0,0,0,.018.247c.024.185.055.422.093.722.095.634.2,1.564.414,2.767.23,1.21.854,2.572,1.352,4.214.526,1.637,1.049,3.526,1.511,5.641s.864,4.453,1.276,6.971a29.208,29.208,0,0,0,2.112,7.882c.578,1.317,1.226,2.635,1.713,4.039a18.14,18.14,0,0,1,.869,4.452,89.952,89.952,0,0,0,1.208,9.6l3.558,18.33c1.153,5.614,2.192,10.672,3.066,14.93l2.1,10.058.591,2.731c.068.293.122.527.164.708a.125.125,0,1,0,.041-.008c-.031-.183-.073-.419-.124-.716-.123-.655-.3-1.574-.517-2.746-.471-2.408-1.145-5.846-1.975-10.084-.85-4.263-1.86-9.326-2.981-14.947l-3.524-18.324a91.016,91.016,0,0,1-1.212-9.566,18.465,18.465,0,0,0-.9-4.541c-.5-1.435-1.159-2.758-1.737-4.064a29.1,29.1,0,0,1-2.122-7.788c-.427-2.513-.838-4.859-1.328-6.977s-1.027-4.012-1.575-5.649c-.524-1.648-1.166-3-1.413-4.178s-.368-2.121-.488-2.746c-.055-.3-.1-.532-.132-.715A1.129,1.129,0,0,0,651.607,297.675Z" transform="translate(-651.604 -297.675)"/>
                  </g>
                </g>
              </g>
            </g>
          </g>
        </g>
      </g>
    </g>
    <g id="Speech_Bubble" data-name="Speech Bubble" transform="translate(812.288 48.23)">
      <g id="Group_25209" data-name="Group 25209">
        <g id="Group_25202" data-name="Group 25202" transform="translate(12.286 9.354)">
          <path id="Path_38771" data-name="Path 38771" class="cls-5" d="M997.764,83.311h-2.242a1.906,1.906,0,0,1-1.956,1.917,1.815,1.815,0,0,1-1.757-1.158,2.01,2.01,0,0,1,.16-1.816,2.432,2.432,0,0,1,2.725-.931V76.267h-2.217v2.962a4.33,4.33,0,0,0-3.11,4.231,4.03,4.03,0,0,0,4.2,4.04A3.847,3.847,0,0,0,997.764,83.311Z" transform="translate(-989.366 -73.124)"/>
          <rect id="Rectangle_3732" data-name="Rectangle 3732" class="cls-5" width="2.25" height="2.102" transform="translate(5.333 2.102) rotate(180)"/>
        </g>
        <g id="Group_25208" data-name="Group 25208">
          <g id="Group_25207" data-name="Group 25207">
            <g id="Group_25206" data-name="Group 25206">
              <g id="Group_25205" data-name="Group 25205">
                <g id="Group_25204" data-name="Group 25204">
                  <g id="Group_25203" data-name="Group 25203">
                    <path id="Path_38772" data-name="Path 38772" class="cls-6" d="M1000.519,70.622a1.627,1.627,0,0,0,0-.283c-.005-.206-.014-.482-.024-.834-.008-.183-.008-.389-.027-.615s-.067-.471-.1-.736-.079-.553-.123-.858q-.112-.451-.238-.959a15.525,15.525,0,0,0-2.027-4.649,16.4,16.4,0,0,0-12.329-7.534,16.934,16.934,0,0,0-2.248-.046c-.38.026-.767.019-1.15.074l-1.157.175a16.482,16.482,0,0,0-4.574,1.562,17.6,17.6,0,0,0-4.111,2.988,17.258,17.258,0,0,0-3.092,4.3,15.639,15.639,0,0,0-1.61,5.247,10.343,10.343,0,0,0-.119,1.4,12.617,12.617,0,0,0-.026,1.414,16.829,16.829,0,0,0,.358,2.834,16.574,16.574,0,0,0,2.374,5.641l-.017-.171-2.306,5.746-.137.34.354-.1,6.142-1.689-.151-.029a16.489,16.489,0,0,0,7.019,3.066,14.937,14.937,0,0,0,3.6.224,11.548,11.548,0,0,0,1.727-.163l.84-.13c.277-.052.544-.136.813-.2a16.434,16.434,0,0,0,9.346-6.411,15.733,15.733,0,0,0,2.013-3.815l.307-.86q.108-.424.207-.816l.185-.746c.046-.239.07-.47.1-.687.054-.434.13-.816.146-1.15s.02-.611.028-.844c.005-.214.008-.384.012-.516a.865.865,0,0,0-.006-.175.791.791,0,0,0-.024.175c-.01.131-.024.3-.041.513q-.024.349-.056.839c-.026.332-.11.71-.173,1.14A16.34,16.34,0,0,1,988.1,86.353c-.265.063-.528.145-.8.194l-.826.124a11.363,11.363,0,0,1-1.7.152,14.645,14.645,0,0,1-3.526-.233,16.188,16.188,0,0,1-6.866-3.024l-.069-.052-.083.023-6.146,1.676.217.243q1.13-2.808,2.312-5.743l.036-.09-.053-.081a16.218,16.218,0,0,1-2.318-5.515,16.39,16.39,0,0,1-.35-2.77,12.3,12.3,0,0,1,.025-1.383,10.024,10.024,0,0,1,.115-1.368,15.3,15.3,0,0,1,1.569-5.131,16.946,16.946,0,0,1,3.017-4.216,17.3,17.3,0,0,1,4.017-2.934,16.2,16.2,0,0,1,4.476-1.545l1.134-.175c.376-.056.755-.05,1.128-.077A16.2,16.2,0,0,1,997.807,61.8a15.628,15.628,0,0,1,2.062,4.573q.133.5.252.947l.14.849q.065.393.12.728c.025.224.03.428.045.61.025.35.046.625.06.83A1.53,1.53,0,0,0,1000.519,70.622Z" transform="translate(-967.554 -54.081)"/>
                  </g>
                </g>
              </g>
            </g>
          </g>
        </g>
      </g>
    </g>
    <g id="Question_Mark" data-name="Question Mark" transform="translate(663.798 70.214)">
      <g id="Group_25218" data-name="Group 25218" transform="translate(0 0)">
        <g id="Group_25212" data-name="Group 25212">
          <g id="Group_25210" data-name="Group 25210" transform="translate(13.474)">
            <path id="Path_38773" data-name="Path 38773" class="cls-5" d="M727.863,154.1h32.531s0-27.314,28.385-27.8c14.742-.253,22.385,9.4,25.491,16.8a29.148,29.148,0,0,1-2.317,26.348c-5.517,9.1-17.4,18.238-39.325,14.375l-.207,72.476h32.166V213.33S849.7,201.667,849.7,151.95c0-47.569-38.468-57.846-59.141-58.506-11.5-.367-15.675-.862-29.9,1.158C742.526,97.177,727.48,118.23,727.863,154.1Z" transform="translate(-727.856 -93.11)"/>
            <rect id="Rectangle_3733" data-name="Rectangle 3733" class="cls-5" width="32.645" height="30.489" transform="translate(44.475 178.295)"/>
            <rect id="Rectangle_3734" data-name="Rectangle 3734" class="cls-8" width="32.645" height="30.489" transform="translate(44.475 178.295)"/>
            <path id="Path_38774" data-name="Path 38774" class="cls-8" d="M727.863,154.1h32.531s0-27.314,28.385-27.8c14.742-.253,22.385,9.4,25.491,16.8a29.148,29.148,0,0,1-2.317,26.348c-5.517,9.1-17.4,18.238-39.325,14.375l-.207,72.476h32.166V213.33S849.7,201.667,849.7,151.95c0-47.569-38.468-57.846-59.141-58.506-11.5-.367-15.675-.862-29.9,1.158C742.526,97.177,727.48,118.23,727.863,154.1Z" transform="translate(-727.856 -93.11)"/>
          </g>
          <g id="Group_25211" data-name="Group 25211" transform="translate(0 0.223)">
            <path id="Path_38775" data-name="Path 38775" class="cls-9" d="M703.941,154.271h32.531s0-27.314,28.385-27.8c14.742-.253,22.385,9.4,25.49,16.8a29.148,29.148,0,0,1-2.317,26.348c-5.517,9.1-17.609,17.366-39.532,13.5v73.348h32.166V213.5s45.114-11.662,45.114-61.379c0-47.569-42.659-58.618-60.919-58.617C750.9,93.506,703.328,96.882,703.941,154.271Z" transform="translate(-703.936 -93.506)"/>
            <path id="Path_38776" data-name="Path 38776" class="cls-10" d="M703.941,154.271h32.531s0-27.314,28.385-27.8c14.742-.253,22.385,9.4,25.49,16.8a29.148,29.148,0,0,1-2.317,26.348c-5.517,9.1-17.609,17.366-39.532,13.5v73.348h32.166V213.5s45.114-11.662,45.114-61.379c0-47.569-42.659-58.618-60.919-58.617C750.9,93.506,703.328,96.882,703.941,154.271Z" transform="translate(-703.936 -93.506)"/>
            <rect id="Rectangle_3735" data-name="Rectangle 3735" class="cls-9" width="32.645" height="30.489" transform="translate(44.474 178.072)"/>
            <rect id="Rectangle_3736" data-name="Rectangle 3736" class="cls-10" width="32.645" height="30.489" transform="translate(44.474 178.072)"/>
          </g>
        </g>
        <g id="Group_25213" data-name="Group 25213" transform="translate(32.343 33.005)">
          <path id="Path_38777" data-name="Path 38777" class="cls-4" d="M793.608,152.037a3.021,3.021,0,0,1-.487-.03c-.319-.016-.781-.105-1.386-.112a28.345,28.345,0,0,0-5.1.211,36.551,36.551,0,0,0-7.364,1.732,31.434,31.434,0,0,0-4.1,1.765,21.811,21.811,0,0,0-4.012,2.6,19.9,19.9,0,0,0-3.284,3.469,32.067,32.067,0,0,0-5.375,10.705,28.177,28.177,0,0,0-.978,5.01c-.069.6-.087,1.069-.1,1.387a.244.244,0,1,1-.059,0c0-.319,0-.791.049-1.4a26.13,26.13,0,0,1,.893-5.056,32.327,32.327,0,0,1,2.877-7.052,32.978,32.978,0,0,1,2.469-3.772,19.988,19.988,0,0,1,3.326-3.522,21.86,21.86,0,0,1,4.067-2.627,31.065,31.065,0,0,1,4.146-1.765,35.6,35.6,0,0,1,7.427-1.683,26.317,26.317,0,0,1,5.133-.119c.607.025,1.07.133,1.387.168A3.028,3.028,0,0,1,793.608,152.037Z" transform="translate(-761.354 -151.705)"/>
        </g>
        <g id="Group_25214" data-name="Group 25214" transform="translate(58.69 0.234)">
          <path id="Path_38778" data-name="Path 38778" class="cls-4" d="M863.05,120.82a.662.662,0,0,1-.106-.128l-.285-.391-1.07-1.52c-.235-.328-.479-.7-.775-1.1l-1.016-1.232-1.165-1.417c-.424-.492-.918-.971-1.41-1.5s-1.007-1.08-1.578-1.62l-1.819-1.644c-.317-.281-.627-.581-.965-.86l-1.048-.825c-.715-.551-1.425-1.151-2.2-1.706a70.42,70.42,0,0,0-10.659-6.3l-2.968-1.342L833.038,98.1c-.959-.4-1.939-.68-2.886-.994-.953-.3-1.87-.638-2.8-.855l-2.694-.707c-.872-.232-1.74-.368-2.568-.549-.833-.155-1.628-.363-2.409-.46l-2.24-.324c-1.423-.244-2.73-.293-3.87-.408-.571-.044-1.1-.106-1.592-.128l-1.342-.036-1.858-.06-.484-.023a.683.683,0,0,1-.164-.018.689.689,0,0,1,.164-.012l.483-.006,1.862,0,1.346.011c.491.015,1.023.068,1.6.1,1.143.1,2.455.134,3.884.365l2.25.306c.785.092,1.583.294,2.42.445.832.176,1.7.309,2.581.536l2.707.7c.933.215,1.855.555,2.813.849.952.311,1.936.593,2.9.99L836.1,98.98l2.981,1.347a69.169,69.169,0,0,1,10.692,6.341c.776.56,1.487,1.167,2.2,1.723l1.048.835c.337.281.647.585.964.869l1.815,1.664c.57.546,1.069,1.119,1.572,1.64s.98,1.018,1.4,1.516l1.151,1.437,1,1.251c.29.4.529.78.756,1.114l1.027,1.553.261.407A.728.728,0,0,1,863.05,120.82Z" transform="translate(-808.13 -93.525)"/>
        </g>
        <g id="Group_25215" data-name="Group 25215" transform="translate(76.863 97.372)">
          <path id="Path_38779" data-name="Path 38779" class="cls-4" d="M873.75,265.978a2.244,2.244,0,0,1-.246.337l-.75.933c-.325.406-.731.9-1.228,1.443s-1.039,1.191-1.694,1.853-1.348,1.409-2.145,2.158c-.776.773-1.656,1.543-2.572,2.364a70.475,70.475,0,0,1-13.157,9.072c-1.094.564-2.127,1.113-3.125,1.564-.984.479-1.922.878-2.78,1.238-.851.376-1.645.657-2.334.924s-1.29.475-1.785.634l-1.139.37a2.25,2.25,0,0,1-.4.11,2.268,2.268,0,0,1,.385-.166l1.119-.421c.488-.175,1.084-.4,1.764-.68s1.469-.574,2.312-.961c.851-.371,1.78-.78,2.757-1.267.99-.458,2.015-1.013,3.1-1.582,2.149-1.18,4.464-2.567,6.8-4.166s4.443-3.283,6.309-4.872c.918-.813,1.8-1.573,2.581-2.335.8-.74,1.515-1.463,2.164-2.126s1.217-1.281,1.721-1.819.925-1.013,1.263-1.407l.791-.9A2.227,2.227,0,0,1,873.75,265.978Z" transform="translate(-840.392 -265.978)"/>
        </g>
        <g id="Group_25216" data-name="Group 25216" transform="translate(76.014 120.216)">
          <path id="Path_38780" data-name="Path 38780" class="cls-4" d="M839.033,346.948c-.081,0-.147-9.048-.147-20.206s.066-20.208.147-20.208.146,9.046.146,20.208S839.114,346.948,839.033,346.948Z" transform="translate(-838.886 -306.534)"/>
        </g>
        <g id="Group_25217" data-name="Group 25217" transform="translate(77.255 178.357)">
          <path id="Path_38781" data-name="Path 38781" class="cls-4" d="M841.236,438.112c-.081,0-.147-6.349-.147-14.179s.066-14.181.147-14.181.146,6.348.146,14.181S841.317,438.112,841.236,438.112Z" transform="translate(-841.089 -409.752)"/>
        </g>
      </g>
    </g>
    <g id="Character" transform="translate(770.612 58.312)">
      <g id="Group_25433" data-name="Group 25433">
        <g id="Group_25235" data-name="Group 25235" transform="translate(0 36.059)">
          <path id="Path_38782" data-name="Path 38782" class="cls-11" d="M898.127,189.119c-.568,1.134,1.537,2.049,2.751,2.416a15.357,15.357,0,0,0,8.655-.821,7.75,7.75,0,0,0,2.94-3.3,23.1,23.1,0,0,0,1.493-4.218S900.657,184.069,898.127,189.119Z" transform="translate(-895.515 -156.61)"/>
          <g id="Group_25219" data-name="Group 25219" class="cls-12" transform="translate(2.516 26.588)">
            <path id="Path_38783" data-name="Path 38783" d="M898.127,189.119c-.568,1.134,1.537,2.049,2.751,2.416a15.357,15.357,0,0,0,8.655-.821,7.75,7.75,0,0,0,2.94-3.3,23.1,23.1,0,0,0,1.493-4.218S900.657,184.069,898.127,189.119Z" transform="translate(-898.032 -183.198)"/>
          </g>
          <g id="Group_25221" data-name="Group 25221" transform="translate(39.339 24.989)">
            <path id="Path_38784" data-name="Path 38784" class="cls-11" d="M964.272,184.272a12.763,12.763,0,0,0,7.512,2.358,5.327,5.327,0,0,0,3.577-1.125c.434-.4.758-.9,1.205-1.287.3-.259.659-.456.944-.735a1.206,1.206,0,0,0,.415-1.069,2.224,2.224,0,0,0-.778-1.244,9.736,9.736,0,0,0-5.109-.8,17.522,17.522,0,0,0-5.154,1.011,5.868,5.868,0,0,0-3.48,2.366" transform="translate(-963.404 -180.36)"/>
            <g id="Group_25220" data-name="Group 25220" class="cls-12" transform="translate(0 0.008)">
              <path id="Path_38785" data-name="Path 38785" d="M977.926,182.421a2.359,2.359,0,0,0-1-1.132,9,9,0,0,0-4.888-.908,17.525,17.525,0,0,0-5.154,1.011,5.868,5.868,0,0,0-3.48,2.366l.868.52a12.763,12.763,0,0,0,7.512,2.358,5.327,5.327,0,0,0,3.577-1.125c.434-.4.758-.9,1.205-1.287.3-.259.659-.456.944-.735A1.207,1.207,0,0,0,977.926,182.421Z" transform="translate(-963.404 -180.374)"/>
            </g>
          </g>
          <path id="Path_38786" data-name="Path 38786" class="cls-13" d="M907.792,185.118l28.08.368a.361.361,0,0,0,.348-.471l-3.293-10.275s.485-5.134,1.156-11.312c1.018-9.375,2.373-21.164,2.39-21.132-1.918-5.382-13.25-6.3-13.25-6.3l-12.917.768-.455-.758-3.717,1.728a17.209,17.209,0,0,0-2.331,1.315c-2.453,1.644-8.371,5.407-9.45,9.608-2.494,9.712,1.73,20.556,1.73,20.556l2.711-2.12a19.032,19.032,0,0,1,2.152-1.438l5.441,14.58a2.571,2.571,0,0,0-1.18,1.872,2.9,2.9,0,0,0,2.584,3.01" transform="translate(-893.565 -135.996)"/>
          <g id="Group_25222" data-name="Group 25222" class="cls-14" transform="translate(22.601 17.375)">
            <path id="Path_38787" data-name="Path 38787" d="M937.352,181.4c.891-4.786.42-9.709-.054-14.554-1.559,3.964-1.5,8.432-3.152,12.359a5.288,5.288,0,0,0-.439,1.3,1.452,1.452,0,0,0,.375,1.27c.448.41,1.117.189,1.72.117a6.572,6.572,0,0,0,1.55-.493" transform="translate(-933.689 -166.842)"/>
          </g>
          <g id="Group_25223" data-name="Group 25223" class="cls-12" transform="translate(15.543 39.448)">
            <path id="Path_38788" data-name="Path 38788" d="M921.537,209.593c2.267.786,4.651-.672,7.036-.931a17.742,17.742,0,0,1,4.719.444,35.276,35.276,0,0,0,9.576.235,3.665,3.665,0,0,0,1.409-.364,1.7,1.7,0,0,0,.737-1.4c-5.3-.544-10.606-.869-15.909-1.413a10,10,0,0,0-3.978.126,9.542,9.542,0,0,0-3.968,3" transform="translate(-921.159 -206.03)"/>
          </g>
          <path id="Path_38789" data-name="Path 38789" class="cls-13" d="M974.846,165.637c-2.3-5.161-10.378-19.447-10.378-19.447l-6.26,7.849,1.461,15.406s3.305-3.69,12.548-3.764a4.529,4.529,0,0,1,3.44,1.811Z" transform="translate(-921.796 -140.448)"/>
          <g id="Group_25224" data-name="Group 25224" transform="translate(13.633 15.648)">
            <path id="Path_38790" data-name="Path 38790" class="cls-4" d="M919.6,170.59a21.412,21.412,0,0,1-1.054-3.369,21.325,21.325,0,0,1-.772-3.446,42.427,42.427,0,0,1,1.826,6.814Z" transform="translate(-917.767 -163.776)"/>
          </g>
          <g id="Group_25225" data-name="Group 25225" transform="translate(35.937 12.545)">
            <path id="Path_38791" data-name="Path 38791" class="cls-4" d="M957.367,158.268a3.828,3.828,0,0,1,.579.492,15.861,15.861,0,0,1,1.395,1.533,14.792,14.792,0,0,1,2.989,6.117,11.441,11.441,0,0,1,.18,3.773c-.145,1.152-.366,2.166-.508,3.024s-.237,1.554-.282,2.037a5.025,5.025,0,0,1-.078.753,3.016,3.016,0,0,1-.035-.759,17.932,17.932,0,0,1,.19-2.063c.116-.865.316-1.888.444-3.024a11.606,11.606,0,0,0-.2-3.68,15.482,15.482,0,0,0-2.866-6.05C958.135,159.033,957.323,158.311,957.367,158.268Z" transform="translate(-957.365 -158.267)"/>
          </g>
          <g id="Group_25226" data-name="Group 25226" transform="translate(15.491 43.324)">
            <path id="Path_38792" data-name="Path 38792" class="cls-4" d="M935.781,217.48a2.637,2.637,0,0,1-.611.178,5.862,5.862,0,0,1-.733.142,9.872,9.872,0,0,1-.983.12,14.562,14.562,0,0,1-2.579-.015,15.318,15.318,0,0,1-6-1.864,14.519,14.519,0,0,1-2.134-1.449,9.715,9.715,0,0,1-.742-.655,5.975,5.975,0,0,1-.524-.532,2.622,2.622,0,0,1-.4-.493c.042-.041.647.636,1.8,1.517A16.2,16.2,0,0,0,925,215.8a16.189,16.189,0,0,0,5.9,1.833,16.194,16.194,0,0,0,2.538.076C934.888,217.638,935.769,217.423,935.781,217.48Z" transform="translate(-921.066 -212.91)"/>
          </g>
          <g id="Group_25227" data-name="Group 25227" transform="translate(37.095 44.681)">
            <path id="Path_38793" data-name="Path 38793" class="cls-4" d="M961.2,215.32a1.982,1.982,0,0,1,.216.822,5.064,5.064,0,0,1-.151,2.053,3.58,3.58,0,0,1-1.1,1.744,1.556,1.556,0,0,1-.743.423c-.025-.042.249-.214.6-.575a3.991,3.991,0,0,0,.964-1.677A10.94,10.94,0,0,0,961.2,215.32Z" transform="translate(-959.421 -215.32)"/>
          </g>
          <g id="Group_25228" data-name="Group 25228" transform="translate(36.139 46.665)">
            <path id="Path_38794" data-name="Path 38794" class="cls-4" d="M958.935,218.843a3.064,3.064,0,0,1-1.206,3.109c-.063-.061.464-.621.79-1.482S958.848,218.846,958.935,218.843Z" transform="translate(-957.724 -218.843)"/>
          </g>
          <g id="Group_25229" data-name="Group 25229" transform="translate(30.324 28.127)">
            <path id="Path_38795" data-name="Path 38795" class="cls-4" d="M949.4,185.935a148.509,148.509,0,0,0-1.987,2.9,5.228,5.228,0,0,1,1.987-2.9Z" transform="translate(-947.4 -185.93)"/>
          </g>
          <g id="Group_25230" data-name="Group 25230" transform="translate(3.672 10.939)">
            <path id="Path_38796" data-name="Path 38796" class="cls-4" d="M909.463,158.967a14.209,14.209,0,0,1-1.245-.825,16.046,16.046,0,0,0-6.652-2.483,14.2,14.2,0,0,1-1.481-.193,5.194,5.194,0,0,1,1.5-.014,13.471,13.471,0,0,1,6.747,2.519A5.211,5.211,0,0,1,909.463,158.967Z" transform="translate(-900.084 -155.416)"/>
          </g>
          <g id="Group_25231" data-name="Group 25231" transform="translate(37.685 5.552)">
            <path id="Path_38797" data-name="Path 38797" class="cls-4" d="M965.458,145.856a16.432,16.432,0,0,0-4.985,5.922,3.478,3.478,0,0,1,.393-1.093,11.164,11.164,0,0,1,3.583-4.256A3.482,3.482,0,0,1,965.458,145.856Z" transform="translate(-960.468 -145.853)"/>
          </g>
          <g id="Group_25232" data-name="Group 25232" transform="translate(14.793 0.914)">
            <path id="Path_38798" data-name="Path 38798" class="cls-4" d="M936.113,137.618a1.071,1.071,0,0,1,.127.26,4.847,4.847,0,0,1,.263.79,6.681,6.681,0,0,1-.011,3.05,7.5,7.5,0,0,1-2.3,3.882,7.79,7.79,0,0,1-5.183,1.846,8.77,8.77,0,0,1-5.232-1.749,10.007,10.007,0,0,1-2.879-3.49,10.646,10.646,0,0,1-.959-2.9,7.893,7.893,0,0,1-.1-.824,1.081,1.081,0,0,1-.005-.29c.03,0,.064.393.219,1.091a11.534,11.534,0,0,0,1.031,2.826,10.025,10.025,0,0,0,2.856,3.368,8.6,8.6,0,0,0,5.073,1.672,7.592,7.592,0,0,0,5-1.756,7.4,7.4,0,0,0,2.274-3.727,6.921,6.921,0,0,0,.1-2.977C936.252,137.994,936.079,137.631,936.113,137.618Z" transform="translate(-919.828 -137.618)"/>
          </g>
          <g id="Group_25233" data-name="Group 25233" class="cls-14" transform="translate(30.336 28.318)">
            <path id="Path_38799" data-name="Path 38799" d="M950.134,187.081c-.008-.282-.045-.613-.289-.754a.554.554,0,0,0-.51.008,1.434,1.434,0,0,0-.408.337,6.9,6.9,0,0,0-1.506,2.405l2.762-.238C950.165,188.257,950.152,187.664,950.134,187.081Z" transform="translate(-947.421 -186.269)"/>
          </g>
          <g id="Group_25234" data-name="Group 25234" class="cls-14" transform="translate(40.214 19.043)">
            <path id="Path_38800" data-name="Path 38800" d="M966.958,174.082a9.043,9.043,0,0,0-2-4.279,14.118,14.118,0,0,1,.122,8.767l.144-.373C965.991,176.637,967.17,175.661,966.958,174.082Z" transform="translate(-964.957 -169.803)"/>
          </g>
        </g>
        <g id="Group_25255" data-name="Group 25255" transform="translate(22.301 189.189)">
          <g id="Group_25236" data-name="Group 25236">
            <path id="Path_38801" data-name="Path 38801" class="cls-15" d="M947.555,408.983l-1.685,25.265-10.984-.129-1.73-26.266Z" transform="translate(-933.157 -407.852)"/>
          </g>
          <g id="Group_25254" data-name="Group 25254" transform="translate(0.949 22.808)">
            <g id="Group_25253" data-name="Group 25253">
              <g id="Group_25238" data-name="Group 25238">
                <g id="Group_25237" data-name="Group 25237">
                  <path id="Path_38802" data-name="Path 38802" class="cls-11" d="M946.92,448.606l0,.731s12.381,4.983,12.512,7.333l-24.592-.144.382-8.182A14.067,14.067,0,0,0,946.92,448.606Z" transform="translate(-934.842 -448.344)"/>
                </g>
              </g>
              <g id="Group_25241" data-name="Group 25241" transform="translate(2.136 2.591)">
                <g id="Group_25240" data-name="Group 25240">
                  <g id="Group_25239" data-name="Group 25239">
                    <path id="Path_38803" data-name="Path 38803" class="cls-7" d="M939.355,452.984a1,1,0,0,0-.7,1.142.965.965,0,0,0,1.125.7,1.059,1.059,0,0,0,.736-1.213,1,1,0,0,0-1.252-.6" transform="translate(-938.634 -452.944)"/>
                  </g>
                </g>
              </g>
              <g id="Group_25243" data-name="Group 25243" transform="translate(0 6.214)">
                <g id="Group_25242" data-name="Group 25242">
                  <path id="Path_38804" data-name="Path 38804" class="cls-4" d="M934.842,461.344l.092-1.967,23.536.858s1.092.483.964,1.253Z" transform="translate(-934.842 -459.376)"/>
                </g>
              </g>
              <g id="Group_25246" data-name="Group 25246" transform="translate(9.917 0.949)">
                <g id="Group_25245" data-name="Group 25245">
                  <g id="Group_25244" data-name="Group 25244">
                    <path id="Path_38805" data-name="Path 38805" class="cls-4" d="M954.7,450.141c0,.12-.605.171-1.2.554-.6.367-.91.885-1.021.837-.11-.024.073-.741.8-1.191S954.724,450.031,954.7,450.141Z" transform="translate(-952.448 -450.028)"/>
                  </g>
                </g>
              </g>
              <g id="Group_25249" data-name="Group 25249" transform="translate(13.1 2.094)">
                <g id="Group_25248" data-name="Group 25248">
                  <g id="Group_25247" data-name="Group 25247">
                    <path id="Path_38806" data-name="Path 38806" class="cls-4" d="M959.738,452.112c.027.117-.495.318-.905.823-.426.493-.532,1.042-.651,1.036-.113.018-.192-.685.331-1.3S959.736,452,959.738,452.112Z" transform="translate(-958.098 -452.062)"/>
                  </g>
                </g>
              </g>
              <g id="Group_25252" data-name="Group 25252" transform="translate(16.045 3.173)">
                <g id="Group_25251" data-name="Group 25251">
                  <g id="Group_25250" data-name="Group 25250">
                    <path id="Path_38807" data-name="Path 38807" class="cls-4" d="M963.468,456.044c-.109.025-.273-.576.039-1.232s.875-.914.926-.814c.068.1-.3.45-.547.992S963.588,456.032,963.468,456.044Z" transform="translate(-963.327 -453.977)"/>
                  </g>
                </g>
              </g>
            </g>
          </g>
        </g>
        <g id="Group_25362" data-name="Group 25362" transform="translate(5.862)">
          <path id="Path_38808" data-name="Path 38808" class="cls-4" d="M936.006,77.542a3.991,3.991,0,0,0-1.506-4.5,6.538,6.538,0,0,0-4.88-.96,19.412,19.412,0,0,0-4.812,1.662,5.432,5.432,0,0,0-9.22,3.011,3.452,3.452,0,0,0-4.09,4.534l7.614,2.674,8.315,14.627a6.652,6.652,0,0,0,9.789-8.845,5.705,5.705,0,0,0,1.168-1.445,5.828,5.828,0,0,0,2.691-3.6A6.154,6.154,0,0,0,936.006,77.542Z" transform="translate(-907.171 -71.979)"/>
          <g id="Group_25356" data-name="Group 25356" transform="translate(0 3.964)">
            <g id="Group_25333" data-name="Group 25333" transform="translate(5.001)">
              <g id="Group_25332" data-name="Group 25332">
                <g id="Group_25330" data-name="Group 25330" transform="translate(0 1.445)">
                  <g id="Group_25329" data-name="Group 25329">
                    <g id="Group_25328" data-name="Group 25328">
                      <g id="Group_25327" data-name="Group 25327">
                        <g id="Group_25312" data-name="Group 25312">
                          <g id="Group_25311" data-name="Group 25311">
                            <g id="Group_25310" data-name="Group 25310">
                              <g id="Group_25262" data-name="Group 25262">
                                <g id="Group_25261" data-name="Group 25261">
                                  <g id="Group_25260" data-name="Group 25260">
                                    <g id="Group_25259" data-name="Group 25259">
                                      <g id="Group_25258" data-name="Group 25258">
                                        <g id="Group_25257" data-name="Group 25257">
                                          <g id="Group_25256" data-name="Group 25256">
                                            <path id="Path_38809" data-name="Path 38809" class="cls-15" d="M931.644,112.233c-.473-2.381-.8-4.012-.8-3.995,0,0,4.489-1.748,4.18-8.019a66.283,66.283,0,0,0-2.447-12.027c-.994-3.593-4.342-7.554-7.89-6.408l-10.727,5.239c-1.077.348-1.266,1.36-1.012,2.463l.017.538,4.174,17.269,1.763,7.718a6.52,6.52,0,0,0,7.278,4.946h0A6.521,6.521,0,0,0,931.644,112.233Z" transform="translate(-912.851 -81.583)"/>
                                          </g>
                                        </g>
                                      </g>
                                    </g>
                                  </g>
                                </g>
                              </g>
                              <g id="Group_25278" data-name="Group 25278" transform="translate(16.108 9.036)">
                                <g id="Group_25269" data-name="Group 25269" transform="translate(1.993 1.183)">
                                  <g id="Group_25268" data-name="Group 25268">
                                    <g id="Group_25267" data-name="Group 25267">
                                      <g id="Group_25266" data-name="Group 25266">
                                        <g id="Group_25265" data-name="Group 25265">
                                          <g id="Group_25264" data-name="Group 25264">
                                            <g id="Group_25263" data-name="Group 25263">
                                              <path id="Path_38810" data-name="Path 38810" class="cls-4" d="M946.543,100.287a.8.8,0,0,1-.586.942.76.76,0,0,1-.95-.533.8.8,0,0,1,.585-.943A.762.762,0,0,1,946.543,100.287Z" transform="translate(-944.986 -99.726)"/>
                                            </g>
                                          </g>
                                        </g>
                                      </g>
                                    </g>
                                  </g>
                                </g>
                                <g id="Group_25277" data-name="Group 25277">
                                  <g id="Group_25276" data-name="Group 25276">
                                    <g id="Group_25275" data-name="Group 25275">
                                      <g id="Group_25274" data-name="Group 25274">
                                        <g id="Group_25273" data-name="Group 25273">
                                          <g id="Group_25272" data-name="Group 25272">
                                            <g id="Group_25271" data-name="Group 25271">
                                              <g id="Group_25270" data-name="Group 25270">
                                                <path id="Path_38811" data-name="Path 38811" class="cls-4" d="M944.535,98.171c-.075.122-.756-.191-1.594-.013s-1.363.726-1.475.642c-.054-.036.006-.24.232-.491a2.184,2.184,0,0,1,1.155-.639,2.1,2.1,0,0,1,1.295.137C944.447,97.95,944.573,98.116,944.535,98.171Z" transform="translate(-941.448 -97.625)"/>
                                              </g>
                                            </g>
                                          </g>
                                        </g>
                                      </g>
                                    </g>
                                  </g>
                                </g>
                              </g>
                              <g id="Group_25294" data-name="Group 25294" transform="translate(8.009 11.022)">
                                <g id="Group_25285" data-name="Group 25285" transform="translate(1.941 1.066)">
                                  <g id="Group_25284" data-name="Group 25284">
                                    <g id="Group_25283" data-name="Group 25283">
                                      <g id="Group_25282" data-name="Group 25282">
                                        <g id="Group_25281" data-name="Group 25281">
                                          <g id="Group_25280" data-name="Group 25280">
                                            <g id="Group_25279" data-name="Group 25279">
                                              <path id="Path_38812" data-name="Path 38812" class="cls-4" d="M932.073,103.6a.8.8,0,0,1-.586.943.761.761,0,0,1-.95-.533.8.8,0,0,1,.585-.943A.761.761,0,0,1,932.073,103.6Z" transform="translate(-930.516 -103.043)"/>
                                            </g>
                                          </g>
                                        </g>
                                      </g>
                                    </g>
                                  </g>
                                </g>
                                <g id="Group_25293" data-name="Group 25293">
                                  <g id="Group_25292" data-name="Group 25292">
                                    <g id="Group_25291" data-name="Group 25291">
                                      <g id="Group_25290" data-name="Group 25290">
                                        <g id="Group_25289" data-name="Group 25289">
                                          <g id="Group_25288" data-name="Group 25288">
                                            <g id="Group_25287" data-name="Group 25287">
                                              <g id="Group_25286" data-name="Group 25286">
                                                <path id="Path_38813" data-name="Path 38813" class="cls-4" d="M930.157,101.7c-.075.122-.757-.19-1.594-.013s-1.363.726-1.475.642c-.054-.036,0-.239.233-.491a2.18,2.18,0,0,1,1.154-.64,2.1,2.1,0,0,1,1.295.137C930.069,101.475,930.2,101.641,930.157,101.7Z" transform="translate(-927.07 -101.15)"/>
                                              </g>
                                            </g>
                                          </g>
                                        </g>
                                      </g>
                                    </g>
                                  </g>
                                </g>
                              </g>
                              <g id="Group_25302" data-name="Group 25302" transform="translate(13.486 9.967)">
                                <g id="Group_25301" data-name="Group 25301">
                                  <g id="Group_25300" data-name="Group 25300">
                                    <g id="Group_25299" data-name="Group 25299">
                                      <g id="Group_25298" data-name="Group 25298">
                                        <g id="Group_25297" data-name="Group 25297">
                                          <g id="Group_25296" data-name="Group 25296">
                                            <g id="Group_25295" data-name="Group 25295">
                                              <path id="Path_38814" data-name="Path 38814" class="cls-4" d="M938.645,106.176a5.659,5.659,0,0,1,1.309-.531c.209-.067.4-.152.408-.305a1.113,1.113,0,0,0-.275-.6l-.974-1.5a28.686,28.686,0,0,1-2.314-3.962,28.576,28.576,0,0,1,2.628,3.766q.5.792.949,1.511a1.261,1.261,0,0,1,.287.816.549.549,0,0,1-.286.386,1.494,1.494,0,0,1-.353.127A5.59,5.59,0,0,1,938.645,106.176Z" transform="translate(-936.793 -99.278)"/>
                                            </g>
                                          </g>
                                        </g>
                                      </g>
                                    </g>
                                  </g>
                                </g>
                              </g>
                              <g id="Group_25309" data-name="Group 25309" transform="translate(9.414 26.192)">
                                <g id="Group_25308" data-name="Group 25308">
                                  <g id="Group_25307" data-name="Group 25307">
                                    <g id="Group_25306" data-name="Group 25306">
                                      <g id="Group_25305" data-name="Group 25305">
                                        <g id="Group_25304" data-name="Group 25304">
                                          <g id="Group_25303" data-name="Group 25303">
                                            <path id="Path_38815" data-name="Path 38815" class="cls-16" d="M938.145,128.545a15.773,15.773,0,0,1-8.582-.463s2.949,3.853,8.9,2.011Z" transform="translate(-929.563 -128.082)"/>
                                          </g>
                                        </g>
                                      </g>
                                    </g>
                                  </g>
                                </g>
                              </g>
                            </g>
                          </g>
                        </g>
                        <g id="Group_25319" data-name="Group 25319" transform="translate(7.423 9.91)">
                          <g id="Group_25318" data-name="Group 25318">
                            <g id="Group_25317" data-name="Group 25317">
                              <g id="Group_25316" data-name="Group 25316">
                                <g id="Group_25315" data-name="Group 25315">
                                  <g id="Group_25314" data-name="Group 25314">
                                    <g id="Group_25313" data-name="Group 25313">
                                      <path id="Path_38816" data-name="Path 38816" class="cls-4" d="M929.861,99.64c-.056.241-.917.235-1.9.477-.987.222-1.755.612-1.912.421-.071-.092.042-.326.34-.589a3.4,3.4,0,0,1,2.9-.684C929.678,99.367,929.884,99.526,929.861,99.64Z" transform="translate(-926.03 -99.176)"/>
                                    </g>
                                  </g>
                                </g>
                              </g>
                            </g>
                          </g>
                        </g>
                        <g id="Group_25326" data-name="Group 25326" transform="translate(15.468 6.348)">
                          <g id="Group_25325" data-name="Group 25325">
                            <g id="Group_25324" data-name="Group 25324">
                              <g id="Group_25323" data-name="Group 25323">
                                <g id="Group_25322" data-name="Group 25322">
                                  <g id="Group_25321" data-name="Group 25321">
                                    <g id="Group_25320" data-name="Group 25320">
                                      <path id="Path_38817" data-name="Path 38817" class="cls-4" d="M943.721,93.423c-.134.226-.859.172-1.681.336-.828.139-1.489.446-1.691.28-.09-.082-.021-.3.245-.539a2.7,2.7,0,0,1,1.3-.6,2.661,2.661,0,0,1,1.418.1C943.642,93.138,943.778,93.314,943.721,93.423Z" transform="translate(-940.312 -92.852)"/>
                                    </g>
                                  </g>
                                </g>
                              </g>
                            </g>
                          </g>
                        </g>
                      </g>
                    </g>
                  </g>
                </g>
                <g id="Group_25331" data-name="Group 25331" transform="translate(3.425)">
                  <path id="Path_38818" data-name="Path 38818" class="cls-4" d="M919.257,81.868a4.243,4.243,0,0,0,5.752,3.085c.892-.362,1.812-1.042,2.717-.714.953.345,1.252,1.61,2.135,2.1,1.263.707,2.784-.518,4.226-.4a5.737,5.737,0,0,1,2.85,1.659c.872.7,2.083,1.285,3.068.755a12.571,12.571,0,0,0-1-2.713,4.229,4.229,0,0,0-2.063-1.951,15.84,15.84,0,0,1-1.5-.5c-1.017-.523-1.472-1.7-2.214-2.575a4.65,4.65,0,0,0-3.945-1.581c-1.22.126-2.376.74-3.6.687-.906-.038-1.773-.441-2.679-.426-1.765.03-3.091,1.575-4.07,3.045" transform="translate(-918.931 -79.017)"/>
                </g>
              </g>
            </g>
            <path id="Path_38819" data-name="Path 38819" class="cls-4" d="M918.66,84.493c-.807-.06-2.466-.23-3.011-.805a4.753,4.753,0,0,0-4.53-1.486,3.923,3.923,0,0,0-2.828,3.753,5.638,5.638,0,0,0-4.111,4.039,6.534,6.534,0,0,0,1.407,5.917,11.717,11.717,0,0,1,.924,1.339,9.6,9.6,0,0,0-1,1.519c-1.286,2.85,2.207,3.941,2.207,3.941.01,1.916,1.775,1.907,2.908,1.9,1.089-.005,1.76,3.015,2.641,2.9l-.9-9.329a1.165,1.165,0,0,0,.413.075c2.135.038,1.578-4,.887-5.046a12.1,12.1,0,0,0,1.6-2.577,8.738,8.738,0,0,0,.083-4.319C916.1,86.2,919.014,84.518,918.66,84.493Z" transform="translate(-903.972 -80.352)"/>
            <g id="Group_25355" data-name="Group 25355" transform="translate(5.15 16.928)">
              <g id="Group_25343" data-name="Group 25343">
                <g id="Group_25342" data-name="Group 25342">
                  <g id="Group_25341" data-name="Group 25341">
                    <g id="Group_25340" data-name="Group 25340">
                      <g id="Group_25339" data-name="Group 25339">
                        <g id="Group_25338" data-name="Group 25338">
                          <g id="Group_25337" data-name="Group 25337">
                            <g id="Group_25336" data-name="Group 25336">
                              <g id="Group_25335" data-name="Group 25335">
                                <g id="Group_25334" data-name="Group 25334">
                                  <path id="Path_38820" data-name="Path 38820" class="cls-15" d="M916.681,110.462a1.808,1.808,0,0,0-2.9-.969,2.48,2.48,0,0,0-.522,2.655c.91,3.626,4.362,1.965,4.343,1.859C917.586,113.942,917.071,111.959,916.681,110.462Z" transform="translate(-913.115 -109.069)"/>
                                </g>
                              </g>
                            </g>
                          </g>
                        </g>
                      </g>
                    </g>
                  </g>
                </g>
              </g>
              <g id="Group_25354" data-name="Group 25354" transform="translate(1.004 1.128)">
                <g id="Group_25353" data-name="Group 25353">
                  <g id="Group_25352" data-name="Group 25352">
                    <g id="Group_25351" data-name="Group 25351">
                      <g id="Group_25350" data-name="Group 25350">
                        <g id="Group_25349" data-name="Group 25349">
                          <g id="Group_25348" data-name="Group 25348">
                            <g id="Group_25347" data-name="Group 25347">
                              <g id="Group_25346" data-name="Group 25346">
                                <g id="Group_25345" data-name="Group 25345">
                                  <g id="Group_25344" data-name="Group 25344">
                                    <path id="Path_38821" data-name="Path 38821" class="cls-16" d="M916.924,113.786c-.019-.007-.052.06-.146.136a.652.652,0,0,1-.47.128c-.418-.045-.893-.572-1.075-1.221a2.151,2.151,0,0,1-.05-.949.752.752,0,0,1,.354-.6.332.332,0,0,1,.416.079c.074.089.069.167.09.169s.063-.081,0-.223a.417.417,0,0,0-.2-.191.494.494,0,0,0-.373,0,.916.916,0,0,0-.519.728,2.213,2.213,0,0,0,.034,1.066c.207.724.752,1.315,1.314,1.334a.7.7,0,0,0,.554-.241C916.94,113.875,916.939,113.789,916.924,113.786Z" transform="translate(-914.899 -111.071)"/>
                                  </g>
                                </g>
                              </g>
                            </g>
                          </g>
                        </g>
                      </g>
                    </g>
                  </g>
                </g>
              </g>
            </g>
          </g>
          <g id="Group_25357" data-name="Group 25357" transform="translate(10.746 6.327)">
            <path id="Path_38822" data-name="Path 38822" class="cls-17" d="M940.47,94.1c-.023-.028.328-.253.791-.819a5.33,5.33,0,0,0,1.132-2.817,5.188,5.188,0,0,0-.2-2.089,4.482,4.482,0,0,0-1.288-2,5.294,5.294,0,0,0-5.178-1.008c-.17.055-.327.139-.487.206s-.3.171-.443.252l-.224.126,0-.248a1.83,1.83,0,0,0-.456-1.183,2.91,2.91,0,0,0-1.04-.744,3.84,3.84,0,0,0-2.418-.177c-1.555.353-2.873,1.063-4.119,1.207a3.984,3.984,0,0,1-2.81-.564,2.293,2.293,0,0,1-.551-.563.961.961,0,0,1-.125-.244,3.216,3.216,0,0,0,.738.717,3.967,3.967,0,0,0,2.72.456,9.766,9.766,0,0,0,1.891-.546,17.079,17.079,0,0,1,2.2-.72,4.876,4.876,0,0,1,1.273-.127,3.924,3.924,0,0,1,1.312.3,3.187,3.187,0,0,1,1.148.816,2.12,2.12,0,0,1,.528,1.373l-.226-.123c.153-.087.308-.184.472-.27.171-.071.339-.161.519-.219a5.534,5.534,0,0,1,5.458,1.083,4.7,4.7,0,0,1,1.339,2.13,5.33,5.33,0,0,1,.176,2.183,5.267,5.267,0,0,1-1.251,2.868,3.758,3.758,0,0,1-.628.582A1.144,1.144,0,0,1,940.47,94.1Z" transform="translate(-923.049 -83.212)"/>
          </g>
          <g id="Group_25358" data-name="Group 25358" transform="translate(11.193 2.358)">
            <path id="Path_38823" data-name="Path 38823" class="cls-17" d="M940.079,78.294a4.027,4.027,0,0,0-1.167-.4,3.074,3.074,0,0,0-1.387.126,2.735,2.735,0,0,0-1.427,1.038l-.138.2-.084-.225a4.238,4.238,0,0,0-3.436-2.552,5.471,5.471,0,0,0-3.3.955,14.641,14.641,0,0,1-2.618,1.355,4.118,4.118,0,0,1-1.982.233,2.5,2.5,0,0,1-.526-.144c-.114-.05-.172-.08-.168-.09.009-.026.251.075.708.121a4.3,4.3,0,0,0,1.9-.315A15.78,15.78,0,0,0,929,77.2a8.99,8.99,0,0,1,1.578-.771,4.3,4.3,0,0,1,1.892-.242,4.442,4.442,0,0,1,3.641,2.753l-.222-.026a2.916,2.916,0,0,1,1.575-1.093,3.113,3.113,0,0,1,1.472-.073,2.646,2.646,0,0,1,.883.337C940,78.206,940.086,78.285,940.079,78.294Z" transform="translate(-923.843 -76.166)"/>
          </g>
          <path id="Path_38824" data-name="Path 38824" class="cls-11" d="M937.892,114.251a1.227,1.227,0,0,0-.99-.287,1.449,1.449,0,0,0-.949.693l-.015.021c-.009.016-.023.03-.031.046l.013-.01a.7.7,0,0,0-.106.425,1.023,1.023,0,0,0,.589.762,1.294,1.294,0,0,0,1.476-.213A1.057,1.057,0,0,0,937.892,114.251Z" transform="translate(-917.877 -90.311)"/>
          <g id="Group_25359" data-name="Group 25359" transform="translate(17.75 24.172)">
            <path id="Path_38825" data-name="Path 38825" class="cls-4" d="M938.03,116.413c-.044.008-.1-.167-.248-.4a1.766,1.766,0,0,0-1.828-.832c-.277.042-.445.116-.468.078s.118-.175.417-.279a1.667,1.667,0,0,1,2.063.938C938.084,116.209,938.065,116.409,938.03,116.413Z" transform="translate(-935.484 -114.893)"/>
          </g>
          <g id="Group_25360" data-name="Group 25360" transform="translate(6.616 25.538)">
            <path id="Path_38826" data-name="Path 38826" class="cls-11" d="M917.9,118.168c.028-.017.162.282-.049.709a1.149,1.149,0,0,1-.6.543,1.165,1.165,0,0,1-1.529-.963,1.148,1.148,0,0,1,.23-.776c.294-.375.622-.384.618-.351.019.044-.247.128-.445.467a1.013,1.013,0,0,0-.133.631.939.939,0,0,0,1.17.737,1.012,1.012,0,0,0,.511-.393C917.892,118.447,917.853,118.17,917.9,118.168Z" transform="translate(-915.718 -117.318)"/>
          </g>
          <g id="Group_25361" data-name="Group 25361" transform="translate(5.614 25.121)">
            <path id="Path_38827" data-name="Path 38827" class="cls-11" d="M915.222,117.628c.032.015-.017.192-.262.311a.711.711,0,0,1-.468.046.75.75,0,0,1-.515-.953.711.711,0,0,1,.295-.367c.234-.14.41-.083.4-.049s-.138.073-.278.213a.535.535,0,0,0,.494.913C915.086,117.7,915.187,117.6,915.222,117.628Z" transform="translate(-913.939 -116.577)"/>
          </g>
        </g>
        <g id="Group_25371" data-name="Group 25371" transform="translate(6.366 29.152)">
          <path id="Path_38828" data-name="Path 38828" class="cls-15" d="M927.184,195.7s13.946.809,22.19.885c6.385.059,9.231-1.637,10.507-5.74,1.072-3.444-1.231-10.05-1.231-10.05a21.342,21.342,0,0,0-9.76,1.919l.74,3.02-22.485,1.939Z" transform="translate(-914.596 -148.653)"/>
          <g id="Group_25363" data-name="Group 25363" transform="translate(34.902 36.994)">
            <path id="Path_38829" data-name="Path 38829" class="cls-16" d="M971.649,192.718a8.132,8.132,0,0,0-4.819-3.286,1.988,1.988,0,0,1,.894.078,5.966,5.966,0,0,1,3.526,2.4A2,2,0,0,1,971.649,192.718Z" transform="translate(-966.83 -189.41)"/>
          </g>
          <g id="Group_25370" data-name="Group 25370">
            <path id="Path_38830" data-name="Path 38830" class="cls-15" d="M912.349,169.193h0a26.969,26.969,0,0,0-7.481,3.153l3.368,9.161a5.172,5.172,0,0,0,7.3,2.924c4.241-2.423,5.737-9.5,5.737-9.5l4.662-20.209-7.723-4.839-5.866,19.31" transform="translate(-904.867 -135.154)"/>
            <g id="Group_25369" data-name="Group 25369" transform="translate(6.166)">
              <path id="Path_38831" data-name="Path 38831" class="cls-15" d="M927.412,138.553l.312-6.646L926,125.175c-.1-.373-.143-.838.159-1.065a.819.819,0,0,1,1.041.033,65.453,65.453,0,0,1,2.724,6.4,34.523,34.523,0,0,1,4.027-2.154c.61-.1,1.37,1.739,1.418,1.884a10.692,10.692,0,0,1,.006,1.235s2.113.063,2.3.353a7.254,7.254,0,0,1,.244,1.793s.893.287,1.037.964.432,1.792.01,2.037-1.311.734-1.311.734-.358,3.448-.451,3.762a21.393,21.393,0,0,1-2.073,2.245Z" transform="translate(-920.23 -123.824)"/>
              <g id="Group_25364" data-name="Group 25364">
                <path id="Path_38832" data-name="Path 38832" class="cls-16" d="M915.813,173.149c.009-.019.21.12.647.262a4.407,4.407,0,0,0,1.991.158,5.554,5.554,0,0,0,2.883-1.329,13.364,13.364,0,0,0,2.68-3.393,15.286,15.286,0,0,0,1.044-2.327,23.844,23.844,0,0,0,.723-2.7c.442-1.9.918-3.942,1.425-6.114,1.017-4.345,2.153-9.2,3.377-14.435l.009-.039.029-.029c.387-.38.777-.772,1.163-1.174.192-.2.384-.406.568-.616a3.819,3.819,0,0,0,.255-.318c.067-.068.069-.2.095-.348.153-1.128.271-2.293.4-3.466l.008-.074.066-.037,1.074-.6c.082-.048.2-.108.253-.148a.312.312,0,0,0,.1-.189,1.8,1.8,0,0,0,.007-.584,8.779,8.779,0,0,0-.25-1.225,1.509,1.509,0,0,0-.9-.723l-.1-.036,0-.1c-.014-.326-.036-.662-.073-1-.019-.167-.041-.335-.075-.495a1.006,1.006,0,0,0-.065-.209c-.017-.037-.01-.009-.035-.033a.563.563,0,0,0-.095-.04,9.944,9.944,0,0,0-2.063-.233l-.147-.007,0-.145c.011-.348.025-.736.01-1.1a1.173,1.173,0,0,0-.131-.377c-.061-.136-.126-.27-.193-.4a4.834,4.834,0,0,0-.461-.744,1.244,1.244,0,0,0-.286-.281.274.274,0,0,0-.3-.034,7.3,7.3,0,0,0-.794.364c-1.052.547-2.073,1.145-3.074,1.739l-.147.087-.063-.158-1.577-3.949-.772-1.933a.8.8,0,0,0-.619-.58.627.627,0,0,0-.733.269.656.656,0,0,0-.086.4c.016.126.078.315.115.469q.128.488.255.971.254.966.5,1.914.5,1.9.977,3.719l.005.02v.02c-.112,2.313-.22,4.532-.322,6.646v.015l0,.015-5.131,16.7c-.621,2-1.11,3.564-1.448,4.648l-.389,1.219c-.09.275-.145.414-.145.414s.031-.146.109-.425l.355-1.229,1.385-4.667,5.032-16.728-.005.029c.1-2.113.2-4.333.3-6.647l0,.039-.985-3.716-.507-1.913-.257-.969c-.04-.172-.091-.3-.123-.511a.942.942,0,0,1,.122-.573.871.871,0,0,1,.456-.384,1.087,1.087,0,0,1,.582-.019,1.154,1.154,0,0,1,.516.263,1.139,1.139,0,0,1,.3.486l.774,1.932,1.581,3.949-.21-.071c1.007-.6,2.026-1.2,3.091-1.751a7.481,7.481,0,0,1,.836-.381.639.639,0,0,1,.283-.04.615.615,0,0,1,.268.106,1.531,1.531,0,0,1,.357.345,5.1,5.1,0,0,1,.492.792c.07.137.137.275.2.416a1.378,1.378,0,0,1,.157.478c.017.4,0,.774-.01,1.131l-.142-.152a9.933,9.933,0,0,1,2.151.25.806.806,0,0,1,.145.063.361.361,0,0,1,.145.147,1.24,1.24,0,0,1,.093.286c.038.178.06.351.079.524.038.345.06.683.074,1.018l-.1-.133a1.781,1.781,0,0,1,1.076.89,8.516,8.516,0,0,1,.27,1.3,2.047,2.047,0,0,1-.013.684.6.6,0,0,1-.2.348,2.987,2.987,0,0,1-.287.171l-1.079.6.074-.111c-.127,1.177-.246,2.336-.4,3.478l-.036.219a.562.562,0,0,1-.1.246,3.93,3.93,0,0,1-.278.346c-.189.216-.384.422-.578.625-.39.4-.781.8-1.172,1.179l.038-.068-3.419,14.425-1.453,6.106a23.843,23.843,0,0,1-.745,2.717,15.39,15.39,0,0,1-1.073,2.348,13.37,13.37,0,0,1-2.742,3.409,5.6,5.6,0,0,1-2.959,1.32,4.34,4.34,0,0,1-2.018-.2,2.977,2.977,0,0,1-.479-.217A.976.976,0,0,1,915.813,173.149Z" transform="translate(-915.813 -123.734)"/>
              </g>
              <g id="Group_25365" data-name="Group 25365" transform="translate(12.228 7.507)">
                <path id="Path_38833" data-name="Path 38833" class="cls-16" d="M940.439,137.223c0,.042-.191.063-.488.077a5.639,5.639,0,0,0-1.122.133,2.217,2.217,0,0,0-.956.511c-.206.192-.3.355-.337.337s-.011-.216.182-.475a1.893,1.893,0,0,1,1.037-.657,3.274,3.274,0,0,1,1.2-.056C940.26,137.132,940.441,137.184,940.439,137.223Z" transform="translate(-937.523 -137.062)"/>
              </g>
              <g id="Group_25366" data-name="Group 25366" transform="translate(13.432 7.052)">
                <path id="Path_38834" data-name="Path 38834" class="cls-16" d="M939.72,136.932c-.076-.029-.081-.2-.011-.389s.188-.314.264-.286.081.2.011.389S939.8,136.96,939.72,136.932Z" transform="translate(-939.659 -136.253)"/>
              </g>
              <g id="Group_25367" data-name="Group 25367" transform="translate(14.941 9.687)">
                <path id="Path_38835" data-name="Path 38835" class="cls-16" d="M945.181,141.02a5.287,5.287,0,0,1-1.672.232,1.142,1.142,0,0,0-.931.448c-.149.23-.1.421-.142.433-.027.026-.18-.19-.043-.527a.92.92,0,0,1,.4-.447,1.786,1.786,0,0,1,.678-.2A4.756,4.756,0,0,1,945.181,141.02Z" transform="translate(-942.338 -140.932)"/>
              </g>
              <g id="Group_25368" data-name="Group 25368" transform="translate(17.215 11.802)">
                <path id="Path_38836" data-name="Path 38836" class="cls-16" d="M946.568,144.687c.081,0,.128.42.1.93s-.107.92-.188.917-.128-.42-.1-.931S946.487,144.683,946.568,144.687Z" transform="translate(-946.375 -144.687)"/>
              </g>
            </g>
          </g>
        </g>
        <g id="Group_25373" data-name="Group 25373" transform="translate(32.282 52.886)">
          <path id="Path_38837" data-name="Path 38837" class="cls-7" d="M950.876,169.109l.5-1.727a.472.472,0,0,1,.79-.2l.653.667.408-1.624a.472.472,0,0,1,.883-.089l.922,1.923Z" transform="translate(-950.876 -165.869)"/>
          <g id="Group_25372" data-name="Group 25372" transform="translate(0.116 2.91)">
            <path id="Path_38838" data-name="Path 38838" class="cls-7" d="M955.132,171.056a14.894,14.894,0,0,1-4.049,1,14.893,14.893,0,0,1,4.049-1Z" transform="translate(-951.082 -171.036)"/>
          </g>
        </g>
        <g id="Group_25374" data-name="Group 25374" transform="translate(1.442 46.187)">
          <path id="Path_38839" data-name="Path 38839" class="cls-7" d="M897.634,153.977c.013.011-.21.216-.5.669a5.727,5.727,0,0,0-.764,2.127,15.373,15.373,0,0,0-.1,3.375c.062,1.275.165,2.675.321,4.14a72.507,72.507,0,0,0,1.189,7.447c.2.945.381,1.705.506,2.231l.145.6c.032.139.043.213.043.213s-.026-.07-.065-.207c-.048-.171-.1-.368-.167-.6-.139-.522-.331-1.28-.542-2.224a66.129,66.129,0,0,1-1.224-7.452c-.156-1.467-.256-2.87-.313-4.147a15.04,15.04,0,0,1,.128-3.394,5.592,5.592,0,0,1,.807-2.138A3.365,3.365,0,0,1,897.634,153.977Z" transform="translate(-896.124 -153.977)"/>
        </g>
        <g id="Group_25375" data-name="Group 25375" transform="translate(2.951 38.529)">
          <path id="Path_38840" data-name="Path 38840" class="cls-7" d="M910.658,140.382a.712.712,0,0,1-.127.069l-.372.177c-.323.154-.788.38-1.347.689a48.647,48.647,0,0,0-4.233,2.645c-1.608,1.106-3.034,2.151-4.075,2.895l-1.237.875-.34.233a.682.682,0,0,1-.123.074.664.664,0,0,1,.109-.094l.328-.25,1.215-.906c1.029-.761,2.447-1.817,4.058-2.925a42.31,42.31,0,0,1,4.26-2.621c.566-.3,1.038-.517,1.368-.658l.381-.157A.627.627,0,0,1,910.658,140.382Z" transform="translate(-898.804 -140.381)"/>
        </g>
        <g id="Group_25376" data-name="Group 25376" transform="translate(31.22 37.617)">
          <path id="Path_38841" data-name="Path 38841" class="cls-7" d="M959.438,143.338a.468.468,0,0,1-.095-.071l-.253-.22a10.067,10.067,0,0,0-.987-.736,20.04,20.04,0,0,0-3.621-1.832,36.783,36.783,0,0,0-3.861-1.285c-.5-.139-.911-.242-1.194-.311l-.326-.083a.446.446,0,0,1-.112-.037.451.451,0,0,1,.117.014l.331.061c.287.056.7.146,1.206.276a31.3,31.3,0,0,1,3.883,1.256,18.369,18.369,0,0,1,3.624,1.873A7.156,7.156,0,0,1,959.438,143.338Z" transform="translate(-948.99 -138.762)"/>
        </g>
        <g id="Group_25377" data-name="Group 25377" transform="translate(12.882 80.379)">
          <path id="Path_38842" data-name="Path 38842" class="cls-7" d="M918.517,219.489a.8.8,0,0,1-.22-.075,3.687,3.687,0,0,1-.559-.3,2.718,2.718,0,0,1-1.225-1.659,3.247,3.247,0,0,1,.218-2.062,2.845,2.845,0,0,1,.326-.545.781.781,0,0,1,.157-.171,6.581,6.581,0,0,0-.407.749,3.332,3.332,0,0,0-.18,2,2.739,2.739,0,0,0,1.157,1.617C918.217,219.347,918.526,219.469,918.517,219.489Z" transform="translate(-916.435 -214.679)"/>
        </g>
        <g id="Group_25378" data-name="Group 25378" transform="translate(13.164 79.091)">
          <path id="Path_38843" data-name="Path 38843" class="cls-7" d="M916.942,212.392a2.486,2.486,0,0,1,.268.707.379.379,0,1,1-.268-.707Z" transform="translate(-916.935 -212.392)"/>
        </g>
        <g id="Group_25432" data-name="Group 25432" transform="translate(6.797 85.181)">
          <g id="Group_25379" data-name="Group 25379">
            <path id="Path_38844" data-name="Path 38844" class="cls-4" d="M919.621,343.4l17.182-.086-.312-59.4-.16-60.423-23.271-.289-4.183,7.887a28.33,28.33,0,0,0-3.219,10.222c-.292,2.73,1.753,11.632,2.467,13.9l6.405,20.312Z" transform="translate(-905.631 -223.203)"/>
            <path id="Path_38845" data-name="Path 38845" class="cls-4" d="M955.368,223.808l18.879,51.467a23.741,23.741,0,0,1-2.327,20.108L950,338.167l-12.324-15.419,18.34-38.327-16.168-26.195,2.721-34.364,7.615-.123Z" transform="translate(-919.625 -223.438)"/>
          </g>
          <g id="Group_25380" data-name="Group 25380" transform="translate(29.128 17.613)">
            <path id="Path_38846" data-name="Path 38846" class="cls-17" d="M957.346,254.471s.014.09.026.264.028.444.049.776c.037.7.09,1.7.159,2.984.126,2.605.307,6.352.531,10.976s.468,10.156.75,16.28c.137,3.064.282,6.281.432,9.615.108,1.666.059,3.366.078,5.089s.011,3.473.016,5.242c.024,14.156.045,26.97.061,36.26-.006,4.63-.011,8.38-.015,10.988-.008,1.287-.015,2.291-.019,2.988,0,.331-.009.589-.012.777s-.014.265-.014.265-.01-.09-.016-.265l-.017-.777c-.008-.7-.02-1.7-.036-2.987-.018-2.608-.045-6.358-.078-10.987-.038-9.289-.089-22.1-.147-36.255q-.007-2.655-.014-5.241c-.019-1.723.031-3.422-.074-5.089-.144-3.333-.283-6.549-.415-9.613-.258-6.125-.491-11.642-.686-16.281s-.334-8.373-.437-10.979c-.045-1.286-.08-2.289-.1-2.986-.008-.331-.015-.589-.02-.777S957.346,254.471,957.346,254.471Z" transform="translate(-957.342 -254.471)"/>
          </g>
          <g id="Group_25381" data-name="Group 25381" transform="translate(28.688 1.386)">
            <path id="Path_38847" data-name="Path 38847" class="cls-17" d="M956.574,225.664a2.137,2.137,0,0,1,.119.559c.059.362.128.888.2,1.54.151,1.3.309,3.109.4,5.109s.1,3.814.062,5.125c-.016.656-.038,1.186-.064,1.552a2.139,2.139,0,0,1-.069.568,17.469,17.469,0,0,1-.075-2.12c-.021-1.309-.059-3.117-.148-5.111s-.215-3.8-.313-5.1A17.264,17.264,0,0,1,956.574,225.664Z" transform="translate(-956.561 -225.664)"/>
          </g>
          <g id="Group_25382" data-name="Group 25382" transform="translate(24.292 2.397)">
            <path id="Path_38848" data-name="Path 38848" class="cls-17" d="M949.38,227.607a1.381,1.381,0,0,0-.381.642.73.73,0,0,0,.219.687.75.75,0,0,0,1.28-.586.731.731,0,0,0-.378-.614,1.37,1.37,0,0,0-.735-.131c-.008-.015.054-.075.2-.117a.962.962,0,0,1,1.182.848,1.008,1.008,0,0,1-1.737.8.961.961,0,0,1,.131-1.449C949.289,227.6,949.374,227.591,949.38,227.607Z" transform="translate(-948.758 -227.459)"/>
          </g>
          <g id="Group_25383" data-name="Group 25383" transform="translate(6.881 1.525)">
            <path id="Path_38849" data-name="Path 38849" class="cls-17" d="M926.867,225.911a1.685,1.685,0,0,1,.154.539,5.358,5.358,0,0,1,.05,1.53,6.154,6.154,0,0,1-.651,2.183,5.776,5.776,0,0,1-4.4,3.16,6.176,6.176,0,0,1-2.276-.082,5.349,5.349,0,0,1-1.434-.537,1.676,1.676,0,0,1-.461-.319,9.708,9.708,0,0,0,1.937.652,5.913,5.913,0,0,0,7.08-5.082A9.765,9.765,0,0,0,926.867,225.911Z" transform="translate(-917.847 -225.911)"/>
          </g>
          <g id="Group_25384" data-name="Group 25384" transform="translate(33.435 1.477)">
            <path id="Path_38850" data-name="Path 38850" class="cls-17" d="M969.556,230.8a2.279,2.279,0,0,1-1.082-.128,5.028,5.028,0,0,1-3.415-3.762,2.278,2.278,0,0,1-.023-1.089c.052,0,.055.414.225,1.042a5.446,5.446,0,0,0,3.279,3.613C969.15,230.71,969.562,230.753,969.556,230.8Z" transform="translate(-964.989 -225.825)"/>
          </g>
          <g id="Group_25385" data-name="Group 25385" transform="translate(37.637 60.249)">
            <path id="Path_38851" data-name="Path 38851" class="cls-17" d="M979.524,331.859a3.544,3.544,0,0,1-1,.792,4.6,4.6,0,0,1-1.282.56,3.087,3.087,0,0,1-1.729-.046,5.032,5.032,0,0,1-2.407-1.915,4.462,4.462,0,0,1-.66-1.084,6.983,6.983,0,0,1,.823.956,5.338,5.338,0,0,0,2.333,1.764,3.611,3.611,0,0,0,2.819-.415A11.811,11.811,0,0,1,979.524,331.859Z" transform="translate(-972.449 -330.165)"/>
          </g>
          <g id="Group_25386" data-name="Group 25386" transform="translate(37.091 60.564)">
            <path id="Path_38852" data-name="Path 38852" class="cls-17" d="M974.8,335.39a27.931,27.931,0,0,1-3.317-4.665,28.07,28.07,0,0,1,3.317,4.665Z" transform="translate(-971.479 -330.724)"/>
          </g>
          <g id="Group_25387" data-name="Group 25387" transform="translate(10.893 18.051)">
            <path id="Path_38853" data-name="Path 38853" class="cls-18" d="M925.622,256.809c-.076.03-.275-.294-.448-.724s-.251-.8-.175-.834.276.294.448.724S925.7,256.779,925.622,256.809Z" transform="translate(-924.97 -255.249)"/>
          </g>
          <g id="Group_25388" data-name="Group 25388" transform="translate(22.305 19.922)">
            <path id="Path_38854" data-name="Path 38854" class="cls-18" d="M945.376,259.818c-.081,0-.147-.279-.147-.623s.066-.624.147-.624.146.279.146.624S945.457,259.818,945.376,259.818Z" transform="translate(-945.229 -258.571)"/>
          </g>
          <g id="Group_25389" data-name="Group 25389" transform="translate(17.761 25.532)">
            <path id="Path_38855" data-name="Path 38855" class="cls-18" d="M937.371,270.089c-.081.006-.17-.339-.2-.769s.013-.784.093-.789.17.339.2.769S937.452,270.084,937.371,270.089Z" transform="translate(-937.163 -268.531)"/>
          </g>
          <g id="Group_25390" data-name="Group 25390" transform="translate(8.635 30.588)">
            <path id="Path_38856" data-name="Path 38856" class="cls-18" d="M922.1,278.37c-.067.05-.3-.158-.6-.375s-.568-.377-.541-.456.373-.03.714.219S922.17,278.326,922.1,278.37Z" transform="translate(-920.961 -277.506)"/>
          </g>
          <g id="Group_25391" data-name="Group 25391" transform="translate(24.194 36.015)">
            <path id="Path_38857" data-name="Path 38857" class="cls-18" d="M948.607,288.084c-.068-.045.017-.291.189-.549s.366-.431.434-.386-.017.291-.19.549S948.674,288.129,948.607,288.084Z" transform="translate(-948.584 -287.142)"/>
          </g>
          <g id="Group_25392" data-name="Group 25392" transform="translate(15.138 36.438)">
            <path id="Path_38858" data-name="Path 38858" class="cls-18" d="M932.652,289.969c-.081,0-.147-.465-.147-1.039s.066-1.039.147-1.039.146.465.146,1.039S932.733,289.969,932.652,289.969Z" transform="translate(-932.505 -287.892)"/>
          </g>
          <g id="Group_25393" data-name="Group 25393" transform="translate(11.239 43.986)">
            <path id="Path_38859" data-name="Path 38859" class="cls-18" d="M926.734,302.14c-.047.066-.342-.067-.657-.3s-.533-.469-.486-.534.342.067.658.3S926.782,302.075,926.734,302.14Z" transform="translate(-925.584 -301.293)"/>
          </g>
          <g id="Group_25394" data-name="Group 25394" transform="translate(20.474 46.993)">
            <path id="Path_38860" data-name="Path 38860" class="cls-18" d="M942.918,306.671c.033.074-.15.227-.408.342s-.494.148-.527.074.15-.227.408-.342S942.885,306.6,942.918,306.671Z" transform="translate(-941.979 -306.631)"/>
          </g>
          <g id="Group_25395" data-name="Group 25395" transform="translate(14.229 55.236)">
            <path id="Path_38861" data-name="Path 38861" class="cls-18" d="M931.948,323.345c-.073.036-.364-.4-.651-.973s-.461-1.068-.388-1.1.363.4.651.973S932.02,323.309,931.948,323.345Z" transform="translate(-930.893 -321.265)"/>
          </g>
          <g id="Group_25396" data-name="Group 25396" transform="translate(25.237 54.82)">
            <path id="Path_38862" data-name="Path 38862" class="cls-18" d="M950.454,322.088c-.072-.038.056-.418.286-.848s.474-.748.545-.71-.057.417-.286.848S950.525,322.125,950.454,322.088Z" transform="translate(-950.434 -320.526)"/>
          </g>
          <g id="Group_25397" data-name="Group 25397" transform="translate(20.561 63.13)">
            <path id="Path_38863" data-name="Path 38863" class="cls-18" d="M942.466,337.256c-.083-.012-.077-.457-.163-.986s-.224-.95-.149-.988.349.361.439.942S942.542,337.272,942.466,337.256Z" transform="translate(-942.133 -335.28)"/>
          </g>
          <g id="Group_25398" data-name="Group 25398" transform="translate(15.169 68.941)">
            <path id="Path_38864" data-name="Path 38864" class="cls-18" d="M933.611,346.747c-.06.055-.341-.157-.628-.473s-.471-.615-.411-.67.341.157.628.473S933.671,346.693,933.611,346.747Z" transform="translate(-932.561 -345.596)"/>
          </g>
          <g id="Group_25399" data-name="Group 25399" transform="translate(27.554 70.824)">
            <path id="Path_38865" data-name="Path 38865" class="cls-18" d="M954.558,350.1c-.058-.056.149-.361.462-.678s.613-.529.671-.473-.149.36-.462.678S954.616,350.156,954.558,350.1Z" transform="translate(-954.549 -348.939)"/>
          </g>
          <g id="Group_25400" data-name="Group 25400" transform="translate(20.978 77.573)">
            <path id="Path_38866" data-name="Path 38866" class="cls-18" d="M942.935,362.794c-.08-.012-.081-.442,0-.959s.207-.927.287-.915.081.441,0,.959S943.015,362.807,942.935,362.794Z" transform="translate(-942.874 -360.921)"/>
          </g>
          <g id="Group_25401" data-name="Group 25401" transform="translate(15.784 81.619)">
            <path id="Path_38867" data-name="Path 38867" class="cls-18" d="M934.517,369.552c-.07.041-.316-.25-.55-.648s-.366-.756-.3-.8.316.25.55.649S934.586,369.512,934.517,369.552Z" transform="translate(-933.652 -368.103)"/>
          </g>
          <g id="Group_25402" data-name="Group 25402" transform="translate(25.767 87.626)">
            <path id="Path_38868" data-name="Path 38868" class="cls-18" d="M952.834,378.782c.047.066-.24.352-.642.639s-.764.467-.812.4.24-.352.641-.639S952.787,378.717,952.834,378.782Z" transform="translate(-951.376 -378.769)"/>
          </g>
          <g id="Group_25403" data-name="Group 25403" transform="translate(18.387 91.49)">
            <path id="Path_38869" data-name="Path 38869" class="cls-18" d="M938.3,387.71c-.079-.028.022-.482.069-1.043s.033-1.024.115-1.039.233.46.177,1.065S938.375,387.74,938.3,387.71Z" transform="translate(-938.273 -385.628)"/>
          </g>
          <g id="Group_25404" data-name="Group 25404" transform="translate(21.086 101.038)">
            <path id="Path_38870" data-name="Path 38870" class="cls-18" d="M943.911,403.625c-.064.051-.3-.141-.53-.428s-.364-.56-.3-.611.3.141.53.428S943.974,403.574,943.911,403.625Z" transform="translate(-943.064 -402.578)"/>
          </g>
          <g id="Group_25405" data-name="Group 25405" transform="translate(16.934 106.131)">
            <path id="Path_38871" data-name="Path 38871" class="cls-18" d="M936.849,413.287c-.067.046-.377-.289-.692-.748s-.517-.868-.451-.914.377.289.692.748S936.915,413.241,936.849,413.287Z" transform="translate(-935.694 -411.621)"/>
          </g>
          <g id="Group_25406" data-name="Group 25406" transform="translate(28.632 99.796)">
            <path id="Path_38872" data-name="Path 38872" class="cls-18" d="M956.514,401.208c-.076-.029-.068-.238.019-.467s.217-.393.293-.364.068.237-.019.467S956.59,401.236,956.514,401.208Z" transform="translate(-956.462 -400.374)"/>
          </g>
          <g id="Group_25407" data-name="Group 25407" transform="translate(23.989 112.368)">
            <path id="Path_38873" data-name="Path 38873" class="cls-18" d="M948.24,424.563c-.074-.039.067-.44.176-.942s.155-.924.239-.928.17.446.047.991S948.307,424.6,948.24,424.563Z" transform="translate(-948.219 -422.693)"/>
          </g>
          <g id="Group_25408" data-name="Group 25408" transform="translate(26.484 26.041)">
            <path id="Path_38874" data-name="Path 38874" class="cls-18" d="M953.212,270.575c-.074.034-.252-.193-.4-.506s-.207-.6-.134-.63.252.192.4.506S953.285,270.541,953.212,270.575Z" transform="translate(-952.648 -269.435)"/>
          </g>
          <g id="Group_25409" data-name="Group 25409" transform="translate(17.659 9.627)">
            <path id="Path_38875" data-name="Path 38875" class="cls-18" d="M938.554,240.306c.044.072-.352.389-.771.839s-.713.863-.787.824.12-.544.573-1.024S938.516,240.238,938.554,240.306Z" transform="translate(-936.982 -240.294)"/>
          </g>
          <g id="Group_25410" data-name="Group 25410" transform="translate(25.452 7.97)">
            <path id="Path_38876" data-name="Path 38876" class="cls-18" d="M951.555,238.813c-.082.017-.214-.318-.409-.7s-.38-.695-.318-.75.368.192.58.618S951.633,238.8,951.555,238.813Z" transform="translate(-950.816 -237.352)"/>
          </g>
          <g id="Group_25411" data-name="Group 25411" transform="translate(4.48 13.592)">
            <path id="Path_38877" data-name="Path 38877" class="cls-18" d="M913.613,248.9c-.075-.029,0-.4.172-.834s.37-.756.445-.726,0,.4-.172.834S913.688,248.926,913.613,248.9Z" transform="translate(-913.584 -247.334)"/>
          </g>
          <g id="Group_25412" data-name="Group 25412" transform="translate(3.955 22.611)">
            <path id="Path_38878" data-name="Path 38878" class="cls-18" d="M913.906,264.4c-.052.062-.373-.12-.717-.407s-.581-.57-.529-.632.373.12.718.407S913.958,264.333,913.906,264.4Z" transform="translate(-912.652 -263.344)"/>
          </g>
          <g id="Group_25413" data-name="Group 25413" transform="translate(18.983 1.846)">
            <path id="Path_38879" data-name="Path 38879" class="cls-18" d="M939.788,227.521c-.076.03-.229-.178-.344-.465s-.146-.544-.072-.574.229.178.344.465S939.863,227.491,939.788,227.521Z" transform="translate(-939.332 -226.48)"/>
          </g>
          <g id="Group_25414" data-name="Group 25414" transform="translate(33.009 5.593)">
            <path id="Path_38880" data-name="Path 38880" class="cls-18" d="M964.287,234.585c-.079-.017-.072-.357.016-.758s.224-.713.3-.7.072.357-.016.758S964.367,234.6,964.287,234.585Z" transform="translate(-964.233 -233.132)"/>
          </g>
          <g id="Group_25415" data-name="Group 25415" transform="translate(36.242 11.714)">
            <path id="Path_38881" data-name="Path 38881" class="cls-18" d="M970,245.768c-.075-.031.027-.451.228-.938s.425-.858.5-.827-.028.451-.228.939S970.072,245.8,970,245.768Z" transform="translate(-969.972 -244)"/>
          </g>
          <g id="Group_25416" data-name="Group 25416" transform="translate(33.028 16.804)">
            <path id="Path_38882" data-name="Path 38882" class="cls-18" d="M965.22,254.907c-.073.036-.341-.353-.6-.87s-.409-.964-.336-1,.34.353.6.869S965.292,254.871,965.22,254.907Z" transform="translate(-964.267 -253.035)"/>
          </g>
          <g id="Group_25417" data-name="Group 25417" transform="translate(38.83 22.517)">
            <path id="Path_38883" data-name="Path 38883" class="cls-18" d="M974.6,264.531c-.076-.029-.021-.355.123-.728s.321-.652.4-.622.02.354-.123.728S974.675,264.559,974.6,264.531Z" transform="translate(-974.566 -263.178)"/>
          </g>
          <g id="Group_25418" data-name="Group 25418" transform="translate(33.953 28.121)">
            <path id="Path_38884" data-name="Path 38884" class="cls-18" d="M966.456,273.965c-.069.043-.241-.109-.384-.338s-.2-.45-.135-.493.24.109.384.338S966.525,273.922,966.456,273.965Z" transform="translate(-965.909 -273.126)"/>
          </g>
          <g id="Group_25419" data-name="Group 25419" transform="translate(34.073 37.992)">
            <path id="Path_38885" data-name="Path 38885" class="cls-18" d="M967.48,292.113c-.06.055-.41-.226-.783-.628s-.627-.772-.568-.827.41.226.783.627S967.539,292.058,967.48,292.113Z" transform="translate(-966.121 -290.652)"/>
          </g>
          <g id="Group_25420" data-name="Group 25420" transform="translate(39.994 31.965)">
            <path id="Path_38886" data-name="Path 38886" class="cls-18" d="M977.788,281.412c-.064.05-.371-.235-.687-.637s-.52-.768-.456-.818.371.235.687.637S977.852,281.362,977.788,281.412Z" transform="translate(-976.633 -279.952)"/>
          </g>
          <g id="Group_25421" data-name="Group 25421" transform="translate(44.264 39.979)">
            <path id="Path_38887" data-name="Path 38887" class="cls-18" d="M984.235,295.945c-.073-.035.055-.458.286-.945s.477-.854.55-.819-.055.457-.286.945S984.308,295.979,984.235,295.945Z" transform="translate(-984.214 -294.179)"/>
          </g>
          <g id="Group_25422" data-name="Group 25422" transform="translate(36.264 47.326)">
            <path id="Path_38888" data-name="Path 38888" class="cls-18" d="M971.364,308.487c-.072.043-.333-.269-.7-.6s-.692-.571-.654-.645.458.063.854.43S971.433,308.449,971.364,308.487Z" transform="translate(-970.011 -307.222)"/>
          </g>
          <g id="Group_25423" data-name="Group 25423" transform="translate(36.786 55.507)">
            <path id="Path_38889" data-name="Path 38889" class="cls-18" d="M972.185,321.893c0,.081-.279.146-.624.146s-.623-.065-.623-.146.279-.146.623-.146S972.185,321.812,972.185,321.893Z" transform="translate(-970.938 -321.747)"/>
          </g>
          <g id="Group_25424" data-name="Group 25424" transform="translate(44.869 52.018)">
            <path id="Path_38890" data-name="Path 38890" class="cls-18" d="M985.306,317.215c-.071-.044.074-.395.182-.838s.15-.819.234-.824.175.4.051.9S985.371,317.259,985.306,317.215Z" transform="translate(-985.288 -315.553)"/>
          </g>
          <g id="Group_25425" data-name="Group 25425" transform="translate(51.018 54.188)">
            <path id="Path_38891" data-name="Path 38891" class="cls-18" d="M996.885,321.265c-.077.026-.285-.368-.465-.882s-.264-.951-.188-.978.285.367.465.881S996.962,321.238,996.885,321.265Z" transform="translate(-996.205 -319.405)"/>
          </g>
          <g id="Group_25426" data-name="Group 25426" transform="translate(50.597 63.758)">
            <path id="Path_38892" data-name="Path 38892" class="cls-18" d="M995.474,338.373c-.071-.037.1-.51.388-1.056s.576-.957.648-.92-.1.51-.388,1.056S995.546,338.41,995.474,338.373Z" transform="translate(-995.457 -336.395)"/>
          </g>
          <g id="Group_25427" data-name="Group 25427" transform="translate(43.612 69.573)">
            <path id="Path_38893" data-name="Path 38893" class="cls-18" d="M983.842,348.575c-.075.031-.306-.359-.517-.871s-.32-.953-.245-.984.306.36.517.872S983.917,348.545,983.842,348.575Z" transform="translate(-983.056 -346.718)"/>
          </g>
          <g id="Group_25428" data-name="Group 25428" transform="translate(36.474 73.477)">
            <path id="Path_38894" data-name="Path 38894" class="cls-18" d="M971.423,353.8c0,.081-.233.147-.519.147s-.52-.066-.52-.147.233-.146.52-.146S971.423,353.714,971.423,353.8Z" transform="translate(-970.384 -353.649)"/>
          </g>
          <g id="Group_25429" data-name="Group 25429" transform="translate(41.001 81.101)">
            <path id="Path_38895" data-name="Path 38895" class="cls-18" d="M978.88,368.743c-.078.021-.235-.311-.349-.741s-.145-.8-.067-.817.235.311.35.742S978.958,368.723,978.88,368.743Z" transform="translate(-978.42 -367.184)"/>
          </g>
          <g id="Group_25430" data-name="Group 25430" transform="translate(36.45 78.604)">
            <path id="Path_38896" data-name="Path 38896" class="cls-18" d="M970.365,363.8c-.069-.042.014-.308.186-.595s.368-.486.438-.444-.014.308-.186.595S970.435,363.837,970.365,363.8Z" transform="translate(-970.341 -362.751)"/>
          </g>
          <g id="Group_25431" data-name="Group 25431" transform="translate(36.088 87.854)">
            <path id="Path_38897" data-name="Path 38897" class="cls-18" d="M969.981,380.939c-.081.01-.192-.379-.249-.866s-.039-.891.042-.9.192.378.25.866S970.061,380.929,969.981,380.939Z" transform="translate(-969.698 -379.173)"/>
          </g>
        </g>
      </g>
    </g>
  </g>
</svg>
