<svg xmlns="http://www.w3.org/2000/svg" width="18.96" height="22.979" viewBox="0 0 18.96 22.979">
  <defs>
    <style>
      .cls-1 {
        fill: #532280;
      }
    </style>
  </defs>
  <path id="Path_1649" data-name="Path 1649" class="cls-1" d="M-1665.5-1730.032a3.2,3.2,0,0,1-1.212-1.531,7.032,7.032,0,0,1-.617-2.921c.024-.73.034-1.463,0-2.193a6.606,6.606,0,0,0-4.137-6.2c-.287-.127-.359-.242-.3-.562a2.094,2.094,0,0,0-1.732-2.673h-.919a3.136,3.136,0,0,0-.9.316,2.122,2.122,0,0,0-.847,2.252.525.525,0,0,1-.376.708,6.435,6.435,0,0,0-3.959,5.189,18.574,18.574,0,0,0-.085,3.006,7.685,7.685,0,0,1-.488,2.747,3.738,3.738,0,0,1-1.386,1.9,2.217,2.217,0,0,0-.367,3.392,2.554,2.554,0,0,0,1.94.761c1.429.005,2.859.011,4.288-.005.309,0,.406.077.407.4a2.008,2.008,0,0,0,1.671,2.316h1.021a1.963,1.963,0,0,0,1.537-1.034,2.1,2.1,0,0,0,.237-1.234c-.042-.376.1-.491.451-.444a2.594,2.594,0,0,0,.357,0c1.361,0,2.721.028,4.081-.012a2.279,2.279,0,0,0,2.26-1.726A2.212,2.212,0,0,0-1665.5-1730.032Zm-8.445-14.648a.76.76,0,0,1,.719.714.735.735,0,0,1-.754.719.759.759,0,0,1-.724-.7A.772.772,0,0,1-1673.949-1744.68Zm-.064,4.315a3.591,3.591,0,0,0-3.538,3.8c0,.408,0,.817-.009,1.225a.711.711,0,0,1-.7.729.74.74,0,0,1-.746-.744c-.019-.305,0-.613,0-.919a5.1,5.1,0,0,1,3.006-5.1,4.428,4.428,0,0,1,1.967-.442.759.759,0,0,1,.81.738A.772.772,0,0,1-1674.013-1740.365Z" transform="translate(1683.457 1746.11)"/>
</svg>
