<svg id="Component_93_1" data-name="Component 93 – 1" xmlns="http://www.w3.org/2000/svg" width="88" height="90" viewBox="0 0 88 90">
  <defs>
    <style>
      .cls-1, .cls-5 {
        fill: none;
      }

      .cls-1 {
        stroke: #451d6a;
        opacity: 0.47;
      }

      .cls-2, .cls-3 {
        fill: #9b3189;
      }

      .cls-2 {
        font-size: 10px;
        font-family: Montserrat-Bold, Montserrat;
        font-weight: 700;
      }

      .cls-4 {
        stroke: none;
      }
    </style>
  </defs>
  <g id="Rectangle_404" data-name="Rectangle 404" class="cls-1">
    <rect class="cls-4" width="88" height="90" rx="17"/>
    <rect class="cls-5" x="0.5" y="0.5" width="87" height="89" rx="16.5"/>
  </g>
  <text id="Pune" class="cls-2" transform="translate(31 79)"><tspan x="0" y="0">Pune</tspan></text>
  <g id="Group_1016" data-name="Group 1016" transform="translate(9 12)">
    <path id="path47" class="cls-3" d="M1125.267-3249.029a.352.352,0,0,0-.315.194l-1.313,2.626h-1.193a.352.352,0,0,0-.315.194l-2.116,4.231s0,.007,0,.009a.342.342,0,0,0-.036.148v1.41a.353.353,0,0,0,.353.352h1.058v5.324l-3.843-.384h-.015a.209.209,0,0,0-.021,0h-7.052a.193.193,0,0,0-.021,0h-.015l-7.052.705a.351.351,0,0,0-.317.35v35.629h-1.59c-.316,0-.526.141-.526.352s.21.353.526.353h69.471c.316,0,.526-.141.526-.353s-.21-.352-.526-.352h-.884v-35.629a.351.351,0,0,0-.317-.35l-7.052-.705h-.015a.2.2,0,0,0-.021,0h-7.052a.191.191,0,0,0-.021,0h-.015l-3.843.384v-5.324h1.058a.352.352,0,0,0,.353-.352v-1.41s0-.008,0-.013a.354.354,0,0,0-.011-.058.355.355,0,0,0-.021-.075s0-.008,0-.011l-2.116-4.231a.354.354,0,0,0-.315-.2h-1.193l-1.313-2.625a.352.352,0,0,0-.315-.194Zm.218.7h22.132l1.088,2.176a.347.347,0,0,0-.165.292.353.353,0,0,0,.353.353h.135l.353.705h-25.659Zm24.331,2.821h.623l1.763,3.526h-3.309v-.705h1.058a.352.352,0,0,0,.353-.353v-1.41a.341.341,0,0,0-.036-.147s0-.007,0-.01Zm-27.152,0h.623l-.45.9s0,.007,0,.01a.341.341,0,0,0-.036.147v1.41a.353.353,0,0,0,.353.353h1.058v.705H1120.9Zm.84,1.409H1149.6v.705H1123.5Zm1.41,1.411h2.821v2.926a2.176,2.176,0,0,0-.705-.1,1.3,1.3,0,0,0-1.41,1.146v.264a.353.353,0,0,0-.353.353.353.353,0,0,0,.353.352v3.526h-.705v-8.463Zm3.526,0h16.22v4.231a.353.353,0,0,0-.353.353.353.353,0,0,0,.353.352v3.526h-.705l0-6.347a1.619,1.619,0,0,0-1.764-1.411,1.93,1.93,0,0,0-1.411.572,1.927,1.927,0,0,0-1.41-.572,1.93,1.93,0,0,0-1.411.572,1.927,1.927,0,0,0-1.41-.572,1.929,1.929,0,0,0-1.411.572,1.927,1.927,0,0,0-1.41-.572,1.929,1.929,0,0,0-1.411.572,1.927,1.927,0,0,0-1.411-.572,1.62,1.62,0,0,0-1.765,1.411v.7a.353.353,0,0,0-.353.353.353.353,0,0,0,.353.353v4.937h-.705Zm16.926,0h2.821v8.463h-.705v-4.232a.35.35,0,0,0-.026-.132.351.351,0,0,0,.026-.132,1.3,1.3,0,0,0-1.41-1.146,1.638,1.638,0,0,0-.705.16Zm-24.683,1.41h3.526v.705h-3.526Zm10.227,0c.559,0,1.049.325,1.058.7,0,0,0,.006,0,.01v.7a.353.353,0,0,0-.353.353.353.353,0,0,0,.353.353v3.526h-2.116v-3.526a.353.353,0,0,0,.353-.353.353.353,0,0,0-.353-.353v-.7C1129.851-3240.943,1130.346-3241.273,1130.91-3241.273Zm2.821,0c.559,0,1.049.325,1.058.7,0,0,0,.006,0,.01v.7a.353.353,0,0,0-.352.353.353.353,0,0,0,.352.353v3.526h-2.114v-3.526a.353.353,0,0,0,.35-.353.353.353,0,0,0-.35-.353v-.7s0-.006,0-.01C1132.682-3240.949,1133.172-3241.273,1133.731-3241.273Zm2.821,0c.559,0,1.049.325,1.058.7,0,0,0,.006,0,.01v.7a.353.353,0,0,0-.352.353.353.353,0,0,0,.352.353v3.526h-2.114v-3.526a.353.353,0,0,0,.35-.353.353.353,0,0,0-.35-.353v-.7s0-.006,0-.01C1135.5-3240.949,1135.993-3241.273,1136.552-3241.273Zm2.821,0c.559,0,1.049.325,1.058.7,0,0,0,.006,0,.01v.7a.353.353,0,0,0-.353.353.353.353,0,0,0,.353.353v3.526h-2.114v-3.526a.353.353,0,0,0,.35-.353.353.353,0,0,0-.35-.353v-.7s0-.006,0-.01C1138.323-3240.949,1138.813-3241.273,1139.373-3241.273Zm2.821,0c.564,0,1.059.331,1.059.705v.711a.344.344,0,0,0-.251.1.334.334,0,0,0-.1.247.329.329,0,0,0,.1.247.335.335,0,0,0,.248.106h0v3.526h-2.116v-3.526a.353.353,0,0,0,.35-.353.353.353,0,0,0-.35-.353v-.7s0-.006,0-.01C1141.144-3240.949,1141.634-3241.273,1142.193-3241.273Zm6.7,0h3.526v.705h-3.526Zm-26.8,1.41h2.116v5.606l-2.116-.212Zm26.8,0h2.116v5.394l-2.116.212Zm-21.862.706c.339,0,.705.086.705.276v.445a.341.341,0,0,0-.246.091.332.332,0,0,0-.1.247.33.33,0,0,0,.1.247.262.262,0,0,0,.113.078.283.283,0,0,0,.134.027v2.116h-1.41v-2.116a.353.353,0,0,0,.353-.352.353.353,0,0,0-.353-.353v-.264C1126.324-3238.925,1126.626-3239.157,1127.03-3239.157Zm19.041,0c.4,0,.705.233.705.441a.343.343,0,0,0,.026.132.347.347,0,0,0-.026.132v.016a.327.327,0,0,0-.246.091.332.332,0,0,0-.1.247.329.329,0,0,0,.1.247.263.263,0,0,0,.113.078.284.284,0,0,0,.134.027v2.116h-1.411v-2.116a.352.352,0,0,0,.353-.352.353.353,0,0,0-.353-.353v-.264C1145.366-3238.925,1145.668-3239.157,1146.071-3239.157Zm-19.747,4.231h1.41v.705h-1.41Zm3.526,0h2.116v.705h-2.116Zm2.821,0h2.116v.705h-2.116Zm2.821,0h2.115v.705h-2.115Zm2.821,0h2.116v.705h-2.116Zm2.821,0h2.116v.705h-2.116Zm4.231,0h1.411v.705h-1.411Zm-34.556.705h6.347v1.41h-6.347Zm45.135,0h6.347v1.41h-6.347Zm-45.84.037v1.373h-6.347v-.738Zm7.757,0,6.347.635v.738h-6.347Zm37.377,0v1.373h-6.347v-.738Zm7.758,0,6.347.635v.738H1163Zm-38.083.668h2.116v.705h-2.116Zm2.821,0h17.631v1.41h-17.631Zm18.336,0h2.116v.705h-2.116Zm-42.314,1.41h6.347v6.347h-6.347Zm7.052,0h6.347v6.347h-6.347Zm7.052,0h6.347v6.347h-6.347Zm7.052,0h2.116v.353a.352.352,0,0,0,.353.352h.353v5.657h-2.821Zm21.157,0h2.116v6.363h-2.821v-5.657h.353a.352.352,0,0,0,.353-.352Zm2.821,0h6.347v6.347h-6.347Zm7.052,0h6.347v6.347h-6.347Zm7.052,0h6.347v6.347H1163Zm-34.556.705h16.22v1.41h-16.22v-1.41Zm-21.51.706a1.059,1.059,0,0,0-1.058,1.058v2.115a.353.353,0,0,0,.353.353h1.411a.352.352,0,0,0,.353-.353v-2.115A1.059,1.059,0,0,0,1106.931-3230.695Zm7.052,0a1.059,1.059,0,0,0-1.058,1.058v2.115a.352.352,0,0,0,.353.353h1.411a.352.352,0,0,0,.353-.353v-2.115A1.059,1.059,0,0,0,1113.983-3230.695Zm7.052,0a1.059,1.059,0,0,0-1.058,1.058v2.115a.353.353,0,0,0,.353.353h1.41a.352.352,0,0,0,.353-.353v-2.115A1.059,1.059,0,0,0,1121.035-3230.695Zm31.03,0a1.059,1.059,0,0,0-1.058,1.058v2.115a.353.353,0,0,0,.353.353h1.411a.352.352,0,0,0,.353-.353v-2.115A1.059,1.059,0,0,0,1152.065-3230.695Zm7.052,0a1.059,1.059,0,0,0-1.058,1.058v2.115a.353.353,0,0,0,.353.353h1.411a.352.352,0,0,0,.353-.353v-2.115A1.059,1.059,0,0,0,1159.118-3230.695Zm7.052,0a1.059,1.059,0,0,0-1.058,1.058v2.115a.353.353,0,0,0,.353.353h1.41a.352.352,0,0,0,.353-.353v-2.115A1.059,1.059,0,0,0,1166.17-3230.695Zm-61.355.015a.352.352,0,0,0-.353.353v2.821a.353.353,0,0,0,.353.353.353.353,0,0,0,.353-.353v-2.821A.352.352,0,0,0,1104.815-3230.679Zm4.231,0a.353.353,0,0,0-.353.353v2.821a.353.353,0,0,0,.353.353.353.353,0,0,0,.353-.353v-2.821A.353.353,0,0,0,1109.046-3230.679Zm2.821,0a.353.353,0,0,0-.353.353v2.821a.353.353,0,0,0,.353.353.353.353,0,0,0,.353-.353v-2.821A.353.353,0,0,0,1111.867-3230.679Zm4.231,0a.353.353,0,0,0-.353.353v2.821a.353.353,0,0,0,.353.353.353.353,0,0,0,.353-.353v-2.821A.353.353,0,0,0,1116.1-3230.679Zm2.821,0a.353.353,0,0,0-.353.353v2.821a.353.353,0,0,0,.353.353.353.353,0,0,0,.353-.353v-2.821A.353.353,0,0,0,1118.919-3230.679Zm4.232,0a.353.353,0,0,0-.353.353v2.821a.353.353,0,0,0,.353.353.353.353,0,0,0,.353-.353v-2.821A.353.353,0,0,0,1123.151-3230.679Zm26.8,0a.353.353,0,0,0-.353.353v2.821a.353.353,0,0,0,.353.353.353.353,0,0,0,.353-.353v-2.821A.353.353,0,0,0,1149.95-3230.679Zm4.231,0a.353.353,0,0,0-.353.353v2.821a.353.353,0,0,0,.353.353.353.353,0,0,0,.353-.353v-2.821A.353.353,0,0,0,1154.181-3230.679Zm2.821,0a.353.353,0,0,0-.353.353v2.821a.353.353,0,0,0,.353.353.353.353,0,0,0,.353-.353v-2.821A.353.353,0,0,0,1157-3230.679Zm4.231,0a.353.353,0,0,0-.353.353v2.821a.353.353,0,0,0,.353.353.353.353,0,0,0,.353-.353v-2.821A.353.353,0,0,0,1161.233-3230.679Zm2.821,0a.353.353,0,0,0-.353.353v2.821a.353.353,0,0,0,.353.353.353.353,0,0,0,.353-.353v-2.821A.353.353,0,0,0,1164.054-3230.679Zm4.231,0a.353.353,0,0,0-.353.353v2.821a.353.353,0,0,0,.353.353.353.353,0,0,0,.353-.353v-2.821A.353.353,0,0,0,1168.286-3230.679Zm-61.355.69a.354.354,0,0,1,.353.353v1.763h-.705v-1.763A.354.354,0,0,1,1106.931-3229.99Zm7.052,0a.354.354,0,0,1,.353.353v1.763h-.705v-1.763A.354.354,0,0,1,1113.983-3229.99Zm7.052,0a.354.354,0,0,1,.353.353v1.763h-.705v-1.763A.354.354,0,0,1,1121.035-3229.99Zm31.03,0a.354.354,0,0,1,.353.353v1.763h-.705v-1.763A.354.354,0,0,1,1152.065-3229.99Zm7.052,0a.354.354,0,0,1,.353.353v1.763h-.705v-1.763A.354.354,0,0,1,1159.118-3229.99Zm7.052,0a.354.354,0,0,1,.353.353v1.763h-.705v-1.763A.354.354,0,0,1,1166.17-3229.99Zm-37.73.706h16.22v1.067a1.746,1.746,0,0,0-1.058-.362,1.756,1.756,0,0,0-1.41.716,1.756,1.756,0,0,0-1.411-.716,1.756,1.756,0,0,0-1.41.716,1.757,1.757,0,0,0-1.41-.716,1.757,1.757,0,0,0-1.411.716,1.756,1.756,0,0,0-1.41-.716,1.757,1.757,0,0,0-1.411.716,1.756,1.756,0,0,0-1.41-.716,1.756,1.756,0,0,0-1.411.716,1.756,1.756,0,0,0-1.41-.716,1.746,1.746,0,0,0-1.058.362Zm1.058,1.41a1.059,1.059,0,0,1,1.058,1.058v.941a.339.339,0,0,0,.023.117h-2.139v-1.058A1.059,1.059,0,0,1,1129.5-3227.874Zm2.821,0a1.059,1.059,0,0,1,1.058,1.058v.941a.339.339,0,0,0,.023.117h-2.163a.337.337,0,0,0,.024-.117v-.941A1.059,1.059,0,0,1,1132.319-3227.874Zm2.821,0a1.059,1.059,0,0,1,1.058,1.058v.941a.342.342,0,0,0,.023.117h-2.162a.339.339,0,0,0,.023-.117v-.941A1.059,1.059,0,0,1,1135.14-3227.874Zm2.821,0a1.059,1.059,0,0,1,1.058,1.058v.941a.34.34,0,0,0,.024.117h-2.163a.339.339,0,0,0,.023-.117v-.941A1.059,1.059,0,0,1,1137.961-3227.874Zm2.821,0a1.059,1.059,0,0,1,1.058,1.058v.941a.339.339,0,0,0,.023.117H1139.7a.342.342,0,0,0,.023-.117v-.941A1.059,1.059,0,0,1,1140.782-3227.874Zm2.821,0a1.059,1.059,0,0,1,1.058,1.058v1.058h-2.139a.342.342,0,0,0,.023-.117v-.941A1.059,1.059,0,0,1,1143.6-3227.874Zm-39.846,2.821h6.347v.705h-6.347Zm7.052,0h6.347v.705h-6.347Zm7.052,0h6.347v.705h-6.347Zm10.579,0h16.22v.705h-16.22Zm20.452,0h6.347v.705h-6.347Zm7.052,0h6.347v.705h-6.347Zm7.052,0h6.347v.705H1163Zm-38.083.015h2.821v.69h-2.821Zm20.452,0h2.821v.69h-2.821Zm-41.609,1.4h6.347v25.388h-6.347Zm7.052,0h6.347v25.388h-6.347Zm7.052,0h6.347v25.388h-6.347Zm7.052,0h2.821v25.388h-2.821Zm3.526,0h16.22v25.388h-1.41v-10.525a6.017,6.017,0,0,0-2.953-5.167l-3.214-1.89a.352.352,0,0,0-.368.006l-3.359,2.115a5.959,5.959,0,0,0-2.8,5.072v10.389h-2.116Zm16.926,0h2.821v25.388h-2.821Zm3.526,0h6.347v25.388h-6.347Zm7.052,0h6.347v25.388h-6.347Zm7.052,0h6.347v25.388H1163Zm-58.182,1.426a.352.352,0,0,0-.353.353v4.231a.353.353,0,0,0,.353.353.353.353,0,0,0,.353-.353v-4.231A.352.352,0,0,0,1104.815-3222.217Zm2.116,0a.352.352,0,0,0-.353.353v4.231a.353.353,0,0,0,.353.353.353.353,0,0,0,.353-.353v-4.231A.352.352,0,0,0,1106.931-3222.217Zm2.116,0a.353.353,0,0,0-.353.353v4.231a.353.353,0,0,0,.353.353.353.353,0,0,0,.353-.353v-4.231A.353.353,0,0,0,1109.046-3222.217Zm2.821,0a.353.353,0,0,0-.353.353v4.231a.353.353,0,0,0,.353.353.353.353,0,0,0,.353-.353v-4.231A.353.353,0,0,0,1111.867-3222.217Zm2.116,0a.353.353,0,0,0-.353.353v4.231a.353.353,0,0,0,.353.353.353.353,0,0,0,.353-.353v-4.231A.353.353,0,0,0,1113.983-3222.217Zm2.115,0a.353.353,0,0,0-.353.353v4.231a.353.353,0,0,0,.353.353.353.353,0,0,0,.353-.353v-4.231A.353.353,0,0,0,1116.1-3222.217Zm2.821,0a.353.353,0,0,0-.353.353v4.231a.353.353,0,0,0,.353.353.353.353,0,0,0,.353-.353v-4.231A.353.353,0,0,0,1118.919-3222.217Zm2.116,0a.353.353,0,0,0-.352.353v4.231a.353.353,0,0,0,.352.353.353.353,0,0,0,.353-.353v-4.231A.353.353,0,0,0,1121.035-3222.217Zm2.116,0a.353.353,0,0,0-.353.353v4.231a.353.353,0,0,0,.353.353.353.353,0,0,0,.353-.353v-4.231A.353.353,0,0,0,1123.151-3222.217Zm3.173,0a.353.353,0,0,0-.353.353v4.231a.353.353,0,0,0,.353.353.353.353,0,0,0,.353-.353v-4.231A.353.353,0,0,0,1126.324-3222.217Zm4.584,0a.353.353,0,0,0-.353.353v4.231a.353.353,0,0,0,.353.353.353.353,0,0,0,.353-.353v-4.231A.353.353,0,0,0,1130.908-3222.217Zm2.821,0a.353.353,0,0,0-.353.353v4.231a.353.353,0,0,0,.353.353.353.353,0,0,0,.353-.353v-4.231A.353.353,0,0,0,1133.729-3222.217Zm2.821,0a.353.353,0,0,0-.353.353v4.231a.353.353,0,0,0,.353.353.353.353,0,0,0,.353-.353v-4.231A.353.353,0,0,0,1136.55-3222.217Zm2.821,0a.353.353,0,0,0-.353.353v4.231a.353.353,0,0,0,.353.353.353.353,0,0,0,.353-.353v-4.231A.353.353,0,0,0,1139.371-3222.217Zm2.821,0a.353.353,0,0,0-.353.353v4.231a.353.353,0,0,0,.353.353.353.353,0,0,0,.353-.353v-4.231A.353.353,0,0,0,1142.192-3222.217Zm4.584,0a.353.353,0,0,0-.353.353v4.231a.353.353,0,0,0,.353.353.353.353,0,0,0,.353-.353v-4.231A.353.353,0,0,0,1146.776-3222.217Zm3.173,0a.353.353,0,0,0-.353.353v4.231a.353.353,0,0,0,.353.353.353.353,0,0,0,.353-.353v-4.231A.353.353,0,0,0,1149.95-3222.217Zm2.116,0a.353.353,0,0,0-.353.353v4.231a.353.353,0,0,0,.353.353.353.353,0,0,0,.353-.353v-4.231A.353.353,0,0,0,1152.065-3222.217Zm2.116,0a.353.353,0,0,0-.353.353v4.231a.353.353,0,0,0,.353.353.353.353,0,0,0,.353-.353v-4.231A.353.353,0,0,0,1154.181-3222.217Zm2.821,0a.353.353,0,0,0-.353.353v4.231a.353.353,0,0,0,.353.353.353.353,0,0,0,.353-.353v-4.231A.353.353,0,0,0,1157-3222.217Zm2.116,0a.353.353,0,0,0-.353.353v4.231a.353.353,0,0,0,.353.353.353.353,0,0,0,.353-.353v-4.231A.353.353,0,0,0,1159.118-3222.217Zm2.116,0a.353.353,0,0,0-.353.353v4.231a.353.353,0,0,0,.353.353.353.353,0,0,0,.353-.353v-4.231A.353.353,0,0,0,1161.233-3222.217Zm2.821,0a.353.353,0,0,0-.353.353v4.231a.353.353,0,0,0,.353.353.353.353,0,0,0,.353-.353v-4.231A.353.353,0,0,0,1164.054-3222.217Zm2.116,0a.353.353,0,0,0-.353.353v4.231a.353.353,0,0,0,.353.353.353.353,0,0,0,.353-.353v-4.231A.353.353,0,0,0,1166.17-3222.217Zm2.116,0a.353.353,0,0,0-.353.353v4.231a.353.353,0,0,0,.353.353.353.353,0,0,0,.353-.353v-4.231A.353.353,0,0,0,1168.286-3222.217Zm-35.967,5.626a1.059,1.059,0,0,0-1.058,1.058,1.059,1.059,0,0,0,1.058,1.058,1.059,1.059,0,0,0,1.058-1.058A1.059,1.059,0,0,0,1132.319-3216.59Zm8.463,0a1.059,1.059,0,0,0-1.058,1.058,1.059,1.059,0,0,0,1.058,1.058,1.059,1.059,0,0,0,1.058-1.058A1.059,1.059,0,0,0,1140.782-3216.59Zm-8.463.705a.354.354,0,0,1,.353.353.354.354,0,0,1-.353.353.354.354,0,0,1-.353-.353A.354.354,0,0,1,1132.319-3215.885Zm8.463,0a.354.354,0,0,1,.353.353.354.354,0,0,1-.353.353.354.354,0,0,1-.353-.353A.354.354,0,0,1,1140.782-3215.885Zm-3.872.766,3.028,1.781a5.311,5.311,0,0,1,2.607,4.559v10.525h-1.41v-10.488a3.942,3.942,0,0,0-.035-.523,4.024,4.024,0,0,0-1.939-2.927l-2.078-1.223h0l-.184-.109-.182.114-2.173,1.369a3.98,3.98,0,0,0-1.869,3.387v10.4h-1.41v-10.389a5.261,5.261,0,0,1,2.471-4.477Zm.346,2.624,1.547.911a3.273,3.273,0,0,1,.769.636h-2.315Zm-.705.022v1.525h-2.242a3.32,3.32,0,0,1,.609-.5Zm3.5,2.218a3.3,3.3,0,0,1,.347,1.083,3.283,3.283,0,0,1,.023.34h-3.168v-1.411h2.733A.341.341,0,0,0,1140.053-3210.255Zm-6.269.006h0a.282.282,0,0,0,.032.007h2.733v1.411h-3.162A3.29,3.29,0,0,1,1133.785-3210.25Zm-.408,2.122h3.173v1.41h-3.173Zm3.879,0h3.173v1.41h-3.173Zm-3.879,2.116h3.173v1.41h-3.173Zm3.879,0h3.173v1.41h-3.173Zm-3.879,2.116h3.173v1.41h-3.173Zm3.879,0h3.173v1.41h-3.173Zm-3.879,2.115h3.173v1.411h-3.173Zm3.879,0h3.173v1.411h-3.173Zm-3.879,2.116h3.173v1.411h-3.173Zm3.879,0h3.173v1.411h-3.173Z" transform="translate(-1100.936 3249.029)"/>
  </g>
</svg>
