<svg id="Group_6258" data-name="Group 6258" xmlns="http://www.w3.org/2000/svg" width="16.561" height="22.646" viewBox="0 0 16.561 22.646">
  <defs>
    <style>
      .cls-1 {
        fill: #451d6a;
      }
    </style>
  </defs>
  <path id="Rectangle_242" data-name="Rectangle 242" class="cls-1" d="M2.048,0H9.679a2.048,2.048,0,0,1,2.048,2.048v0a.575.575,0,0,1-.575.575H.575A.575.575,0,0,1,0,2.048v0A2.048,2.048,0,0,1,2.048,0Z" transform="translate(3.827)"/>
  <rect id="Rectangle_243" data-name="Rectangle 243" class="cls-1" width="2.093" height="4.639" rx="1.047" transform="translate(3.579 18.007)"/>
  <rect id="Rectangle_244" data-name="Rectangle 244" class="cls-1" width="2.093" height="4.639" rx="1.047" transform="translate(13.632 18.007)"/>
  <path id="Path_1432" data-name="Path 1432" class="cls-1" d="M-3094.721,397.333c-.195-.852-.32-1.72-.466-2.584-.156-.929-.152-.929-1.093-.929-.193,0-.387,0-.579,0-.145,0-.212-.052-.25-.2-.175-.738,0-.973.746-.974a1.763,1.763,0,0,1,.211,0c.342.041.46-.1.457-.448q-.015-4.091,0-8.182c0-.316-.083-.427-.413-.426q-5.461.015-10.925,0c-.308,0-.392.117-.391.4.007,1.46.012,2.921,0,4.381,0,.3.09.4.394.392.738-.019,1.476,0,2.215-.008.463-.005.678.2.659.671a11.908,11.908,0,0,0,0,1.214c.026.505-.211.7-.695.692-.72-.01-1.442.006-2.163,0-.278,0-.4.067-.415.381-.03.93-.044.95.883.925.433-.012.608.063.6.562s-.124.713-.639.631c-.19-.03-.394.022-.581-.011-.451-.079-.67.123-.667.551,0,.449-.246.519-.611.48-.156-.016-.317,0-.473-.015a.934.934,0,0,1-.954-1.079c0-.774.022-1.55-.007-2.322-.016-.387.125-.465.479-.459,1.2.02,2.393.007,3.589.007,1.341,0,1.324,0,1.334-1.367,0-.434-.147-.539-.552-.535-1.635.018-3.272.008-4.908.007-1.321,0-1.3,0-1.321,1.34-.006.437.124.632.562.554.457-.081.518.159.507.54-.022.791-.016,1.583-.006,2.375a1.182,1.182,0,0,0,1.063,1.231c.274.041.559.023.839.043.111.008.317-.028.274.144-.118.491.248.319.432.32,1.742.011,3.486.005,5.226.006a4.629,4.629,0,0,1,.475.021.184.184,0,0,1,.177.165c.01.133-.087.184-.2.193-.14.011-.281.008-.42.008q-2.692,0-5.386,0c-.221,0-.475-.054-.476.312-.006.4.295.225.451.227,2.569.013,5.136.009,7.705.01.159,0,.317,0,.475,0,.106,0,.23.009.243.142.021.18-.13.178-.248.185-.141.008-.283.006-.422.006-2.588,0-5.175.014-7.76-.014-.5-.005-.655.178-.662.624,0,.185.04.282.108.33h.413a.648.648,0,0,1,.125-.016c2.059.022,4.116.013,6.176.013,1.967,0,3.937-.006,5.9,0h.534C-3094.728,397.849-3094.621,397.761-3094.721,397.333Zm-4.5-12.815a.3.3,0,0,1,.3-.3h1.009a.3.3,0,0,1,.3.3v3.637a.3.3,0,0,1-.3.3h-1.009a.3.3,0,0,1-.3-.3Zm-3.144,0a.3.3,0,0,1,.3-.3h1.007a.3.3,0,0,1,.3.3v3.637a.3.3,0,0,1-.3.3h-1.007a.3.3,0,0,1-.3-.3Zm-2.786,3.936a.3.3,0,0,1-.3-.3v-3.637a.3.3,0,0,1,.3-.3h1.007a.3.3,0,0,1,.3.3v3.637a.3.3,0,0,1-.3.3Zm7.118,8.448c-.177-.013-.491.12-.49-.194,0-.229.28-.1.436-.144.161.052.445-.108.462.173C-3097.611,396.986-3097.886,396.911-3098.033,396.9Zm.124-3.069q-3.639-.042-7.278,0c-.578.007-.429-.335-.453-.643-.027-.354,0-.576.479-.56,1.212.04,2.426.013,3.638.013,1.2,0,2.393.032,3.586-.015.54-.021.494.267.5.615C-3097.44,393.576-3097.4,393.838-3097.909,393.832Z" transform="translate(3111.247 -380.167)"/>
</svg>
