<svg xmlns="http://www.w3.org/2000/svg" width="21.847" height="22.811" viewBox="0 0 21.847 22.811">
  <defs>
    <style>
      .cls-1 {
        fill: #532280;
      }
    </style>
  </defs>
  <g id="Group_19606" data-name="Group 19606" transform="translate(424.463 -460.847)">
    <path id="Path_31224" data-name="Path 31224" class="cls-1" d="M-416.906,464.611v.176q0,1.964,0,3.928a.227.227,0,0,1-.131.229,6.925,6.925,0,0,0-1.951,1.666,6.856,6.856,0,0,0-.9,1.448,7.374,7.374,0,0,0-.472,1.381,7.471,7.471,0,0,0-.182,1.648,4.165,4.165,0,0,0,.041.668,9.6,9.6,0,0,0,.192.972,7.606,7.606,0,0,0,.317.982,7.416,7.416,0,0,0,.451.879,6.785,6.785,0,0,0,1.616,1.867,6.74,6.74,0,0,0,1.739,1.027,10.794,10.794,0,0,0,1.051.326,5.941,5.941,0,0,0,1.779.2,6.2,6.2,0,0,0,1.05-.1,7.084,7.084,0,0,0,2.582-1.031,7.22,7.22,0,0,0,1.863-1.777,7.117,7.117,0,0,0,1.012-2.019c.083-.254.112-.524.181-.783a5.212,5.212,0,0,0,.127-1.218,8.934,8.934,0,0,0-.068-1.011,3.807,3.807,0,0,0-.068-.473c-.046-.21-.1-.42-.163-.626a6.932,6.932,0,0,0-.745-1.643,7.327,7.327,0,0,0-2.244-2.262c-.022-.014-.052-.015-.074-.029-.27-.158-.27-.158-.27-.482l0-3.754v-.18a10.7,10.7,0,0,1,4.794,3.132,10.706,10.706,0,0,1,2.741,7.932,10.549,10.549,0,0,1-3.2,7.071,10.545,10.545,0,0,1-6.956,3.154,10.6,10.6,0,0,1-7.78-2.545,10.581,10.581,0,0,1-3.823-7.134,10.657,10.657,0,0,1,2.216-7.9A10.823,10.823,0,0,1-416.906,464.611Z" transform="translate(0 -2.27)"/>
    <path id="Path_31225" data-name="Path 31225" class="cls-1" d="M-397.821,466.483q0,2.218,0,4.436a1.149,1.149,0,0,1-1.153,1.161c-.389,0-.778.011-1.165-.014a1.121,1.121,0,0,1-1.06-1.2c0-1.206,0-2.412,0-3.619,0-1.725,0-3.449,0-5.174a1.1,1.1,0,0,1,.648-1.087,1.533,1.533,0,0,1,.539-.124c.316-.02.634-.014.951-.006a1.16,1.16,0,0,1,1.238,1.245c0,.733,0,1.466,0,2.2Z" transform="translate(-14.029 0)"/>
  </g>
</svg>
