<svg id="Group_7195" data-name="Group 7195" xmlns="http://www.w3.org/2000/svg" width="6.125" height="7.733" viewBox="0 0 6.125 7.733">
  <defs>
    <style>
      .cls-1 {
        fill: #451d6a;
      }
    </style>
  </defs>
  <path id="Path_14107" data-name="Path 14107" class="cls-1" d="M1075.942-2639.684h-5.76a.183.183,0,0,0-.182.183v.148a.182.182,0,0,0,.182.182h.172v3.008h.4v-.639h.72l-.015.2a.463.463,0,0,0,.427.5l.046,0a.464.464,0,0,0,.5-.427l.021-.268h1.228l.02.268a.464.464,0,0,0,.5.427l.046,0a.463.463,0,0,0,.427-.5l-.015-.2h.7v.639h.4v-3.008h.192a.182.182,0,0,0,.183-.182v-.148A.183.183,0,0,0,1075.942-2639.684Zm-.59,2.525h-4.6v-1.236h.84l-.076,1.008h.976l.076-1.008h.987l.076,1.008h.976l-.076-1.008h.82Z" transform="translate(-1070 2643.838)"/>
  <g id="Group_7194" data-name="Group 7194" transform="translate(1.603 1.404)">
    <path id="Path_14108" data-name="Path 14108" class="cls-1" d="M1122.332-2728.684v-.359h-.244v.652A.3.3,0,0,1,1122.332-2728.684Z" transform="translate(-1122.088 2729.042)"/>
    <path id="Path_14109" data-name="Path 14109" class="cls-1" d="M1209-2728.684v-.359h.244v.652A.3.3,0,0,0,1209-2728.684Z" transform="translate(-1206.322 2729.042)"/>
  </g>
  <path id="Path_14110" data-name="Path 14110" class="cls-1" d="M1114.761-2710.913a1.025,1.025,0,0,1-.692.267,1.025,1.025,0,0,1-.692-.267,1.284,1.284,0,0,0-1.068,1.266v.738a.021.021,0,0,0,.021.021h3.478a.021.021,0,0,0,.021-.021v-.738A1.284,1.284,0,0,0,1114.761-2710.913Z" transform="translate(-1111.007 2712.875)"/>
  <path id="Path_14111" data-name="Path 14111" class="cls-1" d="M1137.124-2774.658a1.028,1.028,0,0,0-1.028,1.028,1.028,1.028,0,0,0,1.028,1.028,1.028,1.028,0,0,0,1.028-1.028A1.028,1.028,0,0,0,1137.124-2774.658Zm.725,1.5a.666.666,0,0,1-.082.171.61.61,0,0,1-.238.205.807.807,0,0,1-.249.073.82.82,0,0,1-.156.008h-.014a.819.819,0,0,1-.157-.008.814.814,0,0,1-.249-.073.609.609,0,0,1-.237-.205.672.672,0,0,1-.082-.171.314.314,0,0,1,.036-.328.567.567,0,0,1,.3-.164,1.325,1.325,0,0,1,.368-.021l.019,0v.005h.013v-.005l.019,0a1.324,1.324,0,0,1,.367.021.569.569,0,0,1,.3.164A.314.314,0,0,1,1137.849-2773.154Z" transform="translate(-1134.061 2774.658)"/>
</svg>
