<svg xmlns="http://www.w3.org/2000/svg" width="7.228" height="7.226" viewBox="0 0 7.228 7.226">
  <defs>
    <style>
      .cls-1 {
        fill: #532280;
      }
    </style>
  </defs>
  <g id="Group_25048" data-name="Group 25048" transform="translate(-3253.801 -2087.986)">
    <path id="Path_38720" data-name="Path 38720" class="cls-1" d="M3254.344,2173c-.028-.03-.055-.056-.079-.084a.711.711,0,0,1,.216-1.1.073.073,0,0,0,.045-.076q0-.73,0-1.46a.867.867,0,0,1,.061-.353.573.573,0,0,1,.5-.355c.109-.011.219,0,.33-.009a.9.9,0,0,1-.568-.346.83.83,0,0,1-.168-.638.866.866,0,0,1,1.721.035.88.88,0,0,1-.738.947c.021,0,.043,0,.064,0a2.7,2.7,0,0,0,.809-.085c.165-.04.333-.069.5-.106a.114.114,0,0,0,.061-.038c.2-.257.4-.518.6-.774a.414.414,0,0,1,.688.076.422.422,0,0,1-.063.466c-.224.293-.451.584-.677.876a.657.657,0,0,1-.314.226c-.2.069-.4.144-.6.215a.045.045,0,0,0-.036.051q0,.617,0,1.234a.045.045,0,0,0,.04.052.719.719,0,0,1,.539.729.7.7,0,0,1-.215.479l-.032.031s0,0,0,.009a1.05,1.05,0,0,1,.4.375,1.078,1.078,0,0,1,.4-.376.717.717,0,0,1-.244-.67.7.7,0,0,1,.264-.444.722.722,0,0,1,.923,1.108c.072.055.149.105.215.167s.119.135.18.206a1.063,1.063,0,0,1,.395-.368.717.717,0,0,1-.25-.63.7.7,0,0,1,.253-.469.718.718,0,0,1,.953.021.715.715,0,0,1-.018,1.073c.063.046.126.084.182.132a1.008,1.008,0,0,1,.36.778c0,.087,0,.175,0,.262a.15.15,0,0,1-.165.166H3254a.442.442,0,0,1-.09-.007.127.127,0,0,1-.105-.115,1.94,1.94,0,0,1,.031-.575,1.017,1.017,0,0,1,.464-.61l.035-.021Zm1.748,0a.407.407,0,0,1-.051-.035.716.716,0,0,1,.314-1.2c.04-.011.049-.029.049-.068,0-.441,0-.883,0-1.324,0-.114.027-.151.135-.189.236-.085.473-.167.709-.255a.322.322,0,0,0,.139-.087c.238-.3.469-.6.7-.907a.243.243,0,0,0,.036-.062.115.115,0,0,0-.138-.16.173.173,0,0,0-.083.062q-.311.4-.617.8a.185.185,0,0,1-.116.071c-.255.052-.51.1-.763.16a2.189,2.189,0,0,1-.545.058c-.211-.006-.422,0-.633,0a.972.972,0,0,0-.13.009.291.291,0,0,0-.274.262.831.831,0,0,0-.009.131q0,.714,0,1.428c0,.016,0,.031,0,.045a.714.714,0,0,1,.673.477.7.7,0,0,1-.207.8,1.05,1.05,0,0,1,.4.376A1.087,1.087,0,0,1,3256.092,2173Zm.023-4.3a.578.578,0,1,0-.575.577A.575.575,0,0,0,3256.115,2168.7Zm2.888,5.345a.738.738,0,0,0-.367-.771.681.681,0,0,0-.781.048.741.741,0,0,0-.29.722Zm-1.735,0a.754.754,0,0,0-.373-.777.72.72,0,0,0-.8.071.76.76,0,0,0-.268.706Zm-1.727,0c0-.091,0-.177-.015-.261a.716.716,0,0,0-.561-.591.724.724,0,0,0-.744.3.809.809,0,0,0-.13.5c0,.043.012.055.055.055.445,0,.891,0,1.337,0Zm5.2,0a.751.751,0,0,0-.363-.77.712.712,0,0,0-.8.062.739.739,0,0,0-.266.708Zm-5.489-1.589a.433.433,0,0,0-.866,0,.433.433,0,1,0,.866,0Zm4.77-.432a.434.434,0,0,0,0,.867.434.434,0,1,0,0-.867Zm-1.734,0a.434.434,0,1,0,.433.433A.431.431,0,0,0,3258.283,2172.021Zm-1.3.434a.425.425,0,0,0-.466-.428.42.42,0,0,0-.4.426.433.433,0,1,0,.866,0Z" transform="translate(0 -79.122)"/>
    <path id="Path_38721" data-name="Path 38721" class="cls-1" d="M3401.113,2091.6v-.578h1.24a.064.064,0,0,1,.067.039c.036.071.075.141.115.21a.071.071,0,0,1,0,.082c-.046.079-.088.16-.134.245h.586v-3.315h-5.056c0,.046,0,.092,0,.138a.143.143,0,0,1-.138.149.141.141,0,0,1-.147-.135,3.013,3.013,0,0,1,0-.312c0-.088.064-.133.16-.133h5.288c.137,0,.186.05.186.189v3.423h.128a.147.147,0,0,1,.16.156q0,.206,0,.411a.146.146,0,0,1-.16.156h-3.873a.144.144,0,0,1-.149-.2.141.141,0,0,1,.127-.093c.015,0,.03,0,.045,0h3.719v-.145h-3.746a.145.145,0,1,1-.01-.289h1.592Z" transform="translate(-142.54)"/>
  </g>
</svg>
