<svg xmlns="http://www.w3.org/2000/svg" width="8.831" height="8.831" viewBox="0 0 8.831 8.831">
  <defs>
    <style>
      .cls-1 {
        fill: none;
      }

      .cls-2, .cls-4 {
        fill: #9b3189;
      }

      .cls-3, .cls-4 {
        stroke: none;
      }
    </style>
  </defs>
  <g id="Group_19611" data-name="Group 19611" transform="translate(-30 -585)">
    <g id="Path_31226" data-name="Path 31226" class="cls-1" transform="translate(30 585)">
      <path class="cls-3" d="M4.416,0A4.416,4.416,0,1,1,0,4.416,4.416,4.416,0,0,1,4.416,0Z"/>
      <path class="cls-4" d="M 4.415528297424316 0.4999980926513672 C 2.256498336791992 0.4999980926513672 0.4999980926513672 2.256498336791992 0.4999980926513672 4.415528297424316 C 0.4999980926513672 6.574558258056641 2.256498336791992 8.331058502197266 4.415528297424316 8.331058502197266 C 6.574558258056641 8.331058502197266 8.331058502197266 6.574558258056641 8.331058502197266 4.415528297424316 C 8.331058502197266 2.256498336791992 6.574558258056641 0.4999980926513672 4.415528297424316 0.4999980926513672 M 4.415528297424316 -1.9073486328125e-06 C 6.854158401489258 -1.9073486328125e-06 8.831058502197266 1.976898193359375 8.831058502197266 4.415528297424316 C 8.831058502197266 6.854158401489258 6.854158401489258 8.831058502197266 4.415528297424316 8.831058502197266 C 1.976898193359375 8.831058502197266 -1.9073486328125e-06 6.854158401489258 -1.9073486328125e-06 4.415528297424316 C -1.9073486328125e-06 1.976898193359375 1.976898193359375 -1.9073486328125e-06 4.415528297424316 -1.9073486328125e-06 Z"/>
    </g>
    <g id="Group_6995" data-name="Group 6995" transform="matrix(0.951, -0.309, 0.309, 0.951, 31.822, 588.879)">
      <rect id="Rectangle_1332" data-name="Rectangle 1332" class="cls-2" width="0.939" height="2.505" rx="0.47" transform="matrix(0.809, -0.588, 0.588, 0.809, 0, 0.865)"/>
      <rect id="Rectangle_1333" data-name="Rectangle 1333" class="cls-2" width="0.939" height="4.384" rx="0.47" transform="translate(1.462 3.006) rotate(-120)"/>
    </g>
  </g>
</svg>
