<svg xmlns="http://www.w3.org/2000/svg" width="21.714" height="13.034" viewBox="0 0 21.714 13.034">
  <defs>
    <style>
      .cls-1 {
        fill: #fff;
      }
    </style>
  </defs>
  <g id="Group_24998" data-name="Group 24998" transform="translate(-1684.767 -972.996)">
    <path id="Path_38708" data-name="Path 38708" class="cls-1" d="M1718.426,985.091c-.155.3-.367.557-.74.516a1.014,1.014,0,0,1-.525-.229c-1.216-1.065-2.418-2.146-3.63-3.218a.452.452,0,0,1-.175-.378c.008-.826.006-1.652,0-2.478a.392.392,0,0,1,.142-.328q1.84-1.629,3.671-3.266a.731.731,0,0,1,1.209.243.424.424,0,0,0,.046.063Z" transform="translate(-11.945 -1.04)"/>
    <path id="Path_38709" data-name="Path 38709" class="cls-1" d="M1692.358,986.03h-6a1.46,1.46,0,0,1-1.59-1.6v-9.88a1.451,1.451,0,0,1,1.544-1.557h12.106a1.446,1.446,0,0,1,1.546,1.553q0,4.961,0,9.922a1.448,1.448,0,0,1-1.564,1.557Z" transform="translate(0 0)"/>
  </g>
</svg>
