<svg xmlns="http://www.w3.org/2000/svg" width="10.747" height="9.417" viewBox="0 0 10.747 9.417">
  <defs>
    <style>
      .cls-1 {
        fill: #532280;
      }
    </style>
  </defs>
  <g id="Group_25463" data-name="Group 25463" transform="translate(-2870.81 -3777.574)">
    <path id="Path_38726" data-name="Path 38726" class="cls-1" d="M2880.216,3801.775c0-.168-.111-.133-.2-.133q-4.5,0-8.991,0c-.154,0-.21.032-.21.2.006,1.9,0,3.8.006,5.7a.5.5,0,0,0,.544.543c2.013,0,4.026,0,6.039.006.166,0,.221-.038.173-.206a1.672,1.672,0,0,1,.074-.987,2.162,2.162,0,0,1,2.569-1.435C2880.214,3804.231,2880.212,3803,2880.216,3801.775Zm-5.351,4.41v-2.64l2.109,1.318Z" transform="translate(0 -22.439)"/>
    <path id="Path_38727" data-name="Path 38727" class="cls-1" d="M2976.163,3861.329a1.88,1.88,0,1,0,1.847,1.887A1.865,1.865,0,0,0,2976.163,3861.329Zm.826,1.782c-.154.164-.3.092-.43-.046-.035-.037-.074-.071-.159-.153,0,.381,0,.7,0,1.018,0,.217.02.477-.278.473-.271,0-.263-.249-.261-.457,0-.322,0-.644,0-1.028-.117.107-.179.17-.248.225a.229.229,0,0,1-.332-.02.217.217,0,0,1-.031-.328q.357-.376.735-.734c.126-.119.251-.05.354.05.193.187.379.379.57.568C2977.039,3862.807,2977.146,3862.943,2976.989,3863.111Z" transform="translate(-96.453 -78.098)"/>
    <g id="Group_25067" data-name="Group 25067" transform="translate(2870.81 3777.574)">
      <path id="Path_38728" data-name="Path 38728" class="cls-1" d="M2892.273,3778.971h1.747l1.4-1.4h-1.746Z" transform="translate(-2890.824 -3777.574)"/>
      <path id="Path_38729" data-name="Path 38729" class="cls-1" d="M2973.743,3777.574h-.923l-1.4,1.4h2.32a.29.29,0,0,0,.29-.29v-.816A.29.29,0,0,0,2973.743,3777.574Z" transform="translate(-2964.627 -3777.574)"/>
      <path id="Path_38730" data-name="Path 38730" class="cls-1" d="M2934.991,3777.574h-1.746l-1.4,1.4h1.746Z" transform="translate(-2927.725 -3777.574)"/>
      <path id="Path_38731" data-name="Path 38731" class="cls-1" d="M2871.333,3778.971l1.4-1.4h-1.63a.29.29,0,0,0-.29.29v.816a.29.29,0,0,0,.29.29Z" transform="translate(-2870.81 -3777.574)"/>
    </g>
  </g>
</svg>
