<svg xmlns="http://www.w3.org/2000/svg" width="7.884" height="5.018" viewBox="0 0 7.884 5.018">
  <defs>
    <style>
      .cls-1 {
        fill: #9b3189;
      }
    </style>
  </defs>
  <g id="Group_13904" data-name="Group 13904" transform="translate(-1411.735 -409.132)">
    <path id="Path_19227" data-name="Path 19227" class="cls-1" d="M1415.573,408.132a4.393,4.393,0,0,1,3.31,1.466,8.223,8.223,0,0,1,.7.9.3.3,0,0,1,0,.271,4.746,4.746,0,0,1-3.173,2.3,4.1,4.1,0,0,1-3.746-1.226,12.286,12.286,0,0,1-.871-1.052.239.239,0,0,1,0-.318,4.887,4.887,0,0,1,3.146-2.278A5.851,5.851,0,0,1,1415.573,408.132Zm.132.936a1.571,1.571,0,1,0,1.556,1.581A1.567,1.567,0,0,0,1415.7,409.068Z" transform="translate(0 1)"/>
    <path id="Path_19228" data-name="Path 19228" class="cls-1" d="M1481.768,444.537c-.327.225-.406.5-.228.733s.453.23.778-.028a.867.867,0,0,1-.495.949.909.909,0,0,1-1.139-1.335A.892.892,0,0,1,1481.768,444.537Z" transform="translate(-65.746 -34.731)"/>
  </g>
</svg>
